G04 #@! TF.GenerationSoftware,KiCad,Pcbnew,(5.1.0)-1*
G04 #@! TF.CreationDate,2020-03-25T20:16:52-04:00*
G04 #@! TF.ProjectId,Bababooey,42616261-626f-46f6-9579-2e6b69636164,rev?*
G04 #@! TF.SameCoordinates,Original*
G04 #@! TF.FileFunction,Soldermask,Top*
G04 #@! TF.FilePolarity,Negative*
%FSLAX46Y46*%
G04 Gerber Fmt 4.6, Leading zero omitted, Abs format (unit mm)*
G04 Created by KiCad (PCBNEW (5.1.0)-1) date 2020-03-25 20:16:52*
%MOMM*%
%LPD*%
G04 APERTURE LIST*
%ADD10C,0.100000*%
G04 APERTURE END LIST*
D10*
G36*
X79965562Y-90644181D02*
G01*
X80000481Y-90654774D01*
X80032663Y-90671976D01*
X80060873Y-90695127D01*
X80084024Y-90723337D01*
X80101226Y-90755519D01*
X80111819Y-90790438D01*
X80116000Y-90832895D01*
X80116000Y-91974105D01*
X80111819Y-92016562D01*
X80101226Y-92051481D01*
X80084024Y-92083663D01*
X80060873Y-92111873D01*
X80032663Y-92135024D01*
X80000481Y-92152226D01*
X79965562Y-92162819D01*
X79923105Y-92167000D01*
X77556895Y-92167000D01*
X77514438Y-92162819D01*
X77479519Y-92152226D01*
X77447337Y-92135024D01*
X77419127Y-92111873D01*
X77395976Y-92083663D01*
X77378774Y-92051481D01*
X77368181Y-92016562D01*
X77364000Y-91974105D01*
X77364000Y-90832895D01*
X77368181Y-90790438D01*
X77378774Y-90755519D01*
X77395976Y-90723337D01*
X77419127Y-90695127D01*
X77447337Y-90671976D01*
X77479519Y-90654774D01*
X77514438Y-90644181D01*
X77556895Y-90640000D01*
X79923105Y-90640000D01*
X79965562Y-90644181D01*
X79965562Y-90644181D01*
G37*
G36*
X72345562Y-90644181D02*
G01*
X72380481Y-90654774D01*
X72412663Y-90671976D01*
X72440873Y-90695127D01*
X72464024Y-90723337D01*
X72481226Y-90755519D01*
X72491819Y-90790438D01*
X72496000Y-90832895D01*
X72496000Y-91974105D01*
X72491819Y-92016562D01*
X72481226Y-92051481D01*
X72464024Y-92083663D01*
X72440873Y-92111873D01*
X72412663Y-92135024D01*
X72380481Y-92152226D01*
X72345562Y-92162819D01*
X72303105Y-92167000D01*
X69936895Y-92167000D01*
X69894438Y-92162819D01*
X69859519Y-92152226D01*
X69827337Y-92135024D01*
X69799127Y-92111873D01*
X69775976Y-92083663D01*
X69758774Y-92051481D01*
X69748181Y-92016562D01*
X69744000Y-91974105D01*
X69744000Y-90832895D01*
X69748181Y-90790438D01*
X69758774Y-90755519D01*
X69775976Y-90723337D01*
X69799127Y-90695127D01*
X69827337Y-90671976D01*
X69859519Y-90654774D01*
X69894438Y-90644181D01*
X69936895Y-90640000D01*
X72303105Y-90640000D01*
X72345562Y-90644181D01*
X72345562Y-90644181D01*
G37*
G36*
X99955000Y-91659000D02*
G01*
X98253000Y-91659000D01*
X98253000Y-90157000D01*
X99955000Y-90157000D01*
X99955000Y-91659000D01*
X99955000Y-91659000D01*
G37*
G36*
X92755000Y-91659000D02*
G01*
X91053000Y-91659000D01*
X91053000Y-90157000D01*
X92755000Y-90157000D01*
X92755000Y-91659000D01*
X92755000Y-91659000D01*
G37*
G36*
X229125331Y-87168211D02*
G01*
X229453092Y-87303974D01*
X229748070Y-87501072D01*
X229998928Y-87751930D01*
X230196026Y-88046908D01*
X230331789Y-88374669D01*
X230401000Y-88722616D01*
X230401000Y-89077384D01*
X230331789Y-89425331D01*
X230196026Y-89753092D01*
X229998928Y-90048070D01*
X229748070Y-90298928D01*
X229453092Y-90496026D01*
X229125331Y-90631789D01*
X228777384Y-90701000D01*
X228422616Y-90701000D01*
X228074669Y-90631789D01*
X227746908Y-90496026D01*
X227451930Y-90298928D01*
X227201072Y-90048070D01*
X227003974Y-89753092D01*
X226868211Y-89425331D01*
X226799000Y-89077384D01*
X226799000Y-88722616D01*
X226868211Y-88374669D01*
X227003974Y-88046908D01*
X227201072Y-87751930D01*
X227451930Y-87501072D01*
X227746908Y-87303974D01*
X228074669Y-87168211D01*
X228422616Y-87099000D01*
X228777384Y-87099000D01*
X229125331Y-87168211D01*
X229125331Y-87168211D01*
G37*
G36*
X61485331Y-87168211D02*
G01*
X61813092Y-87303974D01*
X62108070Y-87501072D01*
X62358928Y-87751930D01*
X62556026Y-88046908D01*
X62691789Y-88374669D01*
X62761000Y-88722616D01*
X62761000Y-89077384D01*
X62691789Y-89425331D01*
X62556026Y-89753092D01*
X62358928Y-90048070D01*
X62108070Y-90298928D01*
X61813092Y-90496026D01*
X61485331Y-90631789D01*
X61137384Y-90701000D01*
X60782616Y-90701000D01*
X60434669Y-90631789D01*
X60106908Y-90496026D01*
X59811930Y-90298928D01*
X59561072Y-90048070D01*
X59363974Y-89753092D01*
X59228211Y-89425331D01*
X59159000Y-89077384D01*
X59159000Y-88722616D01*
X59228211Y-88374669D01*
X59363974Y-88046908D01*
X59561072Y-87751930D01*
X59811930Y-87501072D01*
X60106908Y-87303974D01*
X60434669Y-87168211D01*
X60782616Y-87099000D01*
X61137384Y-87099000D01*
X61485331Y-87168211D01*
X61485331Y-87168211D01*
G37*
G36*
X79965562Y-87669181D02*
G01*
X80000481Y-87679774D01*
X80032663Y-87696976D01*
X80060873Y-87720127D01*
X80084024Y-87748337D01*
X80101226Y-87780519D01*
X80111819Y-87815438D01*
X80116000Y-87857895D01*
X80116000Y-88999105D01*
X80111819Y-89041562D01*
X80101226Y-89076481D01*
X80084024Y-89108663D01*
X80060873Y-89136873D01*
X80032663Y-89160024D01*
X80000481Y-89177226D01*
X79965562Y-89187819D01*
X79923105Y-89192000D01*
X77556895Y-89192000D01*
X77514438Y-89187819D01*
X77479519Y-89177226D01*
X77447337Y-89160024D01*
X77419127Y-89136873D01*
X77395976Y-89108663D01*
X77378774Y-89076481D01*
X77368181Y-89041562D01*
X77364000Y-88999105D01*
X77364000Y-87857895D01*
X77368181Y-87815438D01*
X77378774Y-87780519D01*
X77395976Y-87748337D01*
X77419127Y-87720127D01*
X77447337Y-87696976D01*
X77479519Y-87679774D01*
X77514438Y-87669181D01*
X77556895Y-87665000D01*
X79923105Y-87665000D01*
X79965562Y-87669181D01*
X79965562Y-87669181D01*
G37*
G36*
X72345562Y-87669181D02*
G01*
X72380481Y-87679774D01*
X72412663Y-87696976D01*
X72440873Y-87720127D01*
X72464024Y-87748337D01*
X72481226Y-87780519D01*
X72491819Y-87815438D01*
X72496000Y-87857895D01*
X72496000Y-88999105D01*
X72491819Y-89041562D01*
X72481226Y-89076481D01*
X72464024Y-89108663D01*
X72440873Y-89136873D01*
X72412663Y-89160024D01*
X72380481Y-89177226D01*
X72345562Y-89187819D01*
X72303105Y-89192000D01*
X69936895Y-89192000D01*
X69894438Y-89187819D01*
X69859519Y-89177226D01*
X69827337Y-89160024D01*
X69799127Y-89136873D01*
X69775976Y-89108663D01*
X69758774Y-89076481D01*
X69748181Y-89041562D01*
X69744000Y-88999105D01*
X69744000Y-87857895D01*
X69748181Y-87815438D01*
X69758774Y-87780519D01*
X69775976Y-87748337D01*
X69799127Y-87720127D01*
X69827337Y-87696976D01*
X69859519Y-87679774D01*
X69894438Y-87669181D01*
X69936895Y-87665000D01*
X72303105Y-87665000D01*
X72345562Y-87669181D01*
X72345562Y-87669181D01*
G37*
G36*
X220540562Y-86258181D02*
G01*
X220575481Y-86268774D01*
X220607663Y-86285976D01*
X220635873Y-86309127D01*
X220659024Y-86337337D01*
X220676226Y-86369519D01*
X220686819Y-86404438D01*
X220691000Y-86446895D01*
X220691000Y-88813105D01*
X220686819Y-88855562D01*
X220676226Y-88890481D01*
X220659024Y-88922663D01*
X220635873Y-88950873D01*
X220607663Y-88974024D01*
X220575481Y-88991226D01*
X220540562Y-89001819D01*
X220498105Y-89006000D01*
X219356895Y-89006000D01*
X219314438Y-89001819D01*
X219279519Y-88991226D01*
X219247337Y-88974024D01*
X219219127Y-88950873D01*
X219195976Y-88922663D01*
X219178774Y-88890481D01*
X219168181Y-88855562D01*
X219164000Y-88813105D01*
X219164000Y-86446895D01*
X219168181Y-86404438D01*
X219178774Y-86369519D01*
X219195976Y-86337337D01*
X219219127Y-86309127D01*
X219247337Y-86285976D01*
X219279519Y-86268774D01*
X219314438Y-86258181D01*
X219356895Y-86254000D01*
X220498105Y-86254000D01*
X220540562Y-86258181D01*
X220540562Y-86258181D01*
G37*
G36*
X217565562Y-86258181D02*
G01*
X217600481Y-86268774D01*
X217632663Y-86285976D01*
X217660873Y-86309127D01*
X217684024Y-86337337D01*
X217701226Y-86369519D01*
X217711819Y-86404438D01*
X217716000Y-86446895D01*
X217716000Y-88813105D01*
X217711819Y-88855562D01*
X217701226Y-88890481D01*
X217684024Y-88922663D01*
X217660873Y-88950873D01*
X217632663Y-88974024D01*
X217600481Y-88991226D01*
X217565562Y-89001819D01*
X217523105Y-89006000D01*
X216381895Y-89006000D01*
X216339438Y-89001819D01*
X216304519Y-88991226D01*
X216272337Y-88974024D01*
X216244127Y-88950873D01*
X216220976Y-88922663D01*
X216203774Y-88890481D01*
X216193181Y-88855562D01*
X216189000Y-88813105D01*
X216189000Y-86446895D01*
X216193181Y-86404438D01*
X216203774Y-86369519D01*
X216220976Y-86337337D01*
X216244127Y-86309127D01*
X216272337Y-86285976D01*
X216304519Y-86268774D01*
X216339438Y-86258181D01*
X216381895Y-86254000D01*
X217523105Y-86254000D01*
X217565562Y-86258181D01*
X217565562Y-86258181D01*
G37*
G36*
X92755000Y-88659000D02*
G01*
X91053000Y-88659000D01*
X91053000Y-87157000D01*
X92755000Y-87157000D01*
X92755000Y-88659000D01*
X92755000Y-88659000D01*
G37*
G36*
X99955000Y-88659000D02*
G01*
X98253000Y-88659000D01*
X98253000Y-87157000D01*
X99955000Y-87157000D01*
X99955000Y-88659000D01*
X99955000Y-88659000D01*
G37*
G36*
X176767142Y-86848242D02*
G01*
X176915101Y-86909529D01*
X177048255Y-86998499D01*
X177161501Y-87111745D01*
X177250471Y-87244899D01*
X177311758Y-87392858D01*
X177343000Y-87549925D01*
X177343000Y-87710075D01*
X177311758Y-87867142D01*
X177250471Y-88015101D01*
X177161501Y-88148255D01*
X177048255Y-88261501D01*
X176915101Y-88350471D01*
X176767142Y-88411758D01*
X176610075Y-88443000D01*
X176449925Y-88443000D01*
X176292858Y-88411758D01*
X176144899Y-88350471D01*
X176011745Y-88261501D01*
X175898499Y-88148255D01*
X175809529Y-88015101D01*
X175748242Y-87867142D01*
X175717000Y-87710075D01*
X175717000Y-87549925D01*
X175748242Y-87392858D01*
X175809529Y-87244899D01*
X175898499Y-87111745D01*
X176011745Y-86998499D01*
X176144899Y-86909529D01*
X176292858Y-86848242D01*
X176449925Y-86817000D01*
X176610075Y-86817000D01*
X176767142Y-86848242D01*
X176767142Y-86848242D01*
G37*
G36*
X184387142Y-86848242D02*
G01*
X184535101Y-86909529D01*
X184668255Y-86998499D01*
X184781501Y-87111745D01*
X184870471Y-87244899D01*
X184931758Y-87392858D01*
X184963000Y-87549925D01*
X184963000Y-87710075D01*
X184931758Y-87867142D01*
X184870471Y-88015101D01*
X184781501Y-88148255D01*
X184668255Y-88261501D01*
X184535101Y-88350471D01*
X184387142Y-88411758D01*
X184230075Y-88443000D01*
X184069925Y-88443000D01*
X183912858Y-88411758D01*
X183764899Y-88350471D01*
X183631745Y-88261501D01*
X183518499Y-88148255D01*
X183429529Y-88015101D01*
X183368242Y-87867142D01*
X183337000Y-87710075D01*
X183337000Y-87549925D01*
X183368242Y-87392858D01*
X183429529Y-87244899D01*
X183518499Y-87111745D01*
X183631745Y-86998499D01*
X183764899Y-86909529D01*
X183912858Y-86848242D01*
X184069925Y-86817000D01*
X184230075Y-86817000D01*
X184387142Y-86848242D01*
X184387142Y-86848242D01*
G37*
G36*
X181847142Y-86848242D02*
G01*
X181995101Y-86909529D01*
X182128255Y-86998499D01*
X182241501Y-87111745D01*
X182330471Y-87244899D01*
X182391758Y-87392858D01*
X182423000Y-87549925D01*
X182423000Y-87710075D01*
X182391758Y-87867142D01*
X182330471Y-88015101D01*
X182241501Y-88148255D01*
X182128255Y-88261501D01*
X181995101Y-88350471D01*
X181847142Y-88411758D01*
X181690075Y-88443000D01*
X181529925Y-88443000D01*
X181372858Y-88411758D01*
X181224899Y-88350471D01*
X181091745Y-88261501D01*
X180978499Y-88148255D01*
X180889529Y-88015101D01*
X180828242Y-87867142D01*
X180797000Y-87710075D01*
X180797000Y-87549925D01*
X180828242Y-87392858D01*
X180889529Y-87244899D01*
X180978499Y-87111745D01*
X181091745Y-86998499D01*
X181224899Y-86909529D01*
X181372858Y-86848242D01*
X181529925Y-86817000D01*
X181690075Y-86817000D01*
X181847142Y-86848242D01*
X181847142Y-86848242D01*
G37*
G36*
X179307142Y-86848242D02*
G01*
X179455101Y-86909529D01*
X179588255Y-86998499D01*
X179701501Y-87111745D01*
X179790471Y-87244899D01*
X179851758Y-87392858D01*
X179883000Y-87549925D01*
X179883000Y-87710075D01*
X179851758Y-87867142D01*
X179790471Y-88015101D01*
X179701501Y-88148255D01*
X179588255Y-88261501D01*
X179455101Y-88350471D01*
X179307142Y-88411758D01*
X179150075Y-88443000D01*
X178989925Y-88443000D01*
X178832858Y-88411758D01*
X178684899Y-88350471D01*
X178551745Y-88261501D01*
X178438499Y-88148255D01*
X178349529Y-88015101D01*
X178288242Y-87867142D01*
X178257000Y-87710075D01*
X178257000Y-87549925D01*
X178288242Y-87392858D01*
X178349529Y-87244899D01*
X178438499Y-87111745D01*
X178551745Y-86998499D01*
X178684899Y-86909529D01*
X178832858Y-86848242D01*
X178989925Y-86817000D01*
X179150075Y-86817000D01*
X179307142Y-86848242D01*
X179307142Y-86848242D01*
G37*
G36*
X166607142Y-86848242D02*
G01*
X166755101Y-86909529D01*
X166888255Y-86998499D01*
X167001501Y-87111745D01*
X167090471Y-87244899D01*
X167151758Y-87392858D01*
X167183000Y-87549925D01*
X167183000Y-87710075D01*
X167151758Y-87867142D01*
X167090471Y-88015101D01*
X167001501Y-88148255D01*
X166888255Y-88261501D01*
X166755101Y-88350471D01*
X166607142Y-88411758D01*
X166450075Y-88443000D01*
X166289925Y-88443000D01*
X166132858Y-88411758D01*
X165984899Y-88350471D01*
X165851745Y-88261501D01*
X165738499Y-88148255D01*
X165649529Y-88015101D01*
X165588242Y-87867142D01*
X165557000Y-87710075D01*
X165557000Y-87549925D01*
X165588242Y-87392858D01*
X165649529Y-87244899D01*
X165738499Y-87111745D01*
X165851745Y-86998499D01*
X165984899Y-86909529D01*
X166132858Y-86848242D01*
X166289925Y-86817000D01*
X166450075Y-86817000D01*
X166607142Y-86848242D01*
X166607142Y-86848242D01*
G37*
G36*
X164067142Y-86848242D02*
G01*
X164215101Y-86909529D01*
X164348255Y-86998499D01*
X164461501Y-87111745D01*
X164550471Y-87244899D01*
X164611758Y-87392858D01*
X164643000Y-87549925D01*
X164643000Y-87710075D01*
X164611758Y-87867142D01*
X164550471Y-88015101D01*
X164461501Y-88148255D01*
X164348255Y-88261501D01*
X164215101Y-88350471D01*
X164067142Y-88411758D01*
X163910075Y-88443000D01*
X163749925Y-88443000D01*
X163592858Y-88411758D01*
X163444899Y-88350471D01*
X163311745Y-88261501D01*
X163198499Y-88148255D01*
X163109529Y-88015101D01*
X163048242Y-87867142D01*
X163017000Y-87710075D01*
X163017000Y-87549925D01*
X163048242Y-87392858D01*
X163109529Y-87244899D01*
X163198499Y-87111745D01*
X163311745Y-86998499D01*
X163444899Y-86909529D01*
X163592858Y-86848242D01*
X163749925Y-86817000D01*
X163910075Y-86817000D01*
X164067142Y-86848242D01*
X164067142Y-86848242D01*
G37*
G36*
X161527142Y-86848242D02*
G01*
X161675101Y-86909529D01*
X161808255Y-86998499D01*
X161921501Y-87111745D01*
X162010471Y-87244899D01*
X162071758Y-87392858D01*
X162103000Y-87549925D01*
X162103000Y-87710075D01*
X162071758Y-87867142D01*
X162010471Y-88015101D01*
X161921501Y-88148255D01*
X161808255Y-88261501D01*
X161675101Y-88350471D01*
X161527142Y-88411758D01*
X161370075Y-88443000D01*
X161209925Y-88443000D01*
X161052858Y-88411758D01*
X160904899Y-88350471D01*
X160771745Y-88261501D01*
X160658499Y-88148255D01*
X160569529Y-88015101D01*
X160508242Y-87867142D01*
X160477000Y-87710075D01*
X160477000Y-87549925D01*
X160508242Y-87392858D01*
X160569529Y-87244899D01*
X160658499Y-87111745D01*
X160771745Y-86998499D01*
X160904899Y-86909529D01*
X161052858Y-86848242D01*
X161209925Y-86817000D01*
X161370075Y-86817000D01*
X161527142Y-86848242D01*
X161527142Y-86848242D01*
G37*
G36*
X158987142Y-86848242D02*
G01*
X159135101Y-86909529D01*
X159268255Y-86998499D01*
X159381501Y-87111745D01*
X159470471Y-87244899D01*
X159531758Y-87392858D01*
X159563000Y-87549925D01*
X159563000Y-87710075D01*
X159531758Y-87867142D01*
X159470471Y-88015101D01*
X159381501Y-88148255D01*
X159268255Y-88261501D01*
X159135101Y-88350471D01*
X158987142Y-88411758D01*
X158830075Y-88443000D01*
X158669925Y-88443000D01*
X158512858Y-88411758D01*
X158364899Y-88350471D01*
X158231745Y-88261501D01*
X158118499Y-88148255D01*
X158029529Y-88015101D01*
X157968242Y-87867142D01*
X157937000Y-87710075D01*
X157937000Y-87549925D01*
X157968242Y-87392858D01*
X158029529Y-87244899D01*
X158118499Y-87111745D01*
X158231745Y-86998499D01*
X158364899Y-86909529D01*
X158512858Y-86848242D01*
X158669925Y-86817000D01*
X158830075Y-86817000D01*
X158987142Y-86848242D01*
X158987142Y-86848242D01*
G37*
G36*
X79965562Y-83024181D02*
G01*
X80000481Y-83034774D01*
X80032663Y-83051976D01*
X80060873Y-83075127D01*
X80084024Y-83103337D01*
X80101226Y-83135519D01*
X80111819Y-83170438D01*
X80116000Y-83212895D01*
X80116000Y-84354105D01*
X80111819Y-84396562D01*
X80101226Y-84431481D01*
X80084024Y-84463663D01*
X80060873Y-84491873D01*
X80032663Y-84515024D01*
X80000481Y-84532226D01*
X79965562Y-84542819D01*
X79923105Y-84547000D01*
X77556895Y-84547000D01*
X77514438Y-84542819D01*
X77479519Y-84532226D01*
X77447337Y-84515024D01*
X77419127Y-84491873D01*
X77395976Y-84463663D01*
X77378774Y-84431481D01*
X77368181Y-84396562D01*
X77364000Y-84354105D01*
X77364000Y-83212895D01*
X77368181Y-83170438D01*
X77378774Y-83135519D01*
X77395976Y-83103337D01*
X77419127Y-83075127D01*
X77447337Y-83051976D01*
X77479519Y-83034774D01*
X77514438Y-83024181D01*
X77556895Y-83020000D01*
X79923105Y-83020000D01*
X79965562Y-83024181D01*
X79965562Y-83024181D01*
G37*
G36*
X72345562Y-83024181D02*
G01*
X72380481Y-83034774D01*
X72412663Y-83051976D01*
X72440873Y-83075127D01*
X72464024Y-83103337D01*
X72481226Y-83135519D01*
X72491819Y-83170438D01*
X72496000Y-83212895D01*
X72496000Y-84354105D01*
X72491819Y-84396562D01*
X72481226Y-84431481D01*
X72464024Y-84463663D01*
X72440873Y-84491873D01*
X72412663Y-84515024D01*
X72380481Y-84532226D01*
X72345562Y-84542819D01*
X72303105Y-84547000D01*
X69936895Y-84547000D01*
X69894438Y-84542819D01*
X69859519Y-84532226D01*
X69827337Y-84515024D01*
X69799127Y-84491873D01*
X69775976Y-84463663D01*
X69758774Y-84431481D01*
X69748181Y-84396562D01*
X69744000Y-84354105D01*
X69744000Y-83212895D01*
X69748181Y-83170438D01*
X69758774Y-83135519D01*
X69775976Y-83103337D01*
X69799127Y-83075127D01*
X69827337Y-83051976D01*
X69859519Y-83034774D01*
X69894438Y-83024181D01*
X69936895Y-83020000D01*
X72303105Y-83020000D01*
X72345562Y-83024181D01*
X72345562Y-83024181D01*
G37*
G36*
X220540562Y-81178181D02*
G01*
X220575481Y-81188774D01*
X220607663Y-81205976D01*
X220635873Y-81229127D01*
X220659024Y-81257337D01*
X220676226Y-81289519D01*
X220686819Y-81324438D01*
X220691000Y-81366895D01*
X220691000Y-83733105D01*
X220686819Y-83775562D01*
X220676226Y-83810481D01*
X220659024Y-83842663D01*
X220635873Y-83870873D01*
X220607663Y-83894024D01*
X220575481Y-83911226D01*
X220540562Y-83921819D01*
X220498105Y-83926000D01*
X219356895Y-83926000D01*
X219314438Y-83921819D01*
X219279519Y-83911226D01*
X219247337Y-83894024D01*
X219219127Y-83870873D01*
X219195976Y-83842663D01*
X219178774Y-83810481D01*
X219168181Y-83775562D01*
X219164000Y-83733105D01*
X219164000Y-81366895D01*
X219168181Y-81324438D01*
X219178774Y-81289519D01*
X219195976Y-81257337D01*
X219219127Y-81229127D01*
X219247337Y-81205976D01*
X219279519Y-81188774D01*
X219314438Y-81178181D01*
X219356895Y-81174000D01*
X220498105Y-81174000D01*
X220540562Y-81178181D01*
X220540562Y-81178181D01*
G37*
G36*
X217565562Y-81178181D02*
G01*
X217600481Y-81188774D01*
X217632663Y-81205976D01*
X217660873Y-81229127D01*
X217684024Y-81257337D01*
X217701226Y-81289519D01*
X217711819Y-81324438D01*
X217716000Y-81366895D01*
X217716000Y-83733105D01*
X217711819Y-83775562D01*
X217701226Y-83810481D01*
X217684024Y-83842663D01*
X217660873Y-83870873D01*
X217632663Y-83894024D01*
X217600481Y-83911226D01*
X217565562Y-83921819D01*
X217523105Y-83926000D01*
X216381895Y-83926000D01*
X216339438Y-83921819D01*
X216304519Y-83911226D01*
X216272337Y-83894024D01*
X216244127Y-83870873D01*
X216220976Y-83842663D01*
X216203774Y-83810481D01*
X216193181Y-83775562D01*
X216189000Y-83733105D01*
X216189000Y-81366895D01*
X216193181Y-81324438D01*
X216203774Y-81289519D01*
X216220976Y-81257337D01*
X216244127Y-81229127D01*
X216272337Y-81205976D01*
X216304519Y-81188774D01*
X216339438Y-81178181D01*
X216381895Y-81174000D01*
X217523105Y-81174000D01*
X217565562Y-81178181D01*
X217565562Y-81178181D01*
G37*
G36*
X118220443Y-81655519D02*
G01*
X118286627Y-81662037D01*
X118456466Y-81713557D01*
X118612991Y-81797222D01*
X118648729Y-81826552D01*
X118750186Y-81909814D01*
X118833448Y-82011271D01*
X118862778Y-82047009D01*
X118946443Y-82203534D01*
X118997963Y-82373373D01*
X119015359Y-82550000D01*
X118997963Y-82726627D01*
X118946443Y-82896466D01*
X118862778Y-83052991D01*
X118852801Y-83065148D01*
X118750186Y-83190186D01*
X118648729Y-83273448D01*
X118612991Y-83302778D01*
X118456466Y-83386443D01*
X118286627Y-83437963D01*
X118220443Y-83444481D01*
X118154260Y-83451000D01*
X118065740Y-83451000D01*
X117999557Y-83444481D01*
X117933373Y-83437963D01*
X117763534Y-83386443D01*
X117607009Y-83302778D01*
X117571271Y-83273448D01*
X117469814Y-83190186D01*
X117367199Y-83065148D01*
X117357222Y-83052991D01*
X117273557Y-82896466D01*
X117222037Y-82726627D01*
X117204641Y-82550000D01*
X117222037Y-82373373D01*
X117273557Y-82203534D01*
X117357222Y-82047009D01*
X117386552Y-82011271D01*
X117469814Y-81909814D01*
X117571271Y-81826552D01*
X117607009Y-81797222D01*
X117763534Y-81713557D01*
X117933373Y-81662037D01*
X117999557Y-81655519D01*
X118065740Y-81649000D01*
X118154260Y-81649000D01*
X118220443Y-81655519D01*
X118220443Y-81655519D01*
G37*
G36*
X123300443Y-81655519D02*
G01*
X123366627Y-81662037D01*
X123536466Y-81713557D01*
X123692991Y-81797222D01*
X123728729Y-81826552D01*
X123830186Y-81909814D01*
X123913448Y-82011271D01*
X123942778Y-82047009D01*
X124026443Y-82203534D01*
X124077963Y-82373373D01*
X124095359Y-82550000D01*
X124077963Y-82726627D01*
X124026443Y-82896466D01*
X123942778Y-83052991D01*
X123932801Y-83065148D01*
X123830186Y-83190186D01*
X123728729Y-83273448D01*
X123692991Y-83302778D01*
X123536466Y-83386443D01*
X123366627Y-83437963D01*
X123300443Y-83444481D01*
X123234260Y-83451000D01*
X123145740Y-83451000D01*
X123079557Y-83444481D01*
X123013373Y-83437963D01*
X122843534Y-83386443D01*
X122687009Y-83302778D01*
X122651271Y-83273448D01*
X122549814Y-83190186D01*
X122447199Y-83065148D01*
X122437222Y-83052991D01*
X122353557Y-82896466D01*
X122302037Y-82726627D01*
X122284641Y-82550000D01*
X122302037Y-82373373D01*
X122353557Y-82203534D01*
X122437222Y-82047009D01*
X122466552Y-82011271D01*
X122549814Y-81909814D01*
X122651271Y-81826552D01*
X122687009Y-81797222D01*
X122843534Y-81713557D01*
X123013373Y-81662037D01*
X123079557Y-81655519D01*
X123145740Y-81649000D01*
X123234260Y-81649000D01*
X123300443Y-81655519D01*
X123300443Y-81655519D01*
G37*
G36*
X120760443Y-81655519D02*
G01*
X120826627Y-81662037D01*
X120996466Y-81713557D01*
X121152991Y-81797222D01*
X121188729Y-81826552D01*
X121290186Y-81909814D01*
X121373448Y-82011271D01*
X121402778Y-82047009D01*
X121486443Y-82203534D01*
X121537963Y-82373373D01*
X121555359Y-82550000D01*
X121537963Y-82726627D01*
X121486443Y-82896466D01*
X121402778Y-83052991D01*
X121392801Y-83065148D01*
X121290186Y-83190186D01*
X121188729Y-83273448D01*
X121152991Y-83302778D01*
X120996466Y-83386443D01*
X120826627Y-83437963D01*
X120760443Y-83444481D01*
X120694260Y-83451000D01*
X120605740Y-83451000D01*
X120539557Y-83444481D01*
X120473373Y-83437963D01*
X120303534Y-83386443D01*
X120147009Y-83302778D01*
X120111271Y-83273448D01*
X120009814Y-83190186D01*
X119907199Y-83065148D01*
X119897222Y-83052991D01*
X119813557Y-82896466D01*
X119762037Y-82726627D01*
X119744641Y-82550000D01*
X119762037Y-82373373D01*
X119813557Y-82203534D01*
X119897222Y-82047009D01*
X119926552Y-82011271D01*
X120009814Y-81909814D01*
X120111271Y-81826552D01*
X120147009Y-81797222D01*
X120303534Y-81713557D01*
X120473373Y-81662037D01*
X120539557Y-81655519D01*
X120605740Y-81649000D01*
X120694260Y-81649000D01*
X120760443Y-81655519D01*
X120760443Y-81655519D01*
G37*
G36*
X115680443Y-81655519D02*
G01*
X115746627Y-81662037D01*
X115916466Y-81713557D01*
X116072991Y-81797222D01*
X116108729Y-81826552D01*
X116210186Y-81909814D01*
X116293448Y-82011271D01*
X116322778Y-82047009D01*
X116406443Y-82203534D01*
X116457963Y-82373373D01*
X116475359Y-82550000D01*
X116457963Y-82726627D01*
X116406443Y-82896466D01*
X116322778Y-83052991D01*
X116312801Y-83065148D01*
X116210186Y-83190186D01*
X116108729Y-83273448D01*
X116072991Y-83302778D01*
X115916466Y-83386443D01*
X115746627Y-83437963D01*
X115680443Y-83444481D01*
X115614260Y-83451000D01*
X115525740Y-83451000D01*
X115459557Y-83444481D01*
X115393373Y-83437963D01*
X115223534Y-83386443D01*
X115067009Y-83302778D01*
X115031271Y-83273448D01*
X114929814Y-83190186D01*
X114827199Y-83065148D01*
X114817222Y-83052991D01*
X114733557Y-82896466D01*
X114682037Y-82726627D01*
X114664641Y-82550000D01*
X114682037Y-82373373D01*
X114733557Y-82203534D01*
X114817222Y-82047009D01*
X114846552Y-82011271D01*
X114929814Y-81909814D01*
X115031271Y-81826552D01*
X115067009Y-81797222D01*
X115223534Y-81713557D01*
X115393373Y-81662037D01*
X115459557Y-81655519D01*
X115525740Y-81649000D01*
X115614260Y-81649000D01*
X115680443Y-81655519D01*
X115680443Y-81655519D01*
G37*
G36*
X110600443Y-81655519D02*
G01*
X110666627Y-81662037D01*
X110836466Y-81713557D01*
X110992991Y-81797222D01*
X111028729Y-81826552D01*
X111130186Y-81909814D01*
X111213448Y-82011271D01*
X111242778Y-82047009D01*
X111326443Y-82203534D01*
X111377963Y-82373373D01*
X111395359Y-82550000D01*
X111377963Y-82726627D01*
X111326443Y-82896466D01*
X111242778Y-83052991D01*
X111232801Y-83065148D01*
X111130186Y-83190186D01*
X111028729Y-83273448D01*
X110992991Y-83302778D01*
X110836466Y-83386443D01*
X110666627Y-83437963D01*
X110600443Y-83444481D01*
X110534260Y-83451000D01*
X110445740Y-83451000D01*
X110379557Y-83444481D01*
X110313373Y-83437963D01*
X110143534Y-83386443D01*
X109987009Y-83302778D01*
X109951271Y-83273448D01*
X109849814Y-83190186D01*
X109747199Y-83065148D01*
X109737222Y-83052991D01*
X109653557Y-82896466D01*
X109602037Y-82726627D01*
X109584641Y-82550000D01*
X109602037Y-82373373D01*
X109653557Y-82203534D01*
X109737222Y-82047009D01*
X109766552Y-82011271D01*
X109849814Y-81909814D01*
X109951271Y-81826552D01*
X109987009Y-81797222D01*
X110143534Y-81713557D01*
X110313373Y-81662037D01*
X110379557Y-81655519D01*
X110445740Y-81649000D01*
X110534260Y-81649000D01*
X110600443Y-81655519D01*
X110600443Y-81655519D01*
G37*
G36*
X108060443Y-81655519D02*
G01*
X108126627Y-81662037D01*
X108296466Y-81713557D01*
X108452991Y-81797222D01*
X108488729Y-81826552D01*
X108590186Y-81909814D01*
X108673448Y-82011271D01*
X108702778Y-82047009D01*
X108786443Y-82203534D01*
X108837963Y-82373373D01*
X108855359Y-82550000D01*
X108837963Y-82726627D01*
X108786443Y-82896466D01*
X108702778Y-83052991D01*
X108692801Y-83065148D01*
X108590186Y-83190186D01*
X108488729Y-83273448D01*
X108452991Y-83302778D01*
X108296466Y-83386443D01*
X108126627Y-83437963D01*
X108060443Y-83444481D01*
X107994260Y-83451000D01*
X107905740Y-83451000D01*
X107839557Y-83444481D01*
X107773373Y-83437963D01*
X107603534Y-83386443D01*
X107447009Y-83302778D01*
X107411271Y-83273448D01*
X107309814Y-83190186D01*
X107207199Y-83065148D01*
X107197222Y-83052991D01*
X107113557Y-82896466D01*
X107062037Y-82726627D01*
X107044641Y-82550000D01*
X107062037Y-82373373D01*
X107113557Y-82203534D01*
X107197222Y-82047009D01*
X107226552Y-82011271D01*
X107309814Y-81909814D01*
X107411271Y-81826552D01*
X107447009Y-81797222D01*
X107603534Y-81713557D01*
X107773373Y-81662037D01*
X107839557Y-81655519D01*
X107905740Y-81649000D01*
X107994260Y-81649000D01*
X108060443Y-81655519D01*
X108060443Y-81655519D01*
G37*
G36*
X105520443Y-81655519D02*
G01*
X105586627Y-81662037D01*
X105756466Y-81713557D01*
X105912991Y-81797222D01*
X105948729Y-81826552D01*
X106050186Y-81909814D01*
X106133448Y-82011271D01*
X106162778Y-82047009D01*
X106246443Y-82203534D01*
X106297963Y-82373373D01*
X106315359Y-82550000D01*
X106297963Y-82726627D01*
X106246443Y-82896466D01*
X106162778Y-83052991D01*
X106152801Y-83065148D01*
X106050186Y-83190186D01*
X105948729Y-83273448D01*
X105912991Y-83302778D01*
X105756466Y-83386443D01*
X105586627Y-83437963D01*
X105520443Y-83444481D01*
X105454260Y-83451000D01*
X105365740Y-83451000D01*
X105299557Y-83444481D01*
X105233373Y-83437963D01*
X105063534Y-83386443D01*
X104907009Y-83302778D01*
X104871271Y-83273448D01*
X104769814Y-83190186D01*
X104667199Y-83065148D01*
X104657222Y-83052991D01*
X104573557Y-82896466D01*
X104522037Y-82726627D01*
X104504641Y-82550000D01*
X104522037Y-82373373D01*
X104573557Y-82203534D01*
X104657222Y-82047009D01*
X104686552Y-82011271D01*
X104769814Y-81909814D01*
X104871271Y-81826552D01*
X104907009Y-81797222D01*
X105063534Y-81713557D01*
X105233373Y-81662037D01*
X105299557Y-81655519D01*
X105365740Y-81649000D01*
X105454260Y-81649000D01*
X105520443Y-81655519D01*
X105520443Y-81655519D01*
G37*
G36*
X113140443Y-81655519D02*
G01*
X113206627Y-81662037D01*
X113376466Y-81713557D01*
X113532991Y-81797222D01*
X113568729Y-81826552D01*
X113670186Y-81909814D01*
X113753448Y-82011271D01*
X113782778Y-82047009D01*
X113866443Y-82203534D01*
X113917963Y-82373373D01*
X113935359Y-82550000D01*
X113917963Y-82726627D01*
X113866443Y-82896466D01*
X113782778Y-83052991D01*
X113772801Y-83065148D01*
X113670186Y-83190186D01*
X113568729Y-83273448D01*
X113532991Y-83302778D01*
X113376466Y-83386443D01*
X113206627Y-83437963D01*
X113140443Y-83444481D01*
X113074260Y-83451000D01*
X112985740Y-83451000D01*
X112919557Y-83444481D01*
X112853373Y-83437963D01*
X112683534Y-83386443D01*
X112527009Y-83302778D01*
X112491271Y-83273448D01*
X112389814Y-83190186D01*
X112287199Y-83065148D01*
X112277222Y-83052991D01*
X112193557Y-82896466D01*
X112142037Y-82726627D01*
X112124641Y-82550000D01*
X112142037Y-82373373D01*
X112193557Y-82203534D01*
X112277222Y-82047009D01*
X112306552Y-82011271D01*
X112389814Y-81909814D01*
X112491271Y-81826552D01*
X112527009Y-81797222D01*
X112683534Y-81713557D01*
X112853373Y-81662037D01*
X112919557Y-81655519D01*
X112985740Y-81649000D01*
X113074260Y-81649000D01*
X113140443Y-81655519D01*
X113140443Y-81655519D01*
G37*
G36*
X79965562Y-80049181D02*
G01*
X80000481Y-80059774D01*
X80032663Y-80076976D01*
X80060873Y-80100127D01*
X80084024Y-80128337D01*
X80101226Y-80160519D01*
X80111819Y-80195438D01*
X80116000Y-80237895D01*
X80116000Y-81379105D01*
X80111819Y-81421562D01*
X80101226Y-81456481D01*
X80084024Y-81488663D01*
X80060873Y-81516873D01*
X80032663Y-81540024D01*
X80000481Y-81557226D01*
X79965562Y-81567819D01*
X79923105Y-81572000D01*
X77556895Y-81572000D01*
X77514438Y-81567819D01*
X77479519Y-81557226D01*
X77447337Y-81540024D01*
X77419127Y-81516873D01*
X77395976Y-81488663D01*
X77378774Y-81456481D01*
X77368181Y-81421562D01*
X77364000Y-81379105D01*
X77364000Y-80237895D01*
X77368181Y-80195438D01*
X77378774Y-80160519D01*
X77395976Y-80128337D01*
X77419127Y-80100127D01*
X77447337Y-80076976D01*
X77479519Y-80059774D01*
X77514438Y-80049181D01*
X77556895Y-80045000D01*
X79923105Y-80045000D01*
X79965562Y-80049181D01*
X79965562Y-80049181D01*
G37*
G36*
X72345562Y-80049181D02*
G01*
X72380481Y-80059774D01*
X72412663Y-80076976D01*
X72440873Y-80100127D01*
X72464024Y-80128337D01*
X72481226Y-80160519D01*
X72491819Y-80195438D01*
X72496000Y-80237895D01*
X72496000Y-81379105D01*
X72491819Y-81421562D01*
X72481226Y-81456481D01*
X72464024Y-81488663D01*
X72440873Y-81516873D01*
X72412663Y-81540024D01*
X72380481Y-81557226D01*
X72345562Y-81567819D01*
X72303105Y-81572000D01*
X69936895Y-81572000D01*
X69894438Y-81567819D01*
X69859519Y-81557226D01*
X69827337Y-81540024D01*
X69799127Y-81516873D01*
X69775976Y-81488663D01*
X69758774Y-81456481D01*
X69748181Y-81421562D01*
X69744000Y-81379105D01*
X69744000Y-80237895D01*
X69748181Y-80195438D01*
X69758774Y-80160519D01*
X69775976Y-80128337D01*
X69799127Y-80100127D01*
X69827337Y-80076976D01*
X69859519Y-80059774D01*
X69894438Y-80049181D01*
X69936895Y-80045000D01*
X72303105Y-80045000D01*
X72345562Y-80049181D01*
X72345562Y-80049181D01*
G37*
G36*
X106311000Y-80911000D02*
G01*
X104509000Y-80911000D01*
X104509000Y-79109000D01*
X106311000Y-79109000D01*
X106311000Y-80911000D01*
X106311000Y-80911000D01*
G37*
G36*
X108060443Y-79115519D02*
G01*
X108126627Y-79122037D01*
X108296466Y-79173557D01*
X108452991Y-79257222D01*
X108488729Y-79286552D01*
X108590186Y-79369814D01*
X108673448Y-79471271D01*
X108702778Y-79507009D01*
X108786443Y-79663534D01*
X108837963Y-79833373D01*
X108855359Y-80010000D01*
X108837963Y-80186627D01*
X108786443Y-80356466D01*
X108702778Y-80512991D01*
X108673448Y-80548729D01*
X108590186Y-80650186D01*
X108488729Y-80733448D01*
X108452991Y-80762778D01*
X108296466Y-80846443D01*
X108126627Y-80897963D01*
X108060442Y-80904482D01*
X107994260Y-80911000D01*
X107905740Y-80911000D01*
X107839558Y-80904482D01*
X107773373Y-80897963D01*
X107603534Y-80846443D01*
X107447009Y-80762778D01*
X107411271Y-80733448D01*
X107309814Y-80650186D01*
X107226552Y-80548729D01*
X107197222Y-80512991D01*
X107113557Y-80356466D01*
X107062037Y-80186627D01*
X107044641Y-80010000D01*
X107062037Y-79833373D01*
X107113557Y-79663534D01*
X107197222Y-79507009D01*
X107226552Y-79471271D01*
X107309814Y-79369814D01*
X107411271Y-79286552D01*
X107447009Y-79257222D01*
X107603534Y-79173557D01*
X107773373Y-79122037D01*
X107839557Y-79115519D01*
X107905740Y-79109000D01*
X107994260Y-79109000D01*
X108060443Y-79115519D01*
X108060443Y-79115519D01*
G37*
G36*
X110600443Y-79115519D02*
G01*
X110666627Y-79122037D01*
X110836466Y-79173557D01*
X110992991Y-79257222D01*
X111028729Y-79286552D01*
X111130186Y-79369814D01*
X111213448Y-79471271D01*
X111242778Y-79507009D01*
X111326443Y-79663534D01*
X111377963Y-79833373D01*
X111395359Y-80010000D01*
X111377963Y-80186627D01*
X111326443Y-80356466D01*
X111242778Y-80512991D01*
X111213448Y-80548729D01*
X111130186Y-80650186D01*
X111028729Y-80733448D01*
X110992991Y-80762778D01*
X110836466Y-80846443D01*
X110666627Y-80897963D01*
X110600442Y-80904482D01*
X110534260Y-80911000D01*
X110445740Y-80911000D01*
X110379558Y-80904482D01*
X110313373Y-80897963D01*
X110143534Y-80846443D01*
X109987009Y-80762778D01*
X109951271Y-80733448D01*
X109849814Y-80650186D01*
X109766552Y-80548729D01*
X109737222Y-80512991D01*
X109653557Y-80356466D01*
X109602037Y-80186627D01*
X109584641Y-80010000D01*
X109602037Y-79833373D01*
X109653557Y-79663534D01*
X109737222Y-79507009D01*
X109766552Y-79471271D01*
X109849814Y-79369814D01*
X109951271Y-79286552D01*
X109987009Y-79257222D01*
X110143534Y-79173557D01*
X110313373Y-79122037D01*
X110379557Y-79115519D01*
X110445740Y-79109000D01*
X110534260Y-79109000D01*
X110600443Y-79115519D01*
X110600443Y-79115519D01*
G37*
G36*
X113140443Y-79115519D02*
G01*
X113206627Y-79122037D01*
X113376466Y-79173557D01*
X113532991Y-79257222D01*
X113568729Y-79286552D01*
X113670186Y-79369814D01*
X113753448Y-79471271D01*
X113782778Y-79507009D01*
X113866443Y-79663534D01*
X113917963Y-79833373D01*
X113935359Y-80010000D01*
X113917963Y-80186627D01*
X113866443Y-80356466D01*
X113782778Y-80512991D01*
X113753448Y-80548729D01*
X113670186Y-80650186D01*
X113568729Y-80733448D01*
X113532991Y-80762778D01*
X113376466Y-80846443D01*
X113206627Y-80897963D01*
X113140442Y-80904482D01*
X113074260Y-80911000D01*
X112985740Y-80911000D01*
X112919558Y-80904482D01*
X112853373Y-80897963D01*
X112683534Y-80846443D01*
X112527009Y-80762778D01*
X112491271Y-80733448D01*
X112389814Y-80650186D01*
X112306552Y-80548729D01*
X112277222Y-80512991D01*
X112193557Y-80356466D01*
X112142037Y-80186627D01*
X112124641Y-80010000D01*
X112142037Y-79833373D01*
X112193557Y-79663534D01*
X112277222Y-79507009D01*
X112306552Y-79471271D01*
X112389814Y-79369814D01*
X112491271Y-79286552D01*
X112527009Y-79257222D01*
X112683534Y-79173557D01*
X112853373Y-79122037D01*
X112919557Y-79115519D01*
X112985740Y-79109000D01*
X113074260Y-79109000D01*
X113140443Y-79115519D01*
X113140443Y-79115519D01*
G37*
G36*
X118220443Y-79115519D02*
G01*
X118286627Y-79122037D01*
X118456466Y-79173557D01*
X118612991Y-79257222D01*
X118648729Y-79286552D01*
X118750186Y-79369814D01*
X118833448Y-79471271D01*
X118862778Y-79507009D01*
X118946443Y-79663534D01*
X118997963Y-79833373D01*
X119015359Y-80010000D01*
X118997963Y-80186627D01*
X118946443Y-80356466D01*
X118862778Y-80512991D01*
X118833448Y-80548729D01*
X118750186Y-80650186D01*
X118648729Y-80733448D01*
X118612991Y-80762778D01*
X118456466Y-80846443D01*
X118286627Y-80897963D01*
X118220442Y-80904482D01*
X118154260Y-80911000D01*
X118065740Y-80911000D01*
X117999558Y-80904482D01*
X117933373Y-80897963D01*
X117763534Y-80846443D01*
X117607009Y-80762778D01*
X117571271Y-80733448D01*
X117469814Y-80650186D01*
X117386552Y-80548729D01*
X117357222Y-80512991D01*
X117273557Y-80356466D01*
X117222037Y-80186627D01*
X117204641Y-80010000D01*
X117222037Y-79833373D01*
X117273557Y-79663534D01*
X117357222Y-79507009D01*
X117386552Y-79471271D01*
X117469814Y-79369814D01*
X117571271Y-79286552D01*
X117607009Y-79257222D01*
X117763534Y-79173557D01*
X117933373Y-79122037D01*
X117999557Y-79115519D01*
X118065740Y-79109000D01*
X118154260Y-79109000D01*
X118220443Y-79115519D01*
X118220443Y-79115519D01*
G37*
G36*
X120760443Y-79115519D02*
G01*
X120826627Y-79122037D01*
X120996466Y-79173557D01*
X121152991Y-79257222D01*
X121188729Y-79286552D01*
X121290186Y-79369814D01*
X121373448Y-79471271D01*
X121402778Y-79507009D01*
X121486443Y-79663534D01*
X121537963Y-79833373D01*
X121555359Y-80010000D01*
X121537963Y-80186627D01*
X121486443Y-80356466D01*
X121402778Y-80512991D01*
X121373448Y-80548729D01*
X121290186Y-80650186D01*
X121188729Y-80733448D01*
X121152991Y-80762778D01*
X120996466Y-80846443D01*
X120826627Y-80897963D01*
X120760442Y-80904482D01*
X120694260Y-80911000D01*
X120605740Y-80911000D01*
X120539558Y-80904482D01*
X120473373Y-80897963D01*
X120303534Y-80846443D01*
X120147009Y-80762778D01*
X120111271Y-80733448D01*
X120009814Y-80650186D01*
X119926552Y-80548729D01*
X119897222Y-80512991D01*
X119813557Y-80356466D01*
X119762037Y-80186627D01*
X119744641Y-80010000D01*
X119762037Y-79833373D01*
X119813557Y-79663534D01*
X119897222Y-79507009D01*
X119926552Y-79471271D01*
X120009814Y-79369814D01*
X120111271Y-79286552D01*
X120147009Y-79257222D01*
X120303534Y-79173557D01*
X120473373Y-79122037D01*
X120539557Y-79115519D01*
X120605740Y-79109000D01*
X120694260Y-79109000D01*
X120760443Y-79115519D01*
X120760443Y-79115519D01*
G37*
G36*
X123300443Y-79115519D02*
G01*
X123366627Y-79122037D01*
X123536466Y-79173557D01*
X123692991Y-79257222D01*
X123728729Y-79286552D01*
X123830186Y-79369814D01*
X123913448Y-79471271D01*
X123942778Y-79507009D01*
X124026443Y-79663534D01*
X124077963Y-79833373D01*
X124095359Y-80010000D01*
X124077963Y-80186627D01*
X124026443Y-80356466D01*
X123942778Y-80512991D01*
X123913448Y-80548729D01*
X123830186Y-80650186D01*
X123728729Y-80733448D01*
X123692991Y-80762778D01*
X123536466Y-80846443D01*
X123366627Y-80897963D01*
X123300442Y-80904482D01*
X123234260Y-80911000D01*
X123145740Y-80911000D01*
X123079558Y-80904482D01*
X123013373Y-80897963D01*
X122843534Y-80846443D01*
X122687009Y-80762778D01*
X122651271Y-80733448D01*
X122549814Y-80650186D01*
X122466552Y-80548729D01*
X122437222Y-80512991D01*
X122353557Y-80356466D01*
X122302037Y-80186627D01*
X122284641Y-80010000D01*
X122302037Y-79833373D01*
X122353557Y-79663534D01*
X122437222Y-79507009D01*
X122466552Y-79471271D01*
X122549814Y-79369814D01*
X122651271Y-79286552D01*
X122687009Y-79257222D01*
X122843534Y-79173557D01*
X123013373Y-79122037D01*
X123079557Y-79115519D01*
X123145740Y-79109000D01*
X123234260Y-79109000D01*
X123300443Y-79115519D01*
X123300443Y-79115519D01*
G37*
G36*
X115680443Y-79115519D02*
G01*
X115746627Y-79122037D01*
X115916466Y-79173557D01*
X116072991Y-79257222D01*
X116108729Y-79286552D01*
X116210186Y-79369814D01*
X116293448Y-79471271D01*
X116322778Y-79507009D01*
X116406443Y-79663534D01*
X116457963Y-79833373D01*
X116475359Y-80010000D01*
X116457963Y-80186627D01*
X116406443Y-80356466D01*
X116322778Y-80512991D01*
X116293448Y-80548729D01*
X116210186Y-80650186D01*
X116108729Y-80733448D01*
X116072991Y-80762778D01*
X115916466Y-80846443D01*
X115746627Y-80897963D01*
X115680442Y-80904482D01*
X115614260Y-80911000D01*
X115525740Y-80911000D01*
X115459558Y-80904482D01*
X115393373Y-80897963D01*
X115223534Y-80846443D01*
X115067009Y-80762778D01*
X115031271Y-80733448D01*
X114929814Y-80650186D01*
X114846552Y-80548729D01*
X114817222Y-80512991D01*
X114733557Y-80356466D01*
X114682037Y-80186627D01*
X114664641Y-80010000D01*
X114682037Y-79833373D01*
X114733557Y-79663534D01*
X114817222Y-79507009D01*
X114846552Y-79471271D01*
X114929814Y-79369814D01*
X115031271Y-79286552D01*
X115067009Y-79257222D01*
X115223534Y-79173557D01*
X115393373Y-79122037D01*
X115459557Y-79115519D01*
X115525740Y-79109000D01*
X115614260Y-79109000D01*
X115680443Y-79115519D01*
X115680443Y-79115519D01*
G37*
G36*
X217565562Y-76098181D02*
G01*
X217600481Y-76108774D01*
X217632663Y-76125976D01*
X217660873Y-76149127D01*
X217684024Y-76177337D01*
X217701226Y-76209519D01*
X217711819Y-76244438D01*
X217716000Y-76286895D01*
X217716000Y-78653105D01*
X217711819Y-78695562D01*
X217701226Y-78730481D01*
X217684024Y-78762663D01*
X217660873Y-78790873D01*
X217632663Y-78814024D01*
X217600481Y-78831226D01*
X217565562Y-78841819D01*
X217523105Y-78846000D01*
X216381895Y-78846000D01*
X216339438Y-78841819D01*
X216304519Y-78831226D01*
X216272337Y-78814024D01*
X216244127Y-78790873D01*
X216220976Y-78762663D01*
X216203774Y-78730481D01*
X216193181Y-78695562D01*
X216189000Y-78653105D01*
X216189000Y-76286895D01*
X216193181Y-76244438D01*
X216203774Y-76209519D01*
X216220976Y-76177337D01*
X216244127Y-76149127D01*
X216272337Y-76125976D01*
X216304519Y-76108774D01*
X216339438Y-76098181D01*
X216381895Y-76094000D01*
X217523105Y-76094000D01*
X217565562Y-76098181D01*
X217565562Y-76098181D01*
G37*
G36*
X220540562Y-76098181D02*
G01*
X220575481Y-76108774D01*
X220607663Y-76125976D01*
X220635873Y-76149127D01*
X220659024Y-76177337D01*
X220676226Y-76209519D01*
X220686819Y-76244438D01*
X220691000Y-76286895D01*
X220691000Y-78653105D01*
X220686819Y-78695562D01*
X220676226Y-78730481D01*
X220659024Y-78762663D01*
X220635873Y-78790873D01*
X220607663Y-78814024D01*
X220575481Y-78831226D01*
X220540562Y-78841819D01*
X220498105Y-78846000D01*
X219356895Y-78846000D01*
X219314438Y-78841819D01*
X219279519Y-78831226D01*
X219247337Y-78814024D01*
X219219127Y-78790873D01*
X219195976Y-78762663D01*
X219178774Y-78730481D01*
X219168181Y-78695562D01*
X219164000Y-78653105D01*
X219164000Y-76286895D01*
X219168181Y-76244438D01*
X219178774Y-76209519D01*
X219195976Y-76177337D01*
X219219127Y-76149127D01*
X219247337Y-76125976D01*
X219279519Y-76108774D01*
X219314438Y-76098181D01*
X219356895Y-76094000D01*
X220498105Y-76094000D01*
X220540562Y-76098181D01*
X220540562Y-76098181D01*
G37*
G36*
X147557142Y-74148242D02*
G01*
X147705101Y-74209529D01*
X147838255Y-74298499D01*
X147951501Y-74411745D01*
X148040471Y-74544899D01*
X148101758Y-74692858D01*
X148133000Y-74849925D01*
X148133000Y-75010075D01*
X148101758Y-75167142D01*
X148040471Y-75315101D01*
X147951501Y-75448255D01*
X147838255Y-75561501D01*
X147705101Y-75650471D01*
X147557142Y-75711758D01*
X147400075Y-75743000D01*
X147239925Y-75743000D01*
X147082858Y-75711758D01*
X146934899Y-75650471D01*
X146801745Y-75561501D01*
X146688499Y-75448255D01*
X146599529Y-75315101D01*
X146538242Y-75167142D01*
X146507000Y-75010075D01*
X146507000Y-74849925D01*
X146538242Y-74692858D01*
X146599529Y-74544899D01*
X146688499Y-74411745D01*
X146801745Y-74298499D01*
X146934899Y-74209529D01*
X147082858Y-74148242D01*
X147239925Y-74117000D01*
X147400075Y-74117000D01*
X147557142Y-74148242D01*
X147557142Y-74148242D01*
G37*
G36*
X132317142Y-74148242D02*
G01*
X132465101Y-74209529D01*
X132598255Y-74298499D01*
X132711501Y-74411745D01*
X132800471Y-74544899D01*
X132861758Y-74692858D01*
X132893000Y-74849925D01*
X132893000Y-75010075D01*
X132861758Y-75167142D01*
X132800471Y-75315101D01*
X132711501Y-75448255D01*
X132598255Y-75561501D01*
X132465101Y-75650471D01*
X132317142Y-75711758D01*
X132160075Y-75743000D01*
X131999925Y-75743000D01*
X131842858Y-75711758D01*
X131694899Y-75650471D01*
X131561745Y-75561501D01*
X131448499Y-75448255D01*
X131359529Y-75315101D01*
X131298242Y-75167142D01*
X131267000Y-75010075D01*
X131267000Y-74849925D01*
X131298242Y-74692858D01*
X131359529Y-74544899D01*
X131448499Y-74411745D01*
X131561745Y-74298499D01*
X131694899Y-74209529D01*
X131842858Y-74148242D01*
X131999925Y-74117000D01*
X132160075Y-74117000D01*
X132317142Y-74148242D01*
X132317142Y-74148242D01*
G37*
G36*
X102825562Y-73118181D02*
G01*
X102860481Y-73128774D01*
X102892663Y-73145976D01*
X102920873Y-73169127D01*
X102944024Y-73197337D01*
X102961226Y-73229519D01*
X102971819Y-73264438D01*
X102976000Y-73306895D01*
X102976000Y-74448105D01*
X102971819Y-74490562D01*
X102961226Y-74525481D01*
X102944024Y-74557663D01*
X102920873Y-74585873D01*
X102892663Y-74609024D01*
X102860481Y-74626226D01*
X102825562Y-74636819D01*
X102783105Y-74641000D01*
X100416895Y-74641000D01*
X100374438Y-74636819D01*
X100339519Y-74626226D01*
X100307337Y-74609024D01*
X100279127Y-74585873D01*
X100255976Y-74557663D01*
X100238774Y-74525481D01*
X100228181Y-74490562D01*
X100224000Y-74448105D01*
X100224000Y-73306895D01*
X100228181Y-73264438D01*
X100238774Y-73229519D01*
X100255976Y-73197337D01*
X100279127Y-73169127D01*
X100307337Y-73145976D01*
X100339519Y-73128774D01*
X100374438Y-73118181D01*
X100416895Y-73114000D01*
X102783105Y-73114000D01*
X102825562Y-73118181D01*
X102825562Y-73118181D01*
G37*
G36*
X96218562Y-73118181D02*
G01*
X96253481Y-73128774D01*
X96285663Y-73145976D01*
X96313873Y-73169127D01*
X96337024Y-73197337D01*
X96354226Y-73229519D01*
X96364819Y-73264438D01*
X96369000Y-73306895D01*
X96369000Y-74448105D01*
X96364819Y-74490562D01*
X96354226Y-74525481D01*
X96337024Y-74557663D01*
X96313873Y-74585873D01*
X96285663Y-74609024D01*
X96253481Y-74626226D01*
X96218562Y-74636819D01*
X96176105Y-74641000D01*
X93809895Y-74641000D01*
X93767438Y-74636819D01*
X93732519Y-74626226D01*
X93700337Y-74609024D01*
X93672127Y-74585873D01*
X93648976Y-74557663D01*
X93631774Y-74525481D01*
X93621181Y-74490562D01*
X93617000Y-74448105D01*
X93617000Y-73306895D01*
X93621181Y-73264438D01*
X93631774Y-73229519D01*
X93648976Y-73197337D01*
X93672127Y-73169127D01*
X93700337Y-73145976D01*
X93732519Y-73128774D01*
X93767438Y-73118181D01*
X93809895Y-73114000D01*
X96176105Y-73114000D01*
X96218562Y-73118181D01*
X96218562Y-73118181D01*
G37*
G36*
X217565562Y-71018181D02*
G01*
X217600481Y-71028774D01*
X217632663Y-71045976D01*
X217660873Y-71069127D01*
X217684024Y-71097337D01*
X217701226Y-71129519D01*
X217711819Y-71164438D01*
X217716000Y-71206895D01*
X217716000Y-73573105D01*
X217711819Y-73615562D01*
X217701226Y-73650481D01*
X217684024Y-73682663D01*
X217660873Y-73710873D01*
X217632663Y-73734024D01*
X217600481Y-73751226D01*
X217565562Y-73761819D01*
X217523105Y-73766000D01*
X216381895Y-73766000D01*
X216339438Y-73761819D01*
X216304519Y-73751226D01*
X216272337Y-73734024D01*
X216244127Y-73710873D01*
X216220976Y-73682663D01*
X216203774Y-73650481D01*
X216193181Y-73615562D01*
X216189000Y-73573105D01*
X216189000Y-71206895D01*
X216193181Y-71164438D01*
X216203774Y-71129519D01*
X216220976Y-71097337D01*
X216244127Y-71069127D01*
X216272337Y-71045976D01*
X216304519Y-71028774D01*
X216339438Y-71018181D01*
X216381895Y-71014000D01*
X217523105Y-71014000D01*
X217565562Y-71018181D01*
X217565562Y-71018181D01*
G37*
G36*
X207405562Y-71018181D02*
G01*
X207440481Y-71028774D01*
X207472663Y-71045976D01*
X207500873Y-71069127D01*
X207524024Y-71097337D01*
X207541226Y-71129519D01*
X207551819Y-71164438D01*
X207556000Y-71206895D01*
X207556000Y-73573105D01*
X207551819Y-73615562D01*
X207541226Y-73650481D01*
X207524024Y-73682663D01*
X207500873Y-73710873D01*
X207472663Y-73734024D01*
X207440481Y-73751226D01*
X207405562Y-73761819D01*
X207363105Y-73766000D01*
X206221895Y-73766000D01*
X206179438Y-73761819D01*
X206144519Y-73751226D01*
X206112337Y-73734024D01*
X206084127Y-73710873D01*
X206060976Y-73682663D01*
X206043774Y-73650481D01*
X206033181Y-73615562D01*
X206029000Y-73573105D01*
X206029000Y-71206895D01*
X206033181Y-71164438D01*
X206043774Y-71129519D01*
X206060976Y-71097337D01*
X206084127Y-71069127D01*
X206112337Y-71045976D01*
X206144519Y-71028774D01*
X206179438Y-71018181D01*
X206221895Y-71014000D01*
X207363105Y-71014000D01*
X207405562Y-71018181D01*
X207405562Y-71018181D01*
G37*
G36*
X210380562Y-71018181D02*
G01*
X210415481Y-71028774D01*
X210447663Y-71045976D01*
X210475873Y-71069127D01*
X210499024Y-71097337D01*
X210516226Y-71129519D01*
X210526819Y-71164438D01*
X210531000Y-71206895D01*
X210531000Y-73573105D01*
X210526819Y-73615562D01*
X210516226Y-73650481D01*
X210499024Y-73682663D01*
X210475873Y-73710873D01*
X210447663Y-73734024D01*
X210415481Y-73751226D01*
X210380562Y-73761819D01*
X210338105Y-73766000D01*
X209196895Y-73766000D01*
X209154438Y-73761819D01*
X209119519Y-73751226D01*
X209087337Y-73734024D01*
X209059127Y-73710873D01*
X209035976Y-73682663D01*
X209018774Y-73650481D01*
X209008181Y-73615562D01*
X209004000Y-73573105D01*
X209004000Y-71206895D01*
X209008181Y-71164438D01*
X209018774Y-71129519D01*
X209035976Y-71097337D01*
X209059127Y-71069127D01*
X209087337Y-71045976D01*
X209119519Y-71028774D01*
X209154438Y-71018181D01*
X209196895Y-71014000D01*
X210338105Y-71014000D01*
X210380562Y-71018181D01*
X210380562Y-71018181D01*
G37*
G36*
X220540562Y-71018181D02*
G01*
X220575481Y-71028774D01*
X220607663Y-71045976D01*
X220635873Y-71069127D01*
X220659024Y-71097337D01*
X220676226Y-71129519D01*
X220686819Y-71164438D01*
X220691000Y-71206895D01*
X220691000Y-73573105D01*
X220686819Y-73615562D01*
X220676226Y-73650481D01*
X220659024Y-73682663D01*
X220635873Y-73710873D01*
X220607663Y-73734024D01*
X220575481Y-73751226D01*
X220540562Y-73761819D01*
X220498105Y-73766000D01*
X219356895Y-73766000D01*
X219314438Y-73761819D01*
X219279519Y-73751226D01*
X219247337Y-73734024D01*
X219219127Y-73710873D01*
X219195976Y-73682663D01*
X219178774Y-73650481D01*
X219168181Y-73615562D01*
X219164000Y-73573105D01*
X219164000Y-71206895D01*
X219168181Y-71164438D01*
X219178774Y-71129519D01*
X219195976Y-71097337D01*
X219219127Y-71069127D01*
X219247337Y-71045976D01*
X219279519Y-71028774D01*
X219314438Y-71018181D01*
X219356895Y-71014000D01*
X220498105Y-71014000D01*
X220540562Y-71018181D01*
X220540562Y-71018181D01*
G37*
G36*
X147557142Y-71608242D02*
G01*
X147705101Y-71669529D01*
X147838255Y-71758499D01*
X147951501Y-71871745D01*
X148040471Y-72004899D01*
X148101758Y-72152858D01*
X148133000Y-72309925D01*
X148133000Y-72470075D01*
X148101758Y-72627142D01*
X148040471Y-72775101D01*
X147951501Y-72908255D01*
X147838255Y-73021501D01*
X147705101Y-73110471D01*
X147557142Y-73171758D01*
X147400075Y-73203000D01*
X147239925Y-73203000D01*
X147082858Y-73171758D01*
X146934899Y-73110471D01*
X146801745Y-73021501D01*
X146688499Y-72908255D01*
X146599529Y-72775101D01*
X146538242Y-72627142D01*
X146507000Y-72470075D01*
X146507000Y-72309925D01*
X146538242Y-72152858D01*
X146599529Y-72004899D01*
X146688499Y-71871745D01*
X146801745Y-71758499D01*
X146934899Y-71669529D01*
X147082858Y-71608242D01*
X147239925Y-71577000D01*
X147400075Y-71577000D01*
X147557142Y-71608242D01*
X147557142Y-71608242D01*
G37*
G36*
X132317142Y-71608242D02*
G01*
X132465101Y-71669529D01*
X132598255Y-71758499D01*
X132711501Y-71871745D01*
X132800471Y-72004899D01*
X132861758Y-72152858D01*
X132893000Y-72309925D01*
X132893000Y-72470075D01*
X132861758Y-72627142D01*
X132800471Y-72775101D01*
X132711501Y-72908255D01*
X132598255Y-73021501D01*
X132465101Y-73110471D01*
X132317142Y-73171758D01*
X132160075Y-73203000D01*
X131999925Y-73203000D01*
X131842858Y-73171758D01*
X131694899Y-73110471D01*
X131561745Y-73021501D01*
X131448499Y-72908255D01*
X131359529Y-72775101D01*
X131298242Y-72627142D01*
X131267000Y-72470075D01*
X131267000Y-72309925D01*
X131298242Y-72152858D01*
X131359529Y-72004899D01*
X131448499Y-71871745D01*
X131561745Y-71758499D01*
X131694899Y-71669529D01*
X131842858Y-71608242D01*
X131999925Y-71577000D01*
X132160075Y-71577000D01*
X132317142Y-71608242D01*
X132317142Y-71608242D01*
G37*
G36*
X96218562Y-70143181D02*
G01*
X96253481Y-70153774D01*
X96285663Y-70170976D01*
X96313873Y-70194127D01*
X96337024Y-70222337D01*
X96354226Y-70254519D01*
X96364819Y-70289438D01*
X96369000Y-70331895D01*
X96369000Y-71473105D01*
X96364819Y-71515562D01*
X96354226Y-71550481D01*
X96337024Y-71582663D01*
X96313873Y-71610873D01*
X96285663Y-71634024D01*
X96253481Y-71651226D01*
X96218562Y-71661819D01*
X96176105Y-71666000D01*
X93809895Y-71666000D01*
X93767438Y-71661819D01*
X93732519Y-71651226D01*
X93700337Y-71634024D01*
X93672127Y-71610873D01*
X93648976Y-71582663D01*
X93631774Y-71550481D01*
X93621181Y-71515562D01*
X93617000Y-71473105D01*
X93617000Y-70331895D01*
X93621181Y-70289438D01*
X93631774Y-70254519D01*
X93648976Y-70222337D01*
X93672127Y-70194127D01*
X93700337Y-70170976D01*
X93732519Y-70153774D01*
X93767438Y-70143181D01*
X93809895Y-70139000D01*
X96176105Y-70139000D01*
X96218562Y-70143181D01*
X96218562Y-70143181D01*
G37*
G36*
X102825562Y-70143181D02*
G01*
X102860481Y-70153774D01*
X102892663Y-70170976D01*
X102920873Y-70194127D01*
X102944024Y-70222337D01*
X102961226Y-70254519D01*
X102971819Y-70289438D01*
X102976000Y-70331895D01*
X102976000Y-71473105D01*
X102971819Y-71515562D01*
X102961226Y-71550481D01*
X102944024Y-71582663D01*
X102920873Y-71610873D01*
X102892663Y-71634024D01*
X102860481Y-71651226D01*
X102825562Y-71661819D01*
X102783105Y-71666000D01*
X100416895Y-71666000D01*
X100374438Y-71661819D01*
X100339519Y-71651226D01*
X100307337Y-71634024D01*
X100279127Y-71610873D01*
X100255976Y-71582663D01*
X100238774Y-71550481D01*
X100228181Y-71515562D01*
X100224000Y-71473105D01*
X100224000Y-70331895D01*
X100228181Y-70289438D01*
X100238774Y-70254519D01*
X100255976Y-70222337D01*
X100279127Y-70194127D01*
X100307337Y-70170976D01*
X100339519Y-70153774D01*
X100374438Y-70143181D01*
X100416895Y-70139000D01*
X102783105Y-70139000D01*
X102825562Y-70143181D01*
X102825562Y-70143181D01*
G37*
G36*
X147557142Y-69068242D02*
G01*
X147705101Y-69129529D01*
X147838255Y-69218499D01*
X147951501Y-69331745D01*
X148040471Y-69464899D01*
X148101758Y-69612858D01*
X148133000Y-69769925D01*
X148133000Y-69930075D01*
X148101758Y-70087142D01*
X148040471Y-70235101D01*
X147951501Y-70368255D01*
X147838255Y-70481501D01*
X147705101Y-70570471D01*
X147557142Y-70631758D01*
X147400075Y-70663000D01*
X147239925Y-70663000D01*
X147082858Y-70631758D01*
X146934899Y-70570471D01*
X146801745Y-70481501D01*
X146688499Y-70368255D01*
X146599529Y-70235101D01*
X146538242Y-70087142D01*
X146507000Y-69930075D01*
X146507000Y-69769925D01*
X146538242Y-69612858D01*
X146599529Y-69464899D01*
X146688499Y-69331745D01*
X146801745Y-69218499D01*
X146934899Y-69129529D01*
X147082858Y-69068242D01*
X147239925Y-69037000D01*
X147400075Y-69037000D01*
X147557142Y-69068242D01*
X147557142Y-69068242D01*
G37*
G36*
X132317142Y-69068242D02*
G01*
X132465101Y-69129529D01*
X132598255Y-69218499D01*
X132711501Y-69331745D01*
X132800471Y-69464899D01*
X132861758Y-69612858D01*
X132893000Y-69769925D01*
X132893000Y-69930075D01*
X132861758Y-70087142D01*
X132800471Y-70235101D01*
X132711501Y-70368255D01*
X132598255Y-70481501D01*
X132465101Y-70570471D01*
X132317142Y-70631758D01*
X132160075Y-70663000D01*
X131999925Y-70663000D01*
X131842858Y-70631758D01*
X131694899Y-70570471D01*
X131561745Y-70481501D01*
X131448499Y-70368255D01*
X131359529Y-70235101D01*
X131298242Y-70087142D01*
X131267000Y-69930075D01*
X131267000Y-69769925D01*
X131298242Y-69612858D01*
X131359529Y-69464899D01*
X131448499Y-69331745D01*
X131561745Y-69218499D01*
X131694899Y-69129529D01*
X131842858Y-69068242D01*
X131999925Y-69037000D01*
X132160075Y-69037000D01*
X132317142Y-69068242D01*
X132317142Y-69068242D01*
G37*
G36*
X90280443Y-67685519D02*
G01*
X90346627Y-67692037D01*
X90516466Y-67743557D01*
X90672991Y-67827222D01*
X90708729Y-67856552D01*
X90810186Y-67939814D01*
X90884585Y-68030471D01*
X90922778Y-68077009D01*
X91006443Y-68233534D01*
X91057963Y-68403373D01*
X91075359Y-68580000D01*
X91057963Y-68756627D01*
X91006443Y-68926466D01*
X90922778Y-69082991D01*
X90893448Y-69118729D01*
X90810186Y-69220186D01*
X90708729Y-69303448D01*
X90672991Y-69332778D01*
X90516466Y-69416443D01*
X90346627Y-69467963D01*
X90280442Y-69474482D01*
X90214260Y-69481000D01*
X90125740Y-69481000D01*
X90059558Y-69474482D01*
X89993373Y-69467963D01*
X89823534Y-69416443D01*
X89667009Y-69332778D01*
X89631271Y-69303448D01*
X89529814Y-69220186D01*
X89446552Y-69118729D01*
X89417222Y-69082991D01*
X89333557Y-68926466D01*
X89282037Y-68756627D01*
X89264641Y-68580000D01*
X89282037Y-68403373D01*
X89333557Y-68233534D01*
X89417222Y-68077009D01*
X89455415Y-68030471D01*
X89529814Y-67939814D01*
X89631271Y-67856552D01*
X89667009Y-67827222D01*
X89823534Y-67743557D01*
X89993373Y-67692037D01*
X90059557Y-67685519D01*
X90125740Y-67679000D01*
X90214260Y-67679000D01*
X90280443Y-67685519D01*
X90280443Y-67685519D01*
G37*
G36*
X85200443Y-67685519D02*
G01*
X85266627Y-67692037D01*
X85436466Y-67743557D01*
X85592991Y-67827222D01*
X85628729Y-67856552D01*
X85730186Y-67939814D01*
X85804585Y-68030471D01*
X85842778Y-68077009D01*
X85926443Y-68233534D01*
X85977963Y-68403373D01*
X85995359Y-68580000D01*
X85977963Y-68756627D01*
X85926443Y-68926466D01*
X85842778Y-69082991D01*
X85813448Y-69118729D01*
X85730186Y-69220186D01*
X85628729Y-69303448D01*
X85592991Y-69332778D01*
X85436466Y-69416443D01*
X85266627Y-69467963D01*
X85200442Y-69474482D01*
X85134260Y-69481000D01*
X85045740Y-69481000D01*
X84979558Y-69474482D01*
X84913373Y-69467963D01*
X84743534Y-69416443D01*
X84587009Y-69332778D01*
X84551271Y-69303448D01*
X84449814Y-69220186D01*
X84366552Y-69118729D01*
X84337222Y-69082991D01*
X84253557Y-68926466D01*
X84202037Y-68756627D01*
X84184641Y-68580000D01*
X84202037Y-68403373D01*
X84253557Y-68233534D01*
X84337222Y-68077009D01*
X84375415Y-68030471D01*
X84449814Y-67939814D01*
X84551271Y-67856552D01*
X84587009Y-67827222D01*
X84743534Y-67743557D01*
X84913373Y-67692037D01*
X84979557Y-67685519D01*
X85045740Y-67679000D01*
X85134260Y-67679000D01*
X85200443Y-67685519D01*
X85200443Y-67685519D01*
G37*
G36*
X87740443Y-67685519D02*
G01*
X87806627Y-67692037D01*
X87976466Y-67743557D01*
X88132991Y-67827222D01*
X88168729Y-67856552D01*
X88270186Y-67939814D01*
X88344585Y-68030471D01*
X88382778Y-68077009D01*
X88466443Y-68233534D01*
X88517963Y-68403373D01*
X88535359Y-68580000D01*
X88517963Y-68756627D01*
X88466443Y-68926466D01*
X88382778Y-69082991D01*
X88353448Y-69118729D01*
X88270186Y-69220186D01*
X88168729Y-69303448D01*
X88132991Y-69332778D01*
X87976466Y-69416443D01*
X87806627Y-69467963D01*
X87740442Y-69474482D01*
X87674260Y-69481000D01*
X87585740Y-69481000D01*
X87519558Y-69474482D01*
X87453373Y-69467963D01*
X87283534Y-69416443D01*
X87127009Y-69332778D01*
X87091271Y-69303448D01*
X86989814Y-69220186D01*
X86906552Y-69118729D01*
X86877222Y-69082991D01*
X86793557Y-68926466D01*
X86742037Y-68756627D01*
X86724641Y-68580000D01*
X86742037Y-68403373D01*
X86793557Y-68233534D01*
X86877222Y-68077009D01*
X86915415Y-68030471D01*
X86989814Y-67939814D01*
X87091271Y-67856552D01*
X87127009Y-67827222D01*
X87283534Y-67743557D01*
X87453373Y-67692037D01*
X87519557Y-67685519D01*
X87585740Y-67679000D01*
X87674260Y-67679000D01*
X87740443Y-67685519D01*
X87740443Y-67685519D01*
G37*
G36*
X207405562Y-65938181D02*
G01*
X207440481Y-65948774D01*
X207472663Y-65965976D01*
X207500873Y-65989127D01*
X207524024Y-66017337D01*
X207541226Y-66049519D01*
X207551819Y-66084438D01*
X207556000Y-66126895D01*
X207556000Y-68493105D01*
X207551819Y-68535562D01*
X207541226Y-68570481D01*
X207524024Y-68602663D01*
X207500873Y-68630873D01*
X207472663Y-68654024D01*
X207440481Y-68671226D01*
X207405562Y-68681819D01*
X207363105Y-68686000D01*
X206221895Y-68686000D01*
X206179438Y-68681819D01*
X206144519Y-68671226D01*
X206112337Y-68654024D01*
X206084127Y-68630873D01*
X206060976Y-68602663D01*
X206043774Y-68570481D01*
X206033181Y-68535562D01*
X206029000Y-68493105D01*
X206029000Y-66126895D01*
X206033181Y-66084438D01*
X206043774Y-66049519D01*
X206060976Y-66017337D01*
X206084127Y-65989127D01*
X206112337Y-65965976D01*
X206144519Y-65948774D01*
X206179438Y-65938181D01*
X206221895Y-65934000D01*
X207363105Y-65934000D01*
X207405562Y-65938181D01*
X207405562Y-65938181D01*
G37*
G36*
X210380562Y-65938181D02*
G01*
X210415481Y-65948774D01*
X210447663Y-65965976D01*
X210475873Y-65989127D01*
X210499024Y-66017337D01*
X210516226Y-66049519D01*
X210526819Y-66084438D01*
X210531000Y-66126895D01*
X210531000Y-68493105D01*
X210526819Y-68535562D01*
X210516226Y-68570481D01*
X210499024Y-68602663D01*
X210475873Y-68630873D01*
X210447663Y-68654024D01*
X210415481Y-68671226D01*
X210380562Y-68681819D01*
X210338105Y-68686000D01*
X209196895Y-68686000D01*
X209154438Y-68681819D01*
X209119519Y-68671226D01*
X209087337Y-68654024D01*
X209059127Y-68630873D01*
X209035976Y-68602663D01*
X209018774Y-68570481D01*
X209008181Y-68535562D01*
X209004000Y-68493105D01*
X209004000Y-66126895D01*
X209008181Y-66084438D01*
X209018774Y-66049519D01*
X209035976Y-66017337D01*
X209059127Y-65989127D01*
X209087337Y-65965976D01*
X209119519Y-65948774D01*
X209154438Y-65938181D01*
X209196895Y-65934000D01*
X210338105Y-65934000D01*
X210380562Y-65938181D01*
X210380562Y-65938181D01*
G37*
G36*
X79641000Y-68211000D02*
G01*
X77839000Y-68211000D01*
X77839000Y-66409000D01*
X79641000Y-66409000D01*
X79641000Y-68211000D01*
X79641000Y-68211000D01*
G37*
G36*
X147557142Y-66528242D02*
G01*
X147705101Y-66589529D01*
X147838255Y-66678499D01*
X147951501Y-66791745D01*
X148040471Y-66924899D01*
X148101758Y-67072858D01*
X148133000Y-67229925D01*
X148133000Y-67390075D01*
X148101758Y-67547142D01*
X148040471Y-67695101D01*
X147951501Y-67828255D01*
X147838255Y-67941501D01*
X147705101Y-68030471D01*
X147557142Y-68091758D01*
X147400075Y-68123000D01*
X147239925Y-68123000D01*
X147082858Y-68091758D01*
X146934899Y-68030471D01*
X146801745Y-67941501D01*
X146688499Y-67828255D01*
X146599529Y-67695101D01*
X146538242Y-67547142D01*
X146507000Y-67390075D01*
X146507000Y-67229925D01*
X146538242Y-67072858D01*
X146599529Y-66924899D01*
X146688499Y-66791745D01*
X146801745Y-66678499D01*
X146934899Y-66589529D01*
X147082858Y-66528242D01*
X147239925Y-66497000D01*
X147400075Y-66497000D01*
X147557142Y-66528242D01*
X147557142Y-66528242D01*
G37*
G36*
X132317142Y-66528242D02*
G01*
X132465101Y-66589529D01*
X132598255Y-66678499D01*
X132711501Y-66791745D01*
X132800471Y-66924899D01*
X132861758Y-67072858D01*
X132893000Y-67229925D01*
X132893000Y-67390075D01*
X132861758Y-67547142D01*
X132800471Y-67695101D01*
X132711501Y-67828255D01*
X132598255Y-67941501D01*
X132465101Y-68030471D01*
X132317142Y-68091758D01*
X132160075Y-68123000D01*
X131999925Y-68123000D01*
X131842858Y-68091758D01*
X131694899Y-68030471D01*
X131561745Y-67941501D01*
X131448499Y-67828255D01*
X131359529Y-67695101D01*
X131298242Y-67547142D01*
X131267000Y-67390075D01*
X131267000Y-67229925D01*
X131298242Y-67072858D01*
X131359529Y-66924899D01*
X131448499Y-66791745D01*
X131561745Y-66678499D01*
X131694899Y-66589529D01*
X131842858Y-66528242D01*
X131999925Y-66497000D01*
X132160075Y-66497000D01*
X132317142Y-66528242D01*
X132317142Y-66528242D01*
G37*
G36*
X87740442Y-65145518D02*
G01*
X87806627Y-65152037D01*
X87976466Y-65203557D01*
X88132991Y-65287222D01*
X88168729Y-65316552D01*
X88270186Y-65399814D01*
X88344585Y-65490471D01*
X88382778Y-65537009D01*
X88466443Y-65693534D01*
X88517963Y-65863373D01*
X88535359Y-66040000D01*
X88517963Y-66216627D01*
X88466443Y-66386466D01*
X88382778Y-66542991D01*
X88353448Y-66578729D01*
X88270186Y-66680186D01*
X88168729Y-66763448D01*
X88132991Y-66792778D01*
X87976466Y-66876443D01*
X87806627Y-66927963D01*
X87740442Y-66934482D01*
X87674260Y-66941000D01*
X87585740Y-66941000D01*
X87519558Y-66934482D01*
X87453373Y-66927963D01*
X87283534Y-66876443D01*
X87127009Y-66792778D01*
X87091271Y-66763448D01*
X86989814Y-66680186D01*
X86906552Y-66578729D01*
X86877222Y-66542991D01*
X86793557Y-66386466D01*
X86742037Y-66216627D01*
X86724641Y-66040000D01*
X86742037Y-65863373D01*
X86793557Y-65693534D01*
X86877222Y-65537009D01*
X86915415Y-65490471D01*
X86989814Y-65399814D01*
X87091271Y-65316552D01*
X87127009Y-65287222D01*
X87283534Y-65203557D01*
X87453373Y-65152037D01*
X87519558Y-65145518D01*
X87585740Y-65139000D01*
X87674260Y-65139000D01*
X87740442Y-65145518D01*
X87740442Y-65145518D01*
G37*
G36*
X91071000Y-66941000D02*
G01*
X89269000Y-66941000D01*
X89269000Y-65139000D01*
X91071000Y-65139000D01*
X91071000Y-66941000D01*
X91071000Y-66941000D01*
G37*
G36*
X85200442Y-65145518D02*
G01*
X85266627Y-65152037D01*
X85436466Y-65203557D01*
X85592991Y-65287222D01*
X85628729Y-65316552D01*
X85730186Y-65399814D01*
X85804585Y-65490471D01*
X85842778Y-65537009D01*
X85926443Y-65693534D01*
X85977963Y-65863373D01*
X85995359Y-66040000D01*
X85977963Y-66216627D01*
X85926443Y-66386466D01*
X85842778Y-66542991D01*
X85813448Y-66578729D01*
X85730186Y-66680186D01*
X85628729Y-66763448D01*
X85592991Y-66792778D01*
X85436466Y-66876443D01*
X85266627Y-66927963D01*
X85200442Y-66934482D01*
X85134260Y-66941000D01*
X85045740Y-66941000D01*
X84979558Y-66934482D01*
X84913373Y-66927963D01*
X84743534Y-66876443D01*
X84587009Y-66792778D01*
X84551271Y-66763448D01*
X84449814Y-66680186D01*
X84366552Y-66578729D01*
X84337222Y-66542991D01*
X84253557Y-66386466D01*
X84202037Y-66216627D01*
X84184641Y-66040000D01*
X84202037Y-65863373D01*
X84253557Y-65693534D01*
X84337222Y-65537009D01*
X84375415Y-65490471D01*
X84449814Y-65399814D01*
X84551271Y-65316552D01*
X84587009Y-65287222D01*
X84743534Y-65203557D01*
X84913373Y-65152037D01*
X84979558Y-65145518D01*
X85045740Y-65139000D01*
X85134260Y-65139000D01*
X85200442Y-65145518D01*
X85200442Y-65145518D01*
G37*
G36*
X78850442Y-63875518D02*
G01*
X78916627Y-63882037D01*
X79086466Y-63933557D01*
X79242991Y-64017222D01*
X79278729Y-64046552D01*
X79380186Y-64129814D01*
X79463448Y-64231271D01*
X79492778Y-64267009D01*
X79576443Y-64423534D01*
X79627963Y-64593373D01*
X79645359Y-64770000D01*
X79627963Y-64946627D01*
X79576443Y-65116466D01*
X79492778Y-65272991D01*
X79480251Y-65288255D01*
X79380186Y-65410186D01*
X79282357Y-65490471D01*
X79242991Y-65522778D01*
X79086466Y-65606443D01*
X78916627Y-65657963D01*
X78850442Y-65664482D01*
X78784260Y-65671000D01*
X78695740Y-65671000D01*
X78629558Y-65664482D01*
X78563373Y-65657963D01*
X78393534Y-65606443D01*
X78237009Y-65522778D01*
X78197643Y-65490471D01*
X78099814Y-65410186D01*
X77999749Y-65288255D01*
X77987222Y-65272991D01*
X77903557Y-65116466D01*
X77852037Y-64946627D01*
X77834641Y-64770000D01*
X77852037Y-64593373D01*
X77903557Y-64423534D01*
X77987222Y-64267009D01*
X78016552Y-64231271D01*
X78099814Y-64129814D01*
X78201271Y-64046552D01*
X78237009Y-64017222D01*
X78393534Y-63933557D01*
X78563373Y-63882037D01*
X78629558Y-63875518D01*
X78695740Y-63869000D01*
X78784260Y-63869000D01*
X78850442Y-63875518D01*
X78850442Y-63875518D01*
G37*
G36*
X132317142Y-63988242D02*
G01*
X132465101Y-64049529D01*
X132598255Y-64138499D01*
X132711501Y-64251745D01*
X132800471Y-64384899D01*
X132861758Y-64532858D01*
X132893000Y-64689925D01*
X132893000Y-64850075D01*
X132861758Y-65007142D01*
X132800471Y-65155101D01*
X132711501Y-65288255D01*
X132598255Y-65401501D01*
X132465101Y-65490471D01*
X132317142Y-65551758D01*
X132160075Y-65583000D01*
X131999925Y-65583000D01*
X131842858Y-65551758D01*
X131694899Y-65490471D01*
X131561745Y-65401501D01*
X131448499Y-65288255D01*
X131359529Y-65155101D01*
X131298242Y-65007142D01*
X131267000Y-64850075D01*
X131267000Y-64689925D01*
X131298242Y-64532858D01*
X131359529Y-64384899D01*
X131448499Y-64251745D01*
X131561745Y-64138499D01*
X131694899Y-64049529D01*
X131842858Y-63988242D01*
X131999925Y-63957000D01*
X132160075Y-63957000D01*
X132317142Y-63988242D01*
X132317142Y-63988242D01*
G37*
G36*
X147557142Y-63988242D02*
G01*
X147705101Y-64049529D01*
X147838255Y-64138499D01*
X147951501Y-64251745D01*
X148040471Y-64384899D01*
X148101758Y-64532858D01*
X148133000Y-64689925D01*
X148133000Y-64850075D01*
X148101758Y-65007142D01*
X148040471Y-65155101D01*
X147951501Y-65288255D01*
X147838255Y-65401501D01*
X147705101Y-65490471D01*
X147557142Y-65551758D01*
X147400075Y-65583000D01*
X147239925Y-65583000D01*
X147082858Y-65551758D01*
X146934899Y-65490471D01*
X146801745Y-65401501D01*
X146688499Y-65288255D01*
X146599529Y-65155101D01*
X146538242Y-65007142D01*
X146507000Y-64850075D01*
X146507000Y-64689925D01*
X146538242Y-64532858D01*
X146599529Y-64384899D01*
X146688499Y-64251745D01*
X146801745Y-64138499D01*
X146934899Y-64049529D01*
X147082858Y-63988242D01*
X147239925Y-63957000D01*
X147400075Y-63957000D01*
X147557142Y-63988242D01*
X147557142Y-63988242D01*
G37*
G36*
X207623062Y-60858181D02*
G01*
X207657981Y-60868774D01*
X207690163Y-60885976D01*
X207718373Y-60909127D01*
X207741524Y-60937337D01*
X207758726Y-60969519D01*
X207769319Y-61004438D01*
X207773500Y-61046895D01*
X207773500Y-63413105D01*
X207769319Y-63455562D01*
X207758726Y-63490481D01*
X207741524Y-63522663D01*
X207718373Y-63550873D01*
X207690163Y-63574024D01*
X207657981Y-63591226D01*
X207623062Y-63601819D01*
X207580605Y-63606000D01*
X206439395Y-63606000D01*
X206396938Y-63601819D01*
X206362019Y-63591226D01*
X206329837Y-63574024D01*
X206301627Y-63550873D01*
X206278476Y-63522663D01*
X206261274Y-63490481D01*
X206250681Y-63455562D01*
X206246500Y-63413105D01*
X206246500Y-61046895D01*
X206250681Y-61004438D01*
X206261274Y-60969519D01*
X206278476Y-60937337D01*
X206301627Y-60909127D01*
X206329837Y-60885976D01*
X206362019Y-60868774D01*
X206396938Y-60858181D01*
X206439395Y-60854000D01*
X207580605Y-60854000D01*
X207623062Y-60858181D01*
X207623062Y-60858181D01*
G37*
G36*
X210598062Y-60858181D02*
G01*
X210632981Y-60868774D01*
X210665163Y-60885976D01*
X210693373Y-60909127D01*
X210716524Y-60937337D01*
X210733726Y-60969519D01*
X210744319Y-61004438D01*
X210748500Y-61046895D01*
X210748500Y-63413105D01*
X210744319Y-63455562D01*
X210733726Y-63490481D01*
X210716524Y-63522663D01*
X210693373Y-63550873D01*
X210665163Y-63574024D01*
X210632981Y-63591226D01*
X210598062Y-63601819D01*
X210555605Y-63606000D01*
X209414395Y-63606000D01*
X209371938Y-63601819D01*
X209337019Y-63591226D01*
X209304837Y-63574024D01*
X209276627Y-63550873D01*
X209253476Y-63522663D01*
X209236274Y-63490481D01*
X209225681Y-63455562D01*
X209221500Y-63413105D01*
X209221500Y-61046895D01*
X209225681Y-61004438D01*
X209236274Y-60969519D01*
X209253476Y-60937337D01*
X209276627Y-60909127D01*
X209304837Y-60885976D01*
X209337019Y-60868774D01*
X209371938Y-60858181D01*
X209414395Y-60854000D01*
X210555605Y-60854000D01*
X210598062Y-60858181D01*
X210598062Y-60858181D01*
G37*
G36*
X78850443Y-61335519D02*
G01*
X78916627Y-61342037D01*
X79086466Y-61393557D01*
X79242991Y-61477222D01*
X79278729Y-61506552D01*
X79380186Y-61589814D01*
X79463448Y-61691271D01*
X79492778Y-61727009D01*
X79576443Y-61883534D01*
X79627963Y-62053373D01*
X79645359Y-62230000D01*
X79627963Y-62406627D01*
X79576443Y-62576466D01*
X79492778Y-62732991D01*
X79480251Y-62748255D01*
X79380186Y-62870186D01*
X79282357Y-62950471D01*
X79242991Y-62982778D01*
X79086466Y-63066443D01*
X78916627Y-63117963D01*
X78850443Y-63124481D01*
X78784260Y-63131000D01*
X78695740Y-63131000D01*
X78629557Y-63124481D01*
X78563373Y-63117963D01*
X78393534Y-63066443D01*
X78237009Y-62982778D01*
X78197643Y-62950471D01*
X78099814Y-62870186D01*
X77999749Y-62748255D01*
X77987222Y-62732991D01*
X77903557Y-62576466D01*
X77852037Y-62406627D01*
X77834641Y-62230000D01*
X77852037Y-62053373D01*
X77903557Y-61883534D01*
X77987222Y-61727009D01*
X78016552Y-61691271D01*
X78099814Y-61589814D01*
X78201271Y-61506552D01*
X78237009Y-61477222D01*
X78393534Y-61393557D01*
X78563373Y-61342037D01*
X78629557Y-61335519D01*
X78695740Y-61329000D01*
X78784260Y-61329000D01*
X78850443Y-61335519D01*
X78850443Y-61335519D01*
G37*
G36*
X147557142Y-61448242D02*
G01*
X147705101Y-61509529D01*
X147838255Y-61598499D01*
X147951501Y-61711745D01*
X148040471Y-61844899D01*
X148101758Y-61992858D01*
X148133000Y-62149925D01*
X148133000Y-62310075D01*
X148101758Y-62467142D01*
X148040471Y-62615101D01*
X147951501Y-62748255D01*
X147838255Y-62861501D01*
X147705101Y-62950471D01*
X147557142Y-63011758D01*
X147400075Y-63043000D01*
X147239925Y-63043000D01*
X147082858Y-63011758D01*
X146934899Y-62950471D01*
X146801745Y-62861501D01*
X146688499Y-62748255D01*
X146599529Y-62615101D01*
X146538242Y-62467142D01*
X146507000Y-62310075D01*
X146507000Y-62149925D01*
X146538242Y-61992858D01*
X146599529Y-61844899D01*
X146688499Y-61711745D01*
X146801745Y-61598499D01*
X146934899Y-61509529D01*
X147082858Y-61448242D01*
X147239925Y-61417000D01*
X147400075Y-61417000D01*
X147557142Y-61448242D01*
X147557142Y-61448242D01*
G37*
G36*
X132317142Y-61448242D02*
G01*
X132465101Y-61509529D01*
X132598255Y-61598499D01*
X132711501Y-61711745D01*
X132800471Y-61844899D01*
X132861758Y-61992858D01*
X132893000Y-62149925D01*
X132893000Y-62310075D01*
X132861758Y-62467142D01*
X132800471Y-62615101D01*
X132711501Y-62748255D01*
X132598255Y-62861501D01*
X132465101Y-62950471D01*
X132317142Y-63011758D01*
X132160075Y-63043000D01*
X131999925Y-63043000D01*
X131842858Y-63011758D01*
X131694899Y-62950471D01*
X131561745Y-62861501D01*
X131448499Y-62748255D01*
X131359529Y-62615101D01*
X131298242Y-62467142D01*
X131267000Y-62310075D01*
X131267000Y-62149925D01*
X131298242Y-61992858D01*
X131359529Y-61844899D01*
X131448499Y-61711745D01*
X131561745Y-61598499D01*
X131694899Y-61509529D01*
X131842858Y-61448242D01*
X131999925Y-61417000D01*
X132160075Y-61417000D01*
X132317142Y-61448242D01*
X132317142Y-61448242D01*
G37*
G36*
X78850442Y-58795518D02*
G01*
X78916627Y-58802037D01*
X79086466Y-58853557D01*
X79242991Y-58937222D01*
X79278729Y-58966552D01*
X79380186Y-59049814D01*
X79463448Y-59151271D01*
X79492778Y-59187009D01*
X79576443Y-59343534D01*
X79627963Y-59513373D01*
X79645359Y-59690000D01*
X79627963Y-59866627D01*
X79576443Y-60036466D01*
X79492778Y-60192991D01*
X79480251Y-60208255D01*
X79380186Y-60330186D01*
X79285902Y-60407562D01*
X79242991Y-60442778D01*
X79086466Y-60526443D01*
X78916627Y-60577963D01*
X78850443Y-60584481D01*
X78784260Y-60591000D01*
X78695740Y-60591000D01*
X78629557Y-60584481D01*
X78563373Y-60577963D01*
X78393534Y-60526443D01*
X78237009Y-60442778D01*
X78194098Y-60407562D01*
X78099814Y-60330186D01*
X77999749Y-60208255D01*
X77987222Y-60192991D01*
X77903557Y-60036466D01*
X77852037Y-59866627D01*
X77834641Y-59690000D01*
X77852037Y-59513373D01*
X77903557Y-59343534D01*
X77987222Y-59187009D01*
X78016552Y-59151271D01*
X78099814Y-59049814D01*
X78201271Y-58966552D01*
X78237009Y-58937222D01*
X78393534Y-58853557D01*
X78563373Y-58802037D01*
X78629558Y-58795518D01*
X78695740Y-58789000D01*
X78784260Y-58789000D01*
X78850442Y-58795518D01*
X78850442Y-58795518D01*
G37*
G36*
X85200442Y-58795518D02*
G01*
X85266627Y-58802037D01*
X85436466Y-58853557D01*
X85592991Y-58937222D01*
X85628729Y-58966552D01*
X85730186Y-59049814D01*
X85813448Y-59151271D01*
X85842778Y-59187009D01*
X85926443Y-59343534D01*
X85977963Y-59513373D01*
X85995359Y-59690000D01*
X85977963Y-59866627D01*
X85926443Y-60036466D01*
X85842778Y-60192991D01*
X85830251Y-60208255D01*
X85730186Y-60330186D01*
X85635902Y-60407562D01*
X85592991Y-60442778D01*
X85436466Y-60526443D01*
X85266627Y-60577963D01*
X85200443Y-60584481D01*
X85134260Y-60591000D01*
X85045740Y-60591000D01*
X84979557Y-60584481D01*
X84913373Y-60577963D01*
X84743534Y-60526443D01*
X84587009Y-60442778D01*
X84544098Y-60407562D01*
X84449814Y-60330186D01*
X84349749Y-60208255D01*
X84337222Y-60192991D01*
X84253557Y-60036466D01*
X84202037Y-59866627D01*
X84184641Y-59690000D01*
X84202037Y-59513373D01*
X84253557Y-59343534D01*
X84337222Y-59187009D01*
X84366552Y-59151271D01*
X84449814Y-59049814D01*
X84551271Y-58966552D01*
X84587009Y-58937222D01*
X84743534Y-58853557D01*
X84913373Y-58802037D01*
X84979558Y-58795518D01*
X85045740Y-58789000D01*
X85134260Y-58789000D01*
X85200442Y-58795518D01*
X85200442Y-58795518D01*
G37*
G36*
X87740442Y-58795518D02*
G01*
X87806627Y-58802037D01*
X87976466Y-58853557D01*
X88132991Y-58937222D01*
X88168729Y-58966552D01*
X88270186Y-59049814D01*
X88353448Y-59151271D01*
X88382778Y-59187009D01*
X88466443Y-59343534D01*
X88517963Y-59513373D01*
X88535359Y-59690000D01*
X88517963Y-59866627D01*
X88466443Y-60036466D01*
X88382778Y-60192991D01*
X88370251Y-60208255D01*
X88270186Y-60330186D01*
X88175902Y-60407562D01*
X88132991Y-60442778D01*
X87976466Y-60526443D01*
X87806627Y-60577963D01*
X87740443Y-60584481D01*
X87674260Y-60591000D01*
X87585740Y-60591000D01*
X87519557Y-60584481D01*
X87453373Y-60577963D01*
X87283534Y-60526443D01*
X87127009Y-60442778D01*
X87084098Y-60407562D01*
X86989814Y-60330186D01*
X86889749Y-60208255D01*
X86877222Y-60192991D01*
X86793557Y-60036466D01*
X86742037Y-59866627D01*
X86724641Y-59690000D01*
X86742037Y-59513373D01*
X86793557Y-59343534D01*
X86877222Y-59187009D01*
X86906552Y-59151271D01*
X86989814Y-59049814D01*
X87091271Y-58966552D01*
X87127009Y-58937222D01*
X87283534Y-58853557D01*
X87453373Y-58802037D01*
X87519558Y-58795518D01*
X87585740Y-58789000D01*
X87674260Y-58789000D01*
X87740442Y-58795518D01*
X87740442Y-58795518D01*
G37*
G36*
X90280442Y-58795518D02*
G01*
X90346627Y-58802037D01*
X90516466Y-58853557D01*
X90672991Y-58937222D01*
X90708729Y-58966552D01*
X90810186Y-59049814D01*
X90893448Y-59151271D01*
X90922778Y-59187009D01*
X91006443Y-59343534D01*
X91057963Y-59513373D01*
X91075359Y-59690000D01*
X91057963Y-59866627D01*
X91006443Y-60036466D01*
X90922778Y-60192991D01*
X90910251Y-60208255D01*
X90810186Y-60330186D01*
X90715902Y-60407562D01*
X90672991Y-60442778D01*
X90516466Y-60526443D01*
X90346627Y-60577963D01*
X90280443Y-60584481D01*
X90214260Y-60591000D01*
X90125740Y-60591000D01*
X90059557Y-60584481D01*
X89993373Y-60577963D01*
X89823534Y-60526443D01*
X89667009Y-60442778D01*
X89624098Y-60407562D01*
X89529814Y-60330186D01*
X89429749Y-60208255D01*
X89417222Y-60192991D01*
X89333557Y-60036466D01*
X89282037Y-59866627D01*
X89264641Y-59690000D01*
X89282037Y-59513373D01*
X89333557Y-59343534D01*
X89417222Y-59187009D01*
X89446552Y-59151271D01*
X89529814Y-59049814D01*
X89631271Y-58966552D01*
X89667009Y-58937222D01*
X89823534Y-58853557D01*
X89993373Y-58802037D01*
X90059558Y-58795518D01*
X90125740Y-58789000D01*
X90214260Y-58789000D01*
X90280442Y-58795518D01*
X90280442Y-58795518D01*
G37*
G36*
X107637562Y-57810181D02*
G01*
X107672481Y-57820774D01*
X107704663Y-57837976D01*
X107732873Y-57861127D01*
X107756024Y-57889337D01*
X107773226Y-57921519D01*
X107783819Y-57956438D01*
X107788000Y-57998895D01*
X107788000Y-60365105D01*
X107783819Y-60407562D01*
X107773226Y-60442481D01*
X107756024Y-60474663D01*
X107732873Y-60502873D01*
X107704663Y-60526024D01*
X107672481Y-60543226D01*
X107637562Y-60553819D01*
X107595105Y-60558000D01*
X106453895Y-60558000D01*
X106411438Y-60553819D01*
X106376519Y-60543226D01*
X106344337Y-60526024D01*
X106316127Y-60502873D01*
X106292976Y-60474663D01*
X106275774Y-60442481D01*
X106265181Y-60407562D01*
X106261000Y-60365105D01*
X106261000Y-57998895D01*
X106265181Y-57956438D01*
X106275774Y-57921519D01*
X106292976Y-57889337D01*
X106316127Y-57861127D01*
X106344337Y-57837976D01*
X106376519Y-57820774D01*
X106411438Y-57810181D01*
X106453895Y-57806000D01*
X107595105Y-57806000D01*
X107637562Y-57810181D01*
X107637562Y-57810181D01*
G37*
G36*
X104662562Y-57810181D02*
G01*
X104697481Y-57820774D01*
X104729663Y-57837976D01*
X104757873Y-57861127D01*
X104781024Y-57889337D01*
X104798226Y-57921519D01*
X104808819Y-57956438D01*
X104813000Y-57998895D01*
X104813000Y-60365105D01*
X104808819Y-60407562D01*
X104798226Y-60442481D01*
X104781024Y-60474663D01*
X104757873Y-60502873D01*
X104729663Y-60526024D01*
X104697481Y-60543226D01*
X104662562Y-60553819D01*
X104620105Y-60558000D01*
X103478895Y-60558000D01*
X103436438Y-60553819D01*
X103401519Y-60543226D01*
X103369337Y-60526024D01*
X103341127Y-60502873D01*
X103317976Y-60474663D01*
X103300774Y-60442481D01*
X103290181Y-60407562D01*
X103286000Y-60365105D01*
X103286000Y-57998895D01*
X103290181Y-57956438D01*
X103300774Y-57921519D01*
X103317976Y-57889337D01*
X103341127Y-57861127D01*
X103369337Y-57837976D01*
X103401519Y-57820774D01*
X103436438Y-57810181D01*
X103478895Y-57806000D01*
X104620105Y-57806000D01*
X104662562Y-57810181D01*
X104662562Y-57810181D01*
G37*
G36*
X98312562Y-57810181D02*
G01*
X98347481Y-57820774D01*
X98379663Y-57837976D01*
X98407873Y-57861127D01*
X98431024Y-57889337D01*
X98448226Y-57921519D01*
X98458819Y-57956438D01*
X98463000Y-57998895D01*
X98463000Y-60365105D01*
X98458819Y-60407562D01*
X98448226Y-60442481D01*
X98431024Y-60474663D01*
X98407873Y-60502873D01*
X98379663Y-60526024D01*
X98347481Y-60543226D01*
X98312562Y-60553819D01*
X98270105Y-60558000D01*
X97128895Y-60558000D01*
X97086438Y-60553819D01*
X97051519Y-60543226D01*
X97019337Y-60526024D01*
X96991127Y-60502873D01*
X96967976Y-60474663D01*
X96950774Y-60442481D01*
X96940181Y-60407562D01*
X96936000Y-60365105D01*
X96936000Y-57998895D01*
X96940181Y-57956438D01*
X96950774Y-57921519D01*
X96967976Y-57889337D01*
X96991127Y-57861127D01*
X97019337Y-57837976D01*
X97051519Y-57820774D01*
X97086438Y-57810181D01*
X97128895Y-57806000D01*
X98270105Y-57806000D01*
X98312562Y-57810181D01*
X98312562Y-57810181D01*
G37*
G36*
X101287562Y-57810181D02*
G01*
X101322481Y-57820774D01*
X101354663Y-57837976D01*
X101382873Y-57861127D01*
X101406024Y-57889337D01*
X101423226Y-57921519D01*
X101433819Y-57956438D01*
X101438000Y-57998895D01*
X101438000Y-60365105D01*
X101433819Y-60407562D01*
X101423226Y-60442481D01*
X101406024Y-60474663D01*
X101382873Y-60502873D01*
X101354663Y-60526024D01*
X101322481Y-60543226D01*
X101287562Y-60553819D01*
X101245105Y-60558000D01*
X100103895Y-60558000D01*
X100061438Y-60553819D01*
X100026519Y-60543226D01*
X99994337Y-60526024D01*
X99966127Y-60502873D01*
X99942976Y-60474663D01*
X99925774Y-60442481D01*
X99915181Y-60407562D01*
X99911000Y-60365105D01*
X99911000Y-57998895D01*
X99915181Y-57956438D01*
X99925774Y-57921519D01*
X99942976Y-57889337D01*
X99966127Y-57861127D01*
X99994337Y-57837976D01*
X100026519Y-57820774D01*
X100061438Y-57810181D01*
X100103895Y-57806000D01*
X101245105Y-57806000D01*
X101287562Y-57810181D01*
X101287562Y-57810181D01*
G37*
G36*
X132317142Y-58908242D02*
G01*
X132465101Y-58969529D01*
X132598255Y-59058499D01*
X132711501Y-59171745D01*
X132800471Y-59304899D01*
X132861758Y-59452858D01*
X132893000Y-59609925D01*
X132893000Y-59770075D01*
X132861758Y-59927142D01*
X132800471Y-60075101D01*
X132711501Y-60208255D01*
X132598255Y-60321501D01*
X132465101Y-60410471D01*
X132317142Y-60471758D01*
X132160075Y-60503000D01*
X131999925Y-60503000D01*
X131842858Y-60471758D01*
X131694899Y-60410471D01*
X131561745Y-60321501D01*
X131448499Y-60208255D01*
X131359529Y-60075101D01*
X131298242Y-59927142D01*
X131267000Y-59770075D01*
X131267000Y-59609925D01*
X131298242Y-59452858D01*
X131359529Y-59304899D01*
X131448499Y-59171745D01*
X131561745Y-59058499D01*
X131694899Y-58969529D01*
X131842858Y-58908242D01*
X131999925Y-58877000D01*
X132160075Y-58877000D01*
X132317142Y-58908242D01*
X132317142Y-58908242D01*
G37*
G36*
X147557142Y-58908242D02*
G01*
X147705101Y-58969529D01*
X147838255Y-59058499D01*
X147951501Y-59171745D01*
X148040471Y-59304899D01*
X148101758Y-59452858D01*
X148133000Y-59609925D01*
X148133000Y-59770075D01*
X148101758Y-59927142D01*
X148040471Y-60075101D01*
X147951501Y-60208255D01*
X147838255Y-60321501D01*
X147705101Y-60410471D01*
X147557142Y-60471758D01*
X147400075Y-60503000D01*
X147239925Y-60503000D01*
X147082858Y-60471758D01*
X146934899Y-60410471D01*
X146801745Y-60321501D01*
X146688499Y-60208255D01*
X146599529Y-60075101D01*
X146538242Y-59927142D01*
X146507000Y-59770075D01*
X146507000Y-59609925D01*
X146538242Y-59452858D01*
X146599529Y-59304899D01*
X146688499Y-59171745D01*
X146801745Y-59058499D01*
X146934899Y-58969529D01*
X147082858Y-58908242D01*
X147239925Y-58877000D01*
X147400075Y-58877000D01*
X147557142Y-58908242D01*
X147557142Y-58908242D01*
G37*
G36*
X207405562Y-55778181D02*
G01*
X207440481Y-55788774D01*
X207472663Y-55805976D01*
X207500873Y-55829127D01*
X207524024Y-55857337D01*
X207541226Y-55889519D01*
X207551819Y-55924438D01*
X207556000Y-55966895D01*
X207556000Y-58333105D01*
X207551819Y-58375562D01*
X207541226Y-58410481D01*
X207524024Y-58442663D01*
X207500873Y-58470873D01*
X207472663Y-58494024D01*
X207440481Y-58511226D01*
X207405562Y-58521819D01*
X207363105Y-58526000D01*
X206221895Y-58526000D01*
X206179438Y-58521819D01*
X206144519Y-58511226D01*
X206112337Y-58494024D01*
X206084127Y-58470873D01*
X206060976Y-58442663D01*
X206043774Y-58410481D01*
X206033181Y-58375562D01*
X206029000Y-58333105D01*
X206029000Y-55966895D01*
X206033181Y-55924438D01*
X206043774Y-55889519D01*
X206060976Y-55857337D01*
X206084127Y-55829127D01*
X206112337Y-55805976D01*
X206144519Y-55788774D01*
X206179438Y-55778181D01*
X206221895Y-55774000D01*
X207363105Y-55774000D01*
X207405562Y-55778181D01*
X207405562Y-55778181D01*
G37*
G36*
X210380562Y-55778181D02*
G01*
X210415481Y-55788774D01*
X210447663Y-55805976D01*
X210475873Y-55829127D01*
X210499024Y-55857337D01*
X210516226Y-55889519D01*
X210526819Y-55924438D01*
X210531000Y-55966895D01*
X210531000Y-58333105D01*
X210526819Y-58375562D01*
X210516226Y-58410481D01*
X210499024Y-58442663D01*
X210475873Y-58470873D01*
X210447663Y-58494024D01*
X210415481Y-58511226D01*
X210380562Y-58521819D01*
X210338105Y-58526000D01*
X209196895Y-58526000D01*
X209154438Y-58521819D01*
X209119519Y-58511226D01*
X209087337Y-58494024D01*
X209059127Y-58470873D01*
X209035976Y-58442663D01*
X209018774Y-58410481D01*
X209008181Y-58375562D01*
X209004000Y-58333105D01*
X209004000Y-55966895D01*
X209008181Y-55924438D01*
X209018774Y-55889519D01*
X209035976Y-55857337D01*
X209059127Y-55829127D01*
X209087337Y-55805976D01*
X209119519Y-55788774D01*
X209154438Y-55778181D01*
X209196895Y-55774000D01*
X210338105Y-55774000D01*
X210380562Y-55778181D01*
X210380562Y-55778181D01*
G37*
G36*
X91071000Y-58051000D02*
G01*
X89269000Y-58051000D01*
X89269000Y-56249000D01*
X91071000Y-56249000D01*
X91071000Y-58051000D01*
X91071000Y-58051000D01*
G37*
G36*
X85200443Y-56255519D02*
G01*
X85266627Y-56262037D01*
X85436466Y-56313557D01*
X85592991Y-56397222D01*
X85615305Y-56415535D01*
X85730186Y-56509814D01*
X85813448Y-56611271D01*
X85842778Y-56647009D01*
X85926443Y-56803534D01*
X85977963Y-56973373D01*
X85995359Y-57150000D01*
X85977963Y-57326627D01*
X85926443Y-57496466D01*
X85842778Y-57652991D01*
X85830251Y-57668255D01*
X85730186Y-57790186D01*
X85655902Y-57851148D01*
X85592991Y-57902778D01*
X85436466Y-57986443D01*
X85266627Y-58037963D01*
X85200442Y-58044482D01*
X85134260Y-58051000D01*
X85045740Y-58051000D01*
X84979558Y-58044482D01*
X84913373Y-58037963D01*
X84743534Y-57986443D01*
X84587009Y-57902778D01*
X84524098Y-57851148D01*
X84449814Y-57790186D01*
X84349749Y-57668255D01*
X84337222Y-57652991D01*
X84253557Y-57496466D01*
X84202037Y-57326627D01*
X84184641Y-57150000D01*
X84202037Y-56973373D01*
X84253557Y-56803534D01*
X84337222Y-56647009D01*
X84366552Y-56611271D01*
X84449814Y-56509814D01*
X84564695Y-56415535D01*
X84587009Y-56397222D01*
X84743534Y-56313557D01*
X84913373Y-56262037D01*
X84979557Y-56255519D01*
X85045740Y-56249000D01*
X85134260Y-56249000D01*
X85200443Y-56255519D01*
X85200443Y-56255519D01*
G37*
G36*
X87740443Y-56255519D02*
G01*
X87806627Y-56262037D01*
X87976466Y-56313557D01*
X88132991Y-56397222D01*
X88155305Y-56415535D01*
X88270186Y-56509814D01*
X88353448Y-56611271D01*
X88382778Y-56647009D01*
X88466443Y-56803534D01*
X88517963Y-56973373D01*
X88535359Y-57150000D01*
X88517963Y-57326627D01*
X88466443Y-57496466D01*
X88382778Y-57652991D01*
X88370251Y-57668255D01*
X88270186Y-57790186D01*
X88195902Y-57851148D01*
X88132991Y-57902778D01*
X87976466Y-57986443D01*
X87806627Y-58037963D01*
X87740442Y-58044482D01*
X87674260Y-58051000D01*
X87585740Y-58051000D01*
X87519558Y-58044482D01*
X87453373Y-58037963D01*
X87283534Y-57986443D01*
X87127009Y-57902778D01*
X87064098Y-57851148D01*
X86989814Y-57790186D01*
X86889749Y-57668255D01*
X86877222Y-57652991D01*
X86793557Y-57496466D01*
X86742037Y-57326627D01*
X86724641Y-57150000D01*
X86742037Y-56973373D01*
X86793557Y-56803534D01*
X86877222Y-56647009D01*
X86906552Y-56611271D01*
X86989814Y-56509814D01*
X87104695Y-56415535D01*
X87127009Y-56397222D01*
X87283534Y-56313557D01*
X87453373Y-56262037D01*
X87519557Y-56255519D01*
X87585740Y-56249000D01*
X87674260Y-56249000D01*
X87740443Y-56255519D01*
X87740443Y-56255519D01*
G37*
G36*
X78850443Y-56255519D02*
G01*
X78916627Y-56262037D01*
X79086466Y-56313557D01*
X79242991Y-56397222D01*
X79265305Y-56415535D01*
X79380186Y-56509814D01*
X79463448Y-56611271D01*
X79492778Y-56647009D01*
X79576443Y-56803534D01*
X79627963Y-56973373D01*
X79645359Y-57150000D01*
X79627963Y-57326627D01*
X79576443Y-57496466D01*
X79492778Y-57652991D01*
X79480251Y-57668255D01*
X79380186Y-57790186D01*
X79305902Y-57851148D01*
X79242991Y-57902778D01*
X79086466Y-57986443D01*
X78916627Y-58037963D01*
X78850442Y-58044482D01*
X78784260Y-58051000D01*
X78695740Y-58051000D01*
X78629558Y-58044482D01*
X78563373Y-58037963D01*
X78393534Y-57986443D01*
X78237009Y-57902778D01*
X78174098Y-57851148D01*
X78099814Y-57790186D01*
X77999749Y-57668255D01*
X77987222Y-57652991D01*
X77903557Y-57496466D01*
X77852037Y-57326627D01*
X77834641Y-57150000D01*
X77852037Y-56973373D01*
X77903557Y-56803534D01*
X77987222Y-56647009D01*
X78016552Y-56611271D01*
X78099814Y-56509814D01*
X78214695Y-56415535D01*
X78237009Y-56397222D01*
X78393534Y-56313557D01*
X78563373Y-56262037D01*
X78629557Y-56255519D01*
X78695740Y-56249000D01*
X78784260Y-56249000D01*
X78850443Y-56255519D01*
X78850443Y-56255519D01*
G37*
G36*
X132317142Y-56368242D02*
G01*
X132465101Y-56429529D01*
X132598255Y-56518499D01*
X132711501Y-56631745D01*
X132800471Y-56764899D01*
X132861758Y-56912858D01*
X132893000Y-57069925D01*
X132893000Y-57230075D01*
X132861758Y-57387142D01*
X132800471Y-57535101D01*
X132711501Y-57668255D01*
X132598255Y-57781501D01*
X132465101Y-57870471D01*
X132317142Y-57931758D01*
X132160075Y-57963000D01*
X131999925Y-57963000D01*
X131842858Y-57931758D01*
X131694899Y-57870471D01*
X131561745Y-57781501D01*
X131448499Y-57668255D01*
X131359529Y-57535101D01*
X131298242Y-57387142D01*
X131267000Y-57230075D01*
X131267000Y-57069925D01*
X131298242Y-56912858D01*
X131359529Y-56764899D01*
X131448499Y-56631745D01*
X131561745Y-56518499D01*
X131694899Y-56429529D01*
X131842858Y-56368242D01*
X131999925Y-56337000D01*
X132160075Y-56337000D01*
X132317142Y-56368242D01*
X132317142Y-56368242D01*
G37*
G36*
X147557142Y-56368242D02*
G01*
X147705101Y-56429529D01*
X147838255Y-56518499D01*
X147951501Y-56631745D01*
X148040471Y-56764899D01*
X148101758Y-56912858D01*
X148133000Y-57069925D01*
X148133000Y-57230075D01*
X148101758Y-57387142D01*
X148040471Y-57535101D01*
X147951501Y-57668255D01*
X147838255Y-57781501D01*
X147705101Y-57870471D01*
X147557142Y-57931758D01*
X147400075Y-57963000D01*
X147239925Y-57963000D01*
X147082858Y-57931758D01*
X146934899Y-57870471D01*
X146801745Y-57781501D01*
X146688499Y-57668255D01*
X146599529Y-57535101D01*
X146538242Y-57387142D01*
X146507000Y-57230075D01*
X146507000Y-57069925D01*
X146538242Y-56912858D01*
X146599529Y-56764899D01*
X146688499Y-56631745D01*
X146801745Y-56518499D01*
X146934899Y-56429529D01*
X147082858Y-56368242D01*
X147239925Y-56337000D01*
X147400075Y-56337000D01*
X147557142Y-56368242D01*
X147557142Y-56368242D01*
G37*
G36*
X104662562Y-53746181D02*
G01*
X104697481Y-53756774D01*
X104729663Y-53773976D01*
X104757873Y-53797127D01*
X104781024Y-53825337D01*
X104798226Y-53857519D01*
X104808819Y-53892438D01*
X104813000Y-53934895D01*
X104813000Y-56301105D01*
X104808819Y-56343562D01*
X104798226Y-56378481D01*
X104781024Y-56410663D01*
X104757873Y-56438873D01*
X104729663Y-56462024D01*
X104697481Y-56479226D01*
X104662562Y-56489819D01*
X104620105Y-56494000D01*
X103478895Y-56494000D01*
X103436438Y-56489819D01*
X103401519Y-56479226D01*
X103369337Y-56462024D01*
X103341127Y-56438873D01*
X103317976Y-56410663D01*
X103300774Y-56378481D01*
X103290181Y-56343562D01*
X103286000Y-56301105D01*
X103286000Y-53934895D01*
X103290181Y-53892438D01*
X103300774Y-53857519D01*
X103317976Y-53825337D01*
X103341127Y-53797127D01*
X103369337Y-53773976D01*
X103401519Y-53756774D01*
X103436438Y-53746181D01*
X103478895Y-53742000D01*
X104620105Y-53742000D01*
X104662562Y-53746181D01*
X104662562Y-53746181D01*
G37*
G36*
X101287562Y-53746181D02*
G01*
X101322481Y-53756774D01*
X101354663Y-53773976D01*
X101382873Y-53797127D01*
X101406024Y-53825337D01*
X101423226Y-53857519D01*
X101433819Y-53892438D01*
X101438000Y-53934895D01*
X101438000Y-56301105D01*
X101433819Y-56343562D01*
X101423226Y-56378481D01*
X101406024Y-56410663D01*
X101382873Y-56438873D01*
X101354663Y-56462024D01*
X101322481Y-56479226D01*
X101287562Y-56489819D01*
X101245105Y-56494000D01*
X100103895Y-56494000D01*
X100061438Y-56489819D01*
X100026519Y-56479226D01*
X99994337Y-56462024D01*
X99966127Y-56438873D01*
X99942976Y-56410663D01*
X99925774Y-56378481D01*
X99915181Y-56343562D01*
X99911000Y-56301105D01*
X99911000Y-53934895D01*
X99915181Y-53892438D01*
X99925774Y-53857519D01*
X99942976Y-53825337D01*
X99966127Y-53797127D01*
X99994337Y-53773976D01*
X100026519Y-53756774D01*
X100061438Y-53746181D01*
X100103895Y-53742000D01*
X101245105Y-53742000D01*
X101287562Y-53746181D01*
X101287562Y-53746181D01*
G37*
G36*
X98312562Y-53746181D02*
G01*
X98347481Y-53756774D01*
X98379663Y-53773976D01*
X98407873Y-53797127D01*
X98431024Y-53825337D01*
X98448226Y-53857519D01*
X98458819Y-53892438D01*
X98463000Y-53934895D01*
X98463000Y-56301105D01*
X98458819Y-56343562D01*
X98448226Y-56378481D01*
X98431024Y-56410663D01*
X98407873Y-56438873D01*
X98379663Y-56462024D01*
X98347481Y-56479226D01*
X98312562Y-56489819D01*
X98270105Y-56494000D01*
X97128895Y-56494000D01*
X97086438Y-56489819D01*
X97051519Y-56479226D01*
X97019337Y-56462024D01*
X96991127Y-56438873D01*
X96967976Y-56410663D01*
X96950774Y-56378481D01*
X96940181Y-56343562D01*
X96936000Y-56301105D01*
X96936000Y-53934895D01*
X96940181Y-53892438D01*
X96950774Y-53857519D01*
X96967976Y-53825337D01*
X96991127Y-53797127D01*
X97019337Y-53773976D01*
X97051519Y-53756774D01*
X97086438Y-53746181D01*
X97128895Y-53742000D01*
X98270105Y-53742000D01*
X98312562Y-53746181D01*
X98312562Y-53746181D01*
G37*
G36*
X107637562Y-53746181D02*
G01*
X107672481Y-53756774D01*
X107704663Y-53773976D01*
X107732873Y-53797127D01*
X107756024Y-53825337D01*
X107773226Y-53857519D01*
X107783819Y-53892438D01*
X107788000Y-53934895D01*
X107788000Y-56301105D01*
X107783819Y-56343562D01*
X107773226Y-56378481D01*
X107756024Y-56410663D01*
X107732873Y-56438873D01*
X107704663Y-56462024D01*
X107672481Y-56479226D01*
X107637562Y-56489819D01*
X107595105Y-56494000D01*
X106453895Y-56494000D01*
X106411438Y-56489819D01*
X106376519Y-56479226D01*
X106344337Y-56462024D01*
X106316127Y-56438873D01*
X106292976Y-56410663D01*
X106275774Y-56378481D01*
X106265181Y-56343562D01*
X106261000Y-56301105D01*
X106261000Y-53934895D01*
X106265181Y-53892438D01*
X106275774Y-53857519D01*
X106292976Y-53825337D01*
X106316127Y-53797127D01*
X106344337Y-53773976D01*
X106376519Y-53756774D01*
X106411438Y-53746181D01*
X106453895Y-53742000D01*
X107595105Y-53742000D01*
X107637562Y-53746181D01*
X107637562Y-53746181D01*
G37*
G36*
X201490562Y-53238181D02*
G01*
X201525481Y-53248774D01*
X201557663Y-53265976D01*
X201585873Y-53289127D01*
X201609024Y-53317337D01*
X201626226Y-53349519D01*
X201636819Y-53384438D01*
X201641000Y-53426895D01*
X201641000Y-55793105D01*
X201636819Y-55835562D01*
X201626226Y-55870481D01*
X201609024Y-55902663D01*
X201585873Y-55930873D01*
X201557663Y-55954024D01*
X201525481Y-55971226D01*
X201490562Y-55981819D01*
X201448105Y-55986000D01*
X200306895Y-55986000D01*
X200264438Y-55981819D01*
X200229519Y-55971226D01*
X200197337Y-55954024D01*
X200169127Y-55930873D01*
X200145976Y-55902663D01*
X200128774Y-55870481D01*
X200118181Y-55835562D01*
X200114000Y-55793105D01*
X200114000Y-53426895D01*
X200118181Y-53384438D01*
X200128774Y-53349519D01*
X200145976Y-53317337D01*
X200169127Y-53289127D01*
X200197337Y-53265976D01*
X200229519Y-53248774D01*
X200264438Y-53238181D01*
X200306895Y-53234000D01*
X201448105Y-53234000D01*
X201490562Y-53238181D01*
X201490562Y-53238181D01*
G37*
G36*
X198515562Y-53238181D02*
G01*
X198550481Y-53248774D01*
X198582663Y-53265976D01*
X198610873Y-53289127D01*
X198634024Y-53317337D01*
X198651226Y-53349519D01*
X198661819Y-53384438D01*
X198666000Y-53426895D01*
X198666000Y-55793105D01*
X198661819Y-55835562D01*
X198651226Y-55870481D01*
X198634024Y-55902663D01*
X198610873Y-55930873D01*
X198582663Y-55954024D01*
X198550481Y-55971226D01*
X198515562Y-55981819D01*
X198473105Y-55986000D01*
X197331895Y-55986000D01*
X197289438Y-55981819D01*
X197254519Y-55971226D01*
X197222337Y-55954024D01*
X197194127Y-55930873D01*
X197170976Y-55902663D01*
X197153774Y-55870481D01*
X197143181Y-55835562D01*
X197139000Y-55793105D01*
X197139000Y-53426895D01*
X197143181Y-53384438D01*
X197153774Y-53349519D01*
X197170976Y-53317337D01*
X197194127Y-53289127D01*
X197222337Y-53265976D01*
X197254519Y-53248774D01*
X197289438Y-53238181D01*
X197331895Y-53234000D01*
X198473105Y-53234000D01*
X198515562Y-53238181D01*
X198515562Y-53238181D01*
G37*
G36*
X147557142Y-53828242D02*
G01*
X147705101Y-53889529D01*
X147838255Y-53978499D01*
X147951501Y-54091745D01*
X148040471Y-54224899D01*
X148101758Y-54372858D01*
X148133000Y-54529925D01*
X148133000Y-54690075D01*
X148101758Y-54847142D01*
X148040471Y-54995101D01*
X147951501Y-55128255D01*
X147838255Y-55241501D01*
X147705101Y-55330471D01*
X147557142Y-55391758D01*
X147400075Y-55423000D01*
X147239925Y-55423000D01*
X147082858Y-55391758D01*
X146934899Y-55330471D01*
X146801745Y-55241501D01*
X146688499Y-55128255D01*
X146599529Y-54995101D01*
X146538242Y-54847142D01*
X146507000Y-54690075D01*
X146507000Y-54529925D01*
X146538242Y-54372858D01*
X146599529Y-54224899D01*
X146688499Y-54091745D01*
X146801745Y-53978499D01*
X146934899Y-53889529D01*
X147082858Y-53828242D01*
X147239925Y-53797000D01*
X147400075Y-53797000D01*
X147557142Y-53828242D01*
X147557142Y-53828242D01*
G37*
G36*
X132317142Y-53828242D02*
G01*
X132465101Y-53889529D01*
X132598255Y-53978499D01*
X132711501Y-54091745D01*
X132800471Y-54224899D01*
X132861758Y-54372858D01*
X132893000Y-54529925D01*
X132893000Y-54690075D01*
X132861758Y-54847142D01*
X132800471Y-54995101D01*
X132711501Y-55128255D01*
X132598255Y-55241501D01*
X132465101Y-55330471D01*
X132317142Y-55391758D01*
X132160075Y-55423000D01*
X131999925Y-55423000D01*
X131842858Y-55391758D01*
X131694899Y-55330471D01*
X131561745Y-55241501D01*
X131448499Y-55128255D01*
X131359529Y-54995101D01*
X131298242Y-54847142D01*
X131267000Y-54690075D01*
X131267000Y-54529925D01*
X131298242Y-54372858D01*
X131359529Y-54224899D01*
X131448499Y-54091745D01*
X131561745Y-53978499D01*
X131694899Y-53889529D01*
X131842858Y-53828242D01*
X131999925Y-53797000D01*
X132160075Y-53797000D01*
X132317142Y-53828242D01*
X132317142Y-53828242D01*
G37*
G36*
X132317142Y-51288242D02*
G01*
X132465101Y-51349529D01*
X132598255Y-51438499D01*
X132711501Y-51551745D01*
X132800471Y-51684899D01*
X132861758Y-51832858D01*
X132893000Y-51989925D01*
X132893000Y-52150075D01*
X132861758Y-52307142D01*
X132800471Y-52455101D01*
X132711501Y-52588255D01*
X132598255Y-52701501D01*
X132465101Y-52790471D01*
X132317142Y-52851758D01*
X132160075Y-52883000D01*
X131999925Y-52883000D01*
X131842858Y-52851758D01*
X131694899Y-52790471D01*
X131561745Y-52701501D01*
X131448499Y-52588255D01*
X131359529Y-52455101D01*
X131298242Y-52307142D01*
X131267000Y-52150075D01*
X131267000Y-51989925D01*
X131298242Y-51832858D01*
X131359529Y-51684899D01*
X131448499Y-51551745D01*
X131561745Y-51438499D01*
X131694899Y-51349529D01*
X131842858Y-51288242D01*
X131999925Y-51257000D01*
X132160075Y-51257000D01*
X132317142Y-51288242D01*
X132317142Y-51288242D01*
G37*
G36*
X147557142Y-51288242D02*
G01*
X147705101Y-51349529D01*
X147838255Y-51438499D01*
X147951501Y-51551745D01*
X148040471Y-51684899D01*
X148101758Y-51832858D01*
X148133000Y-51989925D01*
X148133000Y-52150075D01*
X148101758Y-52307142D01*
X148040471Y-52455101D01*
X147951501Y-52588255D01*
X147838255Y-52701501D01*
X147705101Y-52790471D01*
X147557142Y-52851758D01*
X147400075Y-52883000D01*
X147239925Y-52883000D01*
X147082858Y-52851758D01*
X146934899Y-52790471D01*
X146801745Y-52701501D01*
X146688499Y-52588255D01*
X146599529Y-52455101D01*
X146538242Y-52307142D01*
X146507000Y-52150075D01*
X146507000Y-51989925D01*
X146538242Y-51832858D01*
X146599529Y-51684899D01*
X146688499Y-51551745D01*
X146801745Y-51438499D01*
X146934899Y-51349529D01*
X147082858Y-51288242D01*
X147239925Y-51257000D01*
X147400075Y-51257000D01*
X147557142Y-51288242D01*
X147557142Y-51288242D01*
G37*
G36*
X85045562Y-50258181D02*
G01*
X85080481Y-50268774D01*
X85112663Y-50285976D01*
X85140873Y-50309127D01*
X85164024Y-50337337D01*
X85181226Y-50369519D01*
X85191819Y-50404438D01*
X85196000Y-50446895D01*
X85196000Y-51588105D01*
X85191819Y-51630562D01*
X85181226Y-51665481D01*
X85164024Y-51697663D01*
X85140873Y-51725873D01*
X85112663Y-51749024D01*
X85080481Y-51766226D01*
X85045562Y-51776819D01*
X85003105Y-51781000D01*
X82636895Y-51781000D01*
X82594438Y-51776819D01*
X82559519Y-51766226D01*
X82527337Y-51749024D01*
X82499127Y-51725873D01*
X82475976Y-51697663D01*
X82458774Y-51665481D01*
X82448181Y-51630562D01*
X82444000Y-51588105D01*
X82444000Y-50446895D01*
X82448181Y-50404438D01*
X82458774Y-50369519D01*
X82475976Y-50337337D01*
X82499127Y-50309127D01*
X82527337Y-50285976D01*
X82559519Y-50268774D01*
X82594438Y-50258181D01*
X82636895Y-50254000D01*
X85003105Y-50254000D01*
X85045562Y-50258181D01*
X85045562Y-50258181D01*
G37*
G36*
X201490562Y-48158181D02*
G01*
X201525481Y-48168774D01*
X201557663Y-48185976D01*
X201585873Y-48209127D01*
X201609024Y-48237337D01*
X201626226Y-48269519D01*
X201636819Y-48304438D01*
X201641000Y-48346895D01*
X201641000Y-50713105D01*
X201636819Y-50755562D01*
X201626226Y-50790481D01*
X201609024Y-50822663D01*
X201585873Y-50850873D01*
X201557663Y-50874024D01*
X201525481Y-50891226D01*
X201490562Y-50901819D01*
X201448105Y-50906000D01*
X200306895Y-50906000D01*
X200264438Y-50901819D01*
X200229519Y-50891226D01*
X200197337Y-50874024D01*
X200169127Y-50850873D01*
X200145976Y-50822663D01*
X200128774Y-50790481D01*
X200118181Y-50755562D01*
X200114000Y-50713105D01*
X200114000Y-48346895D01*
X200118181Y-48304438D01*
X200128774Y-48269519D01*
X200145976Y-48237337D01*
X200169127Y-48209127D01*
X200197337Y-48185976D01*
X200229519Y-48168774D01*
X200264438Y-48158181D01*
X200306895Y-48154000D01*
X201448105Y-48154000D01*
X201490562Y-48158181D01*
X201490562Y-48158181D01*
G37*
G36*
X198515562Y-48158181D02*
G01*
X198550481Y-48168774D01*
X198582663Y-48185976D01*
X198610873Y-48209127D01*
X198634024Y-48237337D01*
X198651226Y-48269519D01*
X198661819Y-48304438D01*
X198666000Y-48346895D01*
X198666000Y-50713105D01*
X198661819Y-50755562D01*
X198651226Y-50790481D01*
X198634024Y-50822663D01*
X198610873Y-50850873D01*
X198582663Y-50874024D01*
X198550481Y-50891226D01*
X198515562Y-50901819D01*
X198473105Y-50906000D01*
X197331895Y-50906000D01*
X197289438Y-50901819D01*
X197254519Y-50891226D01*
X197222337Y-50874024D01*
X197194127Y-50850873D01*
X197170976Y-50822663D01*
X197153774Y-50790481D01*
X197143181Y-50755562D01*
X197139000Y-50713105D01*
X197139000Y-48346895D01*
X197143181Y-48304438D01*
X197153774Y-48269519D01*
X197170976Y-48237337D01*
X197194127Y-48209127D01*
X197222337Y-48185976D01*
X197254519Y-48168774D01*
X197289438Y-48158181D01*
X197331895Y-48154000D01*
X198473105Y-48154000D01*
X198515562Y-48158181D01*
X198515562Y-48158181D01*
G37*
G36*
X147557142Y-48748242D02*
G01*
X147705101Y-48809529D01*
X147838255Y-48898499D01*
X147951501Y-49011745D01*
X148040471Y-49144899D01*
X148101758Y-49292858D01*
X148133000Y-49449925D01*
X148133000Y-49610075D01*
X148101758Y-49767142D01*
X148040471Y-49915101D01*
X147951501Y-50048255D01*
X147838255Y-50161501D01*
X147705101Y-50250471D01*
X147557142Y-50311758D01*
X147400075Y-50343000D01*
X147239925Y-50343000D01*
X147082858Y-50311758D01*
X146934899Y-50250471D01*
X146801745Y-50161501D01*
X146688499Y-50048255D01*
X146599529Y-49915101D01*
X146538242Y-49767142D01*
X146507000Y-49610075D01*
X146507000Y-49449925D01*
X146538242Y-49292858D01*
X146599529Y-49144899D01*
X146688499Y-49011745D01*
X146801745Y-48898499D01*
X146934899Y-48809529D01*
X147082858Y-48748242D01*
X147239925Y-48717000D01*
X147400075Y-48717000D01*
X147557142Y-48748242D01*
X147557142Y-48748242D01*
G37*
G36*
X132317142Y-48748242D02*
G01*
X132465101Y-48809529D01*
X132598255Y-48898499D01*
X132711501Y-49011745D01*
X132800471Y-49144899D01*
X132861758Y-49292858D01*
X132893000Y-49449925D01*
X132893000Y-49610075D01*
X132861758Y-49767142D01*
X132800471Y-49915101D01*
X132711501Y-50048255D01*
X132598255Y-50161501D01*
X132465101Y-50250471D01*
X132317142Y-50311758D01*
X132160075Y-50343000D01*
X131999925Y-50343000D01*
X131842858Y-50311758D01*
X131694899Y-50250471D01*
X131561745Y-50161501D01*
X131448499Y-50048255D01*
X131359529Y-49915101D01*
X131298242Y-49767142D01*
X131267000Y-49610075D01*
X131267000Y-49449925D01*
X131298242Y-49292858D01*
X131359529Y-49144899D01*
X131448499Y-49011745D01*
X131561745Y-48898499D01*
X131694899Y-48809529D01*
X131842858Y-48748242D01*
X131999925Y-48717000D01*
X132160075Y-48717000D01*
X132317142Y-48748242D01*
X132317142Y-48748242D01*
G37*
G36*
X98185562Y-47523181D02*
G01*
X98220481Y-47533774D01*
X98252663Y-47550976D01*
X98280873Y-47574127D01*
X98304024Y-47602337D01*
X98321226Y-47634519D01*
X98331819Y-47669438D01*
X98336000Y-47711895D01*
X98336000Y-50078105D01*
X98331819Y-50120562D01*
X98321226Y-50155481D01*
X98304024Y-50187663D01*
X98280873Y-50215873D01*
X98252663Y-50239024D01*
X98220481Y-50256226D01*
X98185562Y-50266819D01*
X98143105Y-50271000D01*
X97001895Y-50271000D01*
X96959438Y-50266819D01*
X96924519Y-50256226D01*
X96892337Y-50239024D01*
X96864127Y-50215873D01*
X96840976Y-50187663D01*
X96823774Y-50155481D01*
X96813181Y-50120562D01*
X96809000Y-50078105D01*
X96809000Y-47711895D01*
X96813181Y-47669438D01*
X96823774Y-47634519D01*
X96840976Y-47602337D01*
X96864127Y-47574127D01*
X96892337Y-47550976D01*
X96924519Y-47533774D01*
X96959438Y-47523181D01*
X97001895Y-47519000D01*
X98143105Y-47519000D01*
X98185562Y-47523181D01*
X98185562Y-47523181D01*
G37*
G36*
X104535562Y-47523181D02*
G01*
X104570481Y-47533774D01*
X104602663Y-47550976D01*
X104630873Y-47574127D01*
X104654024Y-47602337D01*
X104671226Y-47634519D01*
X104681819Y-47669438D01*
X104686000Y-47711895D01*
X104686000Y-50078105D01*
X104681819Y-50120562D01*
X104671226Y-50155481D01*
X104654024Y-50187663D01*
X104630873Y-50215873D01*
X104602663Y-50239024D01*
X104570481Y-50256226D01*
X104535562Y-50266819D01*
X104493105Y-50271000D01*
X103351895Y-50271000D01*
X103309438Y-50266819D01*
X103274519Y-50256226D01*
X103242337Y-50239024D01*
X103214127Y-50215873D01*
X103190976Y-50187663D01*
X103173774Y-50155481D01*
X103163181Y-50120562D01*
X103159000Y-50078105D01*
X103159000Y-47711895D01*
X103163181Y-47669438D01*
X103173774Y-47634519D01*
X103190976Y-47602337D01*
X103214127Y-47574127D01*
X103242337Y-47550976D01*
X103274519Y-47533774D01*
X103309438Y-47523181D01*
X103351895Y-47519000D01*
X104493105Y-47519000D01*
X104535562Y-47523181D01*
X104535562Y-47523181D01*
G37*
G36*
X107510562Y-47523181D02*
G01*
X107545481Y-47533774D01*
X107577663Y-47550976D01*
X107605873Y-47574127D01*
X107629024Y-47602337D01*
X107646226Y-47634519D01*
X107656819Y-47669438D01*
X107661000Y-47711895D01*
X107661000Y-50078105D01*
X107656819Y-50120562D01*
X107646226Y-50155481D01*
X107629024Y-50187663D01*
X107605873Y-50215873D01*
X107577663Y-50239024D01*
X107545481Y-50256226D01*
X107510562Y-50266819D01*
X107468105Y-50271000D01*
X106326895Y-50271000D01*
X106284438Y-50266819D01*
X106249519Y-50256226D01*
X106217337Y-50239024D01*
X106189127Y-50215873D01*
X106165976Y-50187663D01*
X106148774Y-50155481D01*
X106138181Y-50120562D01*
X106134000Y-50078105D01*
X106134000Y-47711895D01*
X106138181Y-47669438D01*
X106148774Y-47634519D01*
X106165976Y-47602337D01*
X106189127Y-47574127D01*
X106217337Y-47550976D01*
X106249519Y-47533774D01*
X106284438Y-47523181D01*
X106326895Y-47519000D01*
X107468105Y-47519000D01*
X107510562Y-47523181D01*
X107510562Y-47523181D01*
G37*
G36*
X120210562Y-47523181D02*
G01*
X120245481Y-47533774D01*
X120277663Y-47550976D01*
X120305873Y-47574127D01*
X120329024Y-47602337D01*
X120346226Y-47634519D01*
X120356819Y-47669438D01*
X120361000Y-47711895D01*
X120361000Y-50078105D01*
X120356819Y-50120562D01*
X120346226Y-50155481D01*
X120329024Y-50187663D01*
X120305873Y-50215873D01*
X120277663Y-50239024D01*
X120245481Y-50256226D01*
X120210562Y-50266819D01*
X120168105Y-50271000D01*
X119026895Y-50271000D01*
X118984438Y-50266819D01*
X118949519Y-50256226D01*
X118917337Y-50239024D01*
X118889127Y-50215873D01*
X118865976Y-50187663D01*
X118848774Y-50155481D01*
X118838181Y-50120562D01*
X118834000Y-50078105D01*
X118834000Y-47711895D01*
X118838181Y-47669438D01*
X118848774Y-47634519D01*
X118865976Y-47602337D01*
X118889127Y-47574127D01*
X118917337Y-47550976D01*
X118949519Y-47533774D01*
X118984438Y-47523181D01*
X119026895Y-47519000D01*
X120168105Y-47519000D01*
X120210562Y-47523181D01*
X120210562Y-47523181D01*
G37*
G36*
X101160562Y-47523181D02*
G01*
X101195481Y-47533774D01*
X101227663Y-47550976D01*
X101255873Y-47574127D01*
X101279024Y-47602337D01*
X101296226Y-47634519D01*
X101306819Y-47669438D01*
X101311000Y-47711895D01*
X101311000Y-50078105D01*
X101306819Y-50120562D01*
X101296226Y-50155481D01*
X101279024Y-50187663D01*
X101255873Y-50215873D01*
X101227663Y-50239024D01*
X101195481Y-50256226D01*
X101160562Y-50266819D01*
X101118105Y-50271000D01*
X99976895Y-50271000D01*
X99934438Y-50266819D01*
X99899519Y-50256226D01*
X99867337Y-50239024D01*
X99839127Y-50215873D01*
X99815976Y-50187663D01*
X99798774Y-50155481D01*
X99788181Y-50120562D01*
X99784000Y-50078105D01*
X99784000Y-47711895D01*
X99788181Y-47669438D01*
X99798774Y-47634519D01*
X99815976Y-47602337D01*
X99839127Y-47574127D01*
X99867337Y-47550976D01*
X99899519Y-47533774D01*
X99934438Y-47523181D01*
X99976895Y-47519000D01*
X101118105Y-47519000D01*
X101160562Y-47523181D01*
X101160562Y-47523181D01*
G37*
G36*
X117235562Y-47523181D02*
G01*
X117270481Y-47533774D01*
X117302663Y-47550976D01*
X117330873Y-47574127D01*
X117354024Y-47602337D01*
X117371226Y-47634519D01*
X117381819Y-47669438D01*
X117386000Y-47711895D01*
X117386000Y-50078105D01*
X117381819Y-50120562D01*
X117371226Y-50155481D01*
X117354024Y-50187663D01*
X117330873Y-50215873D01*
X117302663Y-50239024D01*
X117270481Y-50256226D01*
X117235562Y-50266819D01*
X117193105Y-50271000D01*
X116051895Y-50271000D01*
X116009438Y-50266819D01*
X115974519Y-50256226D01*
X115942337Y-50239024D01*
X115914127Y-50215873D01*
X115890976Y-50187663D01*
X115873774Y-50155481D01*
X115863181Y-50120562D01*
X115859000Y-50078105D01*
X115859000Y-47711895D01*
X115863181Y-47669438D01*
X115873774Y-47634519D01*
X115890976Y-47602337D01*
X115914127Y-47574127D01*
X115942337Y-47550976D01*
X115974519Y-47533774D01*
X116009438Y-47523181D01*
X116051895Y-47519000D01*
X117193105Y-47519000D01*
X117235562Y-47523181D01*
X117235562Y-47523181D01*
G37*
G36*
X85045562Y-47283181D02*
G01*
X85080481Y-47293774D01*
X85112663Y-47310976D01*
X85140873Y-47334127D01*
X85164024Y-47362337D01*
X85181226Y-47394519D01*
X85191819Y-47429438D01*
X85196000Y-47471895D01*
X85196000Y-48613105D01*
X85191819Y-48655562D01*
X85181226Y-48690481D01*
X85164024Y-48722663D01*
X85140873Y-48750873D01*
X85112663Y-48774024D01*
X85080481Y-48791226D01*
X85045562Y-48801819D01*
X85003105Y-48806000D01*
X82636895Y-48806000D01*
X82594438Y-48801819D01*
X82559519Y-48791226D01*
X82527337Y-48774024D01*
X82499127Y-48750873D01*
X82475976Y-48722663D01*
X82458774Y-48690481D01*
X82448181Y-48655562D01*
X82444000Y-48613105D01*
X82444000Y-47471895D01*
X82448181Y-47429438D01*
X82458774Y-47394519D01*
X82475976Y-47362337D01*
X82499127Y-47334127D01*
X82527337Y-47310976D01*
X82559519Y-47293774D01*
X82594438Y-47283181D01*
X82636895Y-47279000D01*
X85003105Y-47279000D01*
X85045562Y-47283181D01*
X85045562Y-47283181D01*
G37*
G36*
X73164000Y-48458000D02*
G01*
X70262000Y-48458000D01*
X70262000Y-45556000D01*
X73164000Y-45556000D01*
X73164000Y-48458000D01*
X73164000Y-48458000D01*
G37*
G36*
X63464000Y-48458000D02*
G01*
X61162000Y-48458000D01*
X61162000Y-45556000D01*
X63464000Y-45556000D01*
X63464000Y-48458000D01*
X63464000Y-48458000D01*
G37*
G36*
X147557142Y-46208242D02*
G01*
X147705101Y-46269529D01*
X147838255Y-46358499D01*
X147951501Y-46471745D01*
X148040471Y-46604899D01*
X148101758Y-46752858D01*
X148133000Y-46909925D01*
X148133000Y-47070075D01*
X148101758Y-47227142D01*
X148040471Y-47375101D01*
X147951501Y-47508255D01*
X147838255Y-47621501D01*
X147705101Y-47710471D01*
X147557142Y-47771758D01*
X147400075Y-47803000D01*
X147239925Y-47803000D01*
X147082858Y-47771758D01*
X146934899Y-47710471D01*
X146801745Y-47621501D01*
X146688499Y-47508255D01*
X146599529Y-47375101D01*
X146538242Y-47227142D01*
X146507000Y-47070075D01*
X146507000Y-46909925D01*
X146538242Y-46752858D01*
X146599529Y-46604899D01*
X146688499Y-46471745D01*
X146801745Y-46358499D01*
X146934899Y-46269529D01*
X147082858Y-46208242D01*
X147239925Y-46177000D01*
X147400075Y-46177000D01*
X147557142Y-46208242D01*
X147557142Y-46208242D01*
G37*
G36*
X132317142Y-46208242D02*
G01*
X132465101Y-46269529D01*
X132598255Y-46358499D01*
X132711501Y-46471745D01*
X132800471Y-46604899D01*
X132861758Y-46752858D01*
X132893000Y-46909925D01*
X132893000Y-47070075D01*
X132861758Y-47227142D01*
X132800471Y-47375101D01*
X132711501Y-47508255D01*
X132598255Y-47621501D01*
X132465101Y-47710471D01*
X132317142Y-47771758D01*
X132160075Y-47803000D01*
X131999925Y-47803000D01*
X131842858Y-47771758D01*
X131694899Y-47710471D01*
X131561745Y-47621501D01*
X131448499Y-47508255D01*
X131359529Y-47375101D01*
X131298242Y-47227142D01*
X131267000Y-47070075D01*
X131267000Y-46909925D01*
X131298242Y-46752858D01*
X131359529Y-46604899D01*
X131448499Y-46471745D01*
X131561745Y-46358499D01*
X131694899Y-46269529D01*
X131842858Y-46208242D01*
X131999925Y-46177000D01*
X132160075Y-46177000D01*
X132317142Y-46208242D01*
X132317142Y-46208242D01*
G37*
G36*
X201490562Y-43078181D02*
G01*
X201525481Y-43088774D01*
X201557663Y-43105976D01*
X201585873Y-43129127D01*
X201609024Y-43157337D01*
X201626226Y-43189519D01*
X201636819Y-43224438D01*
X201641000Y-43266895D01*
X201641000Y-45633105D01*
X201636819Y-45675562D01*
X201626226Y-45710481D01*
X201609024Y-45742663D01*
X201585873Y-45770873D01*
X201557663Y-45794024D01*
X201525481Y-45811226D01*
X201490562Y-45821819D01*
X201448105Y-45826000D01*
X200306895Y-45826000D01*
X200264438Y-45821819D01*
X200229519Y-45811226D01*
X200197337Y-45794024D01*
X200169127Y-45770873D01*
X200145976Y-45742663D01*
X200128774Y-45710481D01*
X200118181Y-45675562D01*
X200114000Y-45633105D01*
X200114000Y-43266895D01*
X200118181Y-43224438D01*
X200128774Y-43189519D01*
X200145976Y-43157337D01*
X200169127Y-43129127D01*
X200197337Y-43105976D01*
X200229519Y-43088774D01*
X200264438Y-43078181D01*
X200306895Y-43074000D01*
X201448105Y-43074000D01*
X201490562Y-43078181D01*
X201490562Y-43078181D01*
G37*
G36*
X198515562Y-43078181D02*
G01*
X198550481Y-43088774D01*
X198582663Y-43105976D01*
X198610873Y-43129127D01*
X198634024Y-43157337D01*
X198651226Y-43189519D01*
X198661819Y-43224438D01*
X198666000Y-43266895D01*
X198666000Y-45633105D01*
X198661819Y-45675562D01*
X198651226Y-45710481D01*
X198634024Y-45742663D01*
X198610873Y-45770873D01*
X198582663Y-45794024D01*
X198550481Y-45811226D01*
X198515562Y-45821819D01*
X198473105Y-45826000D01*
X197331895Y-45826000D01*
X197289438Y-45821819D01*
X197254519Y-45811226D01*
X197222337Y-45794024D01*
X197194127Y-45770873D01*
X197170976Y-45742663D01*
X197153774Y-45710481D01*
X197143181Y-45675562D01*
X197139000Y-45633105D01*
X197139000Y-43266895D01*
X197143181Y-43224438D01*
X197153774Y-43189519D01*
X197170976Y-43157337D01*
X197194127Y-43129127D01*
X197222337Y-43105976D01*
X197254519Y-43088774D01*
X197289438Y-43078181D01*
X197331895Y-43074000D01*
X198473105Y-43074000D01*
X198515562Y-43078181D01*
X198515562Y-43078181D01*
G37*
G36*
X132317142Y-43668242D02*
G01*
X132465101Y-43729529D01*
X132598255Y-43818499D01*
X132711501Y-43931745D01*
X132800471Y-44064899D01*
X132861758Y-44212858D01*
X132893000Y-44369925D01*
X132893000Y-44530075D01*
X132861758Y-44687142D01*
X132800471Y-44835101D01*
X132711501Y-44968255D01*
X132598255Y-45081501D01*
X132465101Y-45170471D01*
X132317142Y-45231758D01*
X132160075Y-45263000D01*
X131999925Y-45263000D01*
X131842858Y-45231758D01*
X131694899Y-45170471D01*
X131561745Y-45081501D01*
X131448499Y-44968255D01*
X131359529Y-44835101D01*
X131298242Y-44687142D01*
X131267000Y-44530075D01*
X131267000Y-44369925D01*
X131298242Y-44212858D01*
X131359529Y-44064899D01*
X131448499Y-43931745D01*
X131561745Y-43818499D01*
X131694899Y-43729529D01*
X131842858Y-43668242D01*
X131999925Y-43637000D01*
X132160075Y-43637000D01*
X132317142Y-43668242D01*
X132317142Y-43668242D01*
G37*
G36*
X147557142Y-43668242D02*
G01*
X147705101Y-43729529D01*
X147838255Y-43818499D01*
X147951501Y-43931745D01*
X148040471Y-44064899D01*
X148101758Y-44212858D01*
X148133000Y-44369925D01*
X148133000Y-44530075D01*
X148101758Y-44687142D01*
X148040471Y-44835101D01*
X147951501Y-44968255D01*
X147838255Y-45081501D01*
X147705101Y-45170471D01*
X147557142Y-45231758D01*
X147400075Y-45263000D01*
X147239925Y-45263000D01*
X147082858Y-45231758D01*
X146934899Y-45170471D01*
X146801745Y-45081501D01*
X146688499Y-44968255D01*
X146599529Y-44835101D01*
X146538242Y-44687142D01*
X146507000Y-44530075D01*
X146507000Y-44369925D01*
X146538242Y-44212858D01*
X146599529Y-44064899D01*
X146688499Y-43931745D01*
X146801745Y-43818499D01*
X146934899Y-43729529D01*
X147082858Y-43668242D01*
X147239925Y-43637000D01*
X147400075Y-43637000D01*
X147557142Y-43668242D01*
X147557142Y-43668242D01*
G37*
G36*
X107510562Y-42443181D02*
G01*
X107545481Y-42453774D01*
X107577663Y-42470976D01*
X107605873Y-42494127D01*
X107629024Y-42522337D01*
X107646226Y-42554519D01*
X107656819Y-42589438D01*
X107661000Y-42631895D01*
X107661000Y-44998105D01*
X107656819Y-45040562D01*
X107646226Y-45075481D01*
X107629024Y-45107663D01*
X107605873Y-45135873D01*
X107577663Y-45159024D01*
X107545481Y-45176226D01*
X107510562Y-45186819D01*
X107468105Y-45191000D01*
X106326895Y-45191000D01*
X106284438Y-45186819D01*
X106249519Y-45176226D01*
X106217337Y-45159024D01*
X106189127Y-45135873D01*
X106165976Y-45107663D01*
X106148774Y-45075481D01*
X106138181Y-45040562D01*
X106134000Y-44998105D01*
X106134000Y-42631895D01*
X106138181Y-42589438D01*
X106148774Y-42554519D01*
X106165976Y-42522337D01*
X106189127Y-42494127D01*
X106217337Y-42470976D01*
X106249519Y-42453774D01*
X106284438Y-42443181D01*
X106326895Y-42439000D01*
X107468105Y-42439000D01*
X107510562Y-42443181D01*
X107510562Y-42443181D01*
G37*
G36*
X104535562Y-42443181D02*
G01*
X104570481Y-42453774D01*
X104602663Y-42470976D01*
X104630873Y-42494127D01*
X104654024Y-42522337D01*
X104671226Y-42554519D01*
X104681819Y-42589438D01*
X104686000Y-42631895D01*
X104686000Y-44998105D01*
X104681819Y-45040562D01*
X104671226Y-45075481D01*
X104654024Y-45107663D01*
X104630873Y-45135873D01*
X104602663Y-45159024D01*
X104570481Y-45176226D01*
X104535562Y-45186819D01*
X104493105Y-45191000D01*
X103351895Y-45191000D01*
X103309438Y-45186819D01*
X103274519Y-45176226D01*
X103242337Y-45159024D01*
X103214127Y-45135873D01*
X103190976Y-45107663D01*
X103173774Y-45075481D01*
X103163181Y-45040562D01*
X103159000Y-44998105D01*
X103159000Y-42631895D01*
X103163181Y-42589438D01*
X103173774Y-42554519D01*
X103190976Y-42522337D01*
X103214127Y-42494127D01*
X103242337Y-42470976D01*
X103274519Y-42453774D01*
X103309438Y-42443181D01*
X103351895Y-42439000D01*
X104493105Y-42439000D01*
X104535562Y-42443181D01*
X104535562Y-42443181D01*
G37*
G36*
X98185562Y-42443181D02*
G01*
X98220481Y-42453774D01*
X98252663Y-42470976D01*
X98280873Y-42494127D01*
X98304024Y-42522337D01*
X98321226Y-42554519D01*
X98331819Y-42589438D01*
X98336000Y-42631895D01*
X98336000Y-44998105D01*
X98331819Y-45040562D01*
X98321226Y-45075481D01*
X98304024Y-45107663D01*
X98280873Y-45135873D01*
X98252663Y-45159024D01*
X98220481Y-45176226D01*
X98185562Y-45186819D01*
X98143105Y-45191000D01*
X97001895Y-45191000D01*
X96959438Y-45186819D01*
X96924519Y-45176226D01*
X96892337Y-45159024D01*
X96864127Y-45135873D01*
X96840976Y-45107663D01*
X96823774Y-45075481D01*
X96813181Y-45040562D01*
X96809000Y-44998105D01*
X96809000Y-42631895D01*
X96813181Y-42589438D01*
X96823774Y-42554519D01*
X96840976Y-42522337D01*
X96864127Y-42494127D01*
X96892337Y-42470976D01*
X96924519Y-42453774D01*
X96959438Y-42443181D01*
X97001895Y-42439000D01*
X98143105Y-42439000D01*
X98185562Y-42443181D01*
X98185562Y-42443181D01*
G37*
G36*
X101160562Y-42443181D02*
G01*
X101195481Y-42453774D01*
X101227663Y-42470976D01*
X101255873Y-42494127D01*
X101279024Y-42522337D01*
X101296226Y-42554519D01*
X101306819Y-42589438D01*
X101311000Y-42631895D01*
X101311000Y-44998105D01*
X101306819Y-45040562D01*
X101296226Y-45075481D01*
X101279024Y-45107663D01*
X101255873Y-45135873D01*
X101227663Y-45159024D01*
X101195481Y-45176226D01*
X101160562Y-45186819D01*
X101118105Y-45191000D01*
X99976895Y-45191000D01*
X99934438Y-45186819D01*
X99899519Y-45176226D01*
X99867337Y-45159024D01*
X99839127Y-45135873D01*
X99815976Y-45107663D01*
X99798774Y-45075481D01*
X99788181Y-45040562D01*
X99784000Y-44998105D01*
X99784000Y-42631895D01*
X99788181Y-42589438D01*
X99798774Y-42554519D01*
X99815976Y-42522337D01*
X99839127Y-42494127D01*
X99867337Y-42470976D01*
X99899519Y-42453774D01*
X99934438Y-42443181D01*
X99976895Y-42439000D01*
X101118105Y-42439000D01*
X101160562Y-42443181D01*
X101160562Y-42443181D01*
G37*
G36*
X70526512Y-42410927D02*
G01*
X70675812Y-42440624D01*
X70839784Y-42508544D01*
X70987354Y-42607147D01*
X71112853Y-42732646D01*
X71211456Y-42880216D01*
X71279376Y-43044188D01*
X71314000Y-43218259D01*
X71314000Y-43395741D01*
X71279376Y-43569812D01*
X71211456Y-43733784D01*
X71112853Y-43881354D01*
X70987354Y-44006853D01*
X70839784Y-44105456D01*
X70675812Y-44173376D01*
X70526512Y-44203073D01*
X70501742Y-44208000D01*
X70324258Y-44208000D01*
X70299488Y-44203073D01*
X70150188Y-44173376D01*
X69986216Y-44105456D01*
X69838646Y-44006853D01*
X69713147Y-43881354D01*
X69614544Y-43733784D01*
X69546624Y-43569812D01*
X69512000Y-43395741D01*
X69512000Y-43218259D01*
X69546624Y-43044188D01*
X69614544Y-42880216D01*
X69713147Y-42732646D01*
X69838646Y-42607147D01*
X69986216Y-42508544D01*
X70150188Y-42440624D01*
X70299488Y-42410927D01*
X70324258Y-42406000D01*
X70501742Y-42406000D01*
X70526512Y-42410927D01*
X70526512Y-42410927D01*
G37*
G36*
X63526512Y-42410927D02*
G01*
X63675812Y-42440624D01*
X63839784Y-42508544D01*
X63987354Y-42607147D01*
X64112853Y-42732646D01*
X64211456Y-42880216D01*
X64279376Y-43044188D01*
X64314000Y-43218259D01*
X64314000Y-43395741D01*
X64279376Y-43569812D01*
X64211456Y-43733784D01*
X64112853Y-43881354D01*
X63987354Y-44006853D01*
X63839784Y-44105456D01*
X63675812Y-44173376D01*
X63526512Y-44203073D01*
X63501742Y-44208000D01*
X63324258Y-44208000D01*
X63299488Y-44203073D01*
X63150188Y-44173376D01*
X62986216Y-44105456D01*
X62838646Y-44006853D01*
X62713147Y-43881354D01*
X62614544Y-43733784D01*
X62546624Y-43569812D01*
X62512000Y-43395741D01*
X62512000Y-43218259D01*
X62546624Y-43044188D01*
X62614544Y-42880216D01*
X62713147Y-42732646D01*
X62838646Y-42607147D01*
X62986216Y-42508544D01*
X63150188Y-42440624D01*
X63299488Y-42410927D01*
X63324258Y-42406000D01*
X63501742Y-42406000D01*
X63526512Y-42410927D01*
X63526512Y-42410927D01*
G37*
G36*
X77064000Y-44008000D02*
G01*
X74362000Y-44008000D01*
X74362000Y-41106000D01*
X77064000Y-41106000D01*
X77064000Y-44008000D01*
X77064000Y-44008000D01*
G37*
G36*
X147557142Y-41128242D02*
G01*
X147705101Y-41189529D01*
X147838255Y-41278499D01*
X147951501Y-41391745D01*
X148040471Y-41524899D01*
X148101758Y-41672858D01*
X148133000Y-41829925D01*
X148133000Y-41990075D01*
X148101758Y-42147142D01*
X148040471Y-42295101D01*
X147951501Y-42428255D01*
X147838255Y-42541501D01*
X147705101Y-42630471D01*
X147557142Y-42691758D01*
X147400075Y-42723000D01*
X147239925Y-42723000D01*
X147082858Y-42691758D01*
X146934899Y-42630471D01*
X146801745Y-42541501D01*
X146688499Y-42428255D01*
X146599529Y-42295101D01*
X146538242Y-42147142D01*
X146507000Y-41990075D01*
X146507000Y-41829925D01*
X146538242Y-41672858D01*
X146599529Y-41524899D01*
X146688499Y-41391745D01*
X146801745Y-41278499D01*
X146934899Y-41189529D01*
X147082858Y-41128242D01*
X147239925Y-41097000D01*
X147400075Y-41097000D01*
X147557142Y-41128242D01*
X147557142Y-41128242D01*
G37*
G36*
X132317142Y-41128242D02*
G01*
X132465101Y-41189529D01*
X132598255Y-41278499D01*
X132711501Y-41391745D01*
X132800471Y-41524899D01*
X132861758Y-41672858D01*
X132893000Y-41829925D01*
X132893000Y-41990075D01*
X132861758Y-42147142D01*
X132800471Y-42295101D01*
X132711501Y-42428255D01*
X132598255Y-42541501D01*
X132465101Y-42630471D01*
X132317142Y-42691758D01*
X132160075Y-42723000D01*
X131999925Y-42723000D01*
X131842858Y-42691758D01*
X131694899Y-42630471D01*
X131561745Y-42541501D01*
X131448499Y-42428255D01*
X131359529Y-42295101D01*
X131298242Y-42147142D01*
X131267000Y-41990075D01*
X131267000Y-41829925D01*
X131298242Y-41672858D01*
X131359529Y-41524899D01*
X131448499Y-41391745D01*
X131561745Y-41278499D01*
X131694899Y-41189529D01*
X131842858Y-41128242D01*
X131999925Y-41097000D01*
X132160075Y-41097000D01*
X132317142Y-41128242D01*
X132317142Y-41128242D01*
G37*
G36*
X116561000Y-42451000D02*
G01*
X115359000Y-42451000D01*
X115359000Y-40099000D01*
X116561000Y-40099000D01*
X116561000Y-42451000D01*
X116561000Y-42451000D01*
G37*
G36*
X120861000Y-42451000D02*
G01*
X119659000Y-42451000D01*
X119659000Y-40099000D01*
X120861000Y-40099000D01*
X120861000Y-42451000D01*
X120861000Y-42451000D01*
G37*
G36*
X65464000Y-41058000D02*
G01*
X63162000Y-41058000D01*
X63162000Y-38156000D01*
X65464000Y-38156000D01*
X65464000Y-41058000D01*
X65464000Y-41058000D01*
G37*
G36*
X201490562Y-37998181D02*
G01*
X201525481Y-38008774D01*
X201557663Y-38025976D01*
X201585873Y-38049127D01*
X201609024Y-38077337D01*
X201626226Y-38109519D01*
X201636819Y-38144438D01*
X201641000Y-38186895D01*
X201641000Y-40553105D01*
X201636819Y-40595562D01*
X201626226Y-40630481D01*
X201609024Y-40662663D01*
X201585873Y-40690873D01*
X201557663Y-40714024D01*
X201525481Y-40731226D01*
X201490562Y-40741819D01*
X201448105Y-40746000D01*
X200306895Y-40746000D01*
X200264438Y-40741819D01*
X200229519Y-40731226D01*
X200197337Y-40714024D01*
X200169127Y-40690873D01*
X200145976Y-40662663D01*
X200128774Y-40630481D01*
X200118181Y-40595562D01*
X200114000Y-40553105D01*
X200114000Y-38186895D01*
X200118181Y-38144438D01*
X200128774Y-38109519D01*
X200145976Y-38077337D01*
X200169127Y-38049127D01*
X200197337Y-38025976D01*
X200229519Y-38008774D01*
X200264438Y-37998181D01*
X200306895Y-37994000D01*
X201448105Y-37994000D01*
X201490562Y-37998181D01*
X201490562Y-37998181D01*
G37*
G36*
X198515562Y-37998181D02*
G01*
X198550481Y-38008774D01*
X198582663Y-38025976D01*
X198610873Y-38049127D01*
X198634024Y-38077337D01*
X198651226Y-38109519D01*
X198661819Y-38144438D01*
X198666000Y-38186895D01*
X198666000Y-40553105D01*
X198661819Y-40595562D01*
X198651226Y-40630481D01*
X198634024Y-40662663D01*
X198610873Y-40690873D01*
X198582663Y-40714024D01*
X198550481Y-40731226D01*
X198515562Y-40741819D01*
X198473105Y-40746000D01*
X197331895Y-40746000D01*
X197289438Y-40741819D01*
X197254519Y-40731226D01*
X197222337Y-40714024D01*
X197194127Y-40690873D01*
X197170976Y-40662663D01*
X197153774Y-40630481D01*
X197143181Y-40595562D01*
X197139000Y-40553105D01*
X197139000Y-38186895D01*
X197143181Y-38144438D01*
X197153774Y-38109519D01*
X197170976Y-38077337D01*
X197194127Y-38049127D01*
X197222337Y-38025976D01*
X197254519Y-38008774D01*
X197289438Y-37998181D01*
X197331895Y-37994000D01*
X198473105Y-37994000D01*
X198515562Y-37998181D01*
X198515562Y-37998181D01*
G37*
G36*
X87056000Y-40271000D02*
G01*
X86304000Y-40271000D01*
X86304000Y-38469000D01*
X87056000Y-38469000D01*
X87056000Y-40271000D01*
X87056000Y-40271000D01*
G37*
G36*
X88956000Y-40271000D02*
G01*
X88204000Y-40271000D01*
X88204000Y-38469000D01*
X88956000Y-38469000D01*
X88956000Y-40271000D01*
X88956000Y-40271000D01*
G37*
G36*
X132317142Y-38588242D02*
G01*
X132465101Y-38649529D01*
X132598255Y-38738499D01*
X132711501Y-38851745D01*
X132800471Y-38984899D01*
X132861758Y-39132858D01*
X132893000Y-39289925D01*
X132893000Y-39450075D01*
X132861758Y-39607142D01*
X132800471Y-39755101D01*
X132711501Y-39888255D01*
X132598255Y-40001501D01*
X132465101Y-40090471D01*
X132317142Y-40151758D01*
X132160075Y-40183000D01*
X131999925Y-40183000D01*
X131842858Y-40151758D01*
X131694899Y-40090471D01*
X131561745Y-40001501D01*
X131448499Y-39888255D01*
X131359529Y-39755101D01*
X131298242Y-39607142D01*
X131267000Y-39450075D01*
X131267000Y-39289925D01*
X131298242Y-39132858D01*
X131359529Y-38984899D01*
X131448499Y-38851745D01*
X131561745Y-38738499D01*
X131694899Y-38649529D01*
X131842858Y-38588242D01*
X131999925Y-38557000D01*
X132160075Y-38557000D01*
X132317142Y-38588242D01*
X132317142Y-38588242D01*
G37*
G36*
X147557142Y-38588242D02*
G01*
X147705101Y-38649529D01*
X147838255Y-38738499D01*
X147951501Y-38851745D01*
X148040471Y-38984899D01*
X148101758Y-39132858D01*
X148133000Y-39289925D01*
X148133000Y-39450075D01*
X148101758Y-39607142D01*
X148040471Y-39755101D01*
X147951501Y-39888255D01*
X147838255Y-40001501D01*
X147705101Y-40090471D01*
X147557142Y-40151758D01*
X147400075Y-40183000D01*
X147239925Y-40183000D01*
X147082858Y-40151758D01*
X146934899Y-40090471D01*
X146801745Y-40001501D01*
X146688499Y-39888255D01*
X146599529Y-39755101D01*
X146538242Y-39607142D01*
X146507000Y-39450075D01*
X146507000Y-39289925D01*
X146538242Y-39132858D01*
X146599529Y-38984899D01*
X146688499Y-38851745D01*
X146801745Y-38738499D01*
X146934899Y-38649529D01*
X147082858Y-38588242D01*
X147239925Y-38557000D01*
X147400075Y-38557000D01*
X147557142Y-38588242D01*
X147557142Y-38588242D01*
G37*
G36*
X104535562Y-35458181D02*
G01*
X104570481Y-35468774D01*
X104602663Y-35485976D01*
X104630873Y-35509127D01*
X104654024Y-35537337D01*
X104671226Y-35569519D01*
X104681819Y-35604438D01*
X104686000Y-35646895D01*
X104686000Y-38013105D01*
X104681819Y-38055562D01*
X104671226Y-38090481D01*
X104654024Y-38122663D01*
X104630873Y-38150873D01*
X104602663Y-38174024D01*
X104570481Y-38191226D01*
X104535562Y-38201819D01*
X104493105Y-38206000D01*
X103351895Y-38206000D01*
X103309438Y-38201819D01*
X103274519Y-38191226D01*
X103242337Y-38174024D01*
X103214127Y-38150873D01*
X103190976Y-38122663D01*
X103173774Y-38090481D01*
X103163181Y-38055562D01*
X103159000Y-38013105D01*
X103159000Y-35646895D01*
X103163181Y-35604438D01*
X103173774Y-35569519D01*
X103190976Y-35537337D01*
X103214127Y-35509127D01*
X103242337Y-35485976D01*
X103274519Y-35468774D01*
X103309438Y-35458181D01*
X103351895Y-35454000D01*
X104493105Y-35454000D01*
X104535562Y-35458181D01*
X104535562Y-35458181D01*
G37*
G36*
X107510562Y-35458181D02*
G01*
X107545481Y-35468774D01*
X107577663Y-35485976D01*
X107605873Y-35509127D01*
X107629024Y-35537337D01*
X107646226Y-35569519D01*
X107656819Y-35604438D01*
X107661000Y-35646895D01*
X107661000Y-38013105D01*
X107656819Y-38055562D01*
X107646226Y-38090481D01*
X107629024Y-38122663D01*
X107605873Y-38150873D01*
X107577663Y-38174024D01*
X107545481Y-38191226D01*
X107510562Y-38201819D01*
X107468105Y-38206000D01*
X106326895Y-38206000D01*
X106284438Y-38201819D01*
X106249519Y-38191226D01*
X106217337Y-38174024D01*
X106189127Y-38150873D01*
X106165976Y-38122663D01*
X106148774Y-38090481D01*
X106138181Y-38055562D01*
X106134000Y-38013105D01*
X106134000Y-35646895D01*
X106138181Y-35604438D01*
X106148774Y-35569519D01*
X106165976Y-35537337D01*
X106189127Y-35509127D01*
X106217337Y-35485976D01*
X106249519Y-35468774D01*
X106284438Y-35458181D01*
X106326895Y-35454000D01*
X107468105Y-35454000D01*
X107510562Y-35458181D01*
X107510562Y-35458181D01*
G37*
G36*
X101160562Y-35458181D02*
G01*
X101195481Y-35468774D01*
X101227663Y-35485976D01*
X101255873Y-35509127D01*
X101279024Y-35537337D01*
X101296226Y-35569519D01*
X101306819Y-35604438D01*
X101311000Y-35646895D01*
X101311000Y-38013105D01*
X101306819Y-38055562D01*
X101296226Y-38090481D01*
X101279024Y-38122663D01*
X101255873Y-38150873D01*
X101227663Y-38174024D01*
X101195481Y-38191226D01*
X101160562Y-38201819D01*
X101118105Y-38206000D01*
X99976895Y-38206000D01*
X99934438Y-38201819D01*
X99899519Y-38191226D01*
X99867337Y-38174024D01*
X99839127Y-38150873D01*
X99815976Y-38122663D01*
X99798774Y-38090481D01*
X99788181Y-38055562D01*
X99784000Y-38013105D01*
X99784000Y-35646895D01*
X99788181Y-35604438D01*
X99798774Y-35569519D01*
X99815976Y-35537337D01*
X99839127Y-35509127D01*
X99867337Y-35485976D01*
X99899519Y-35468774D01*
X99934438Y-35458181D01*
X99976895Y-35454000D01*
X101118105Y-35454000D01*
X101160562Y-35458181D01*
X101160562Y-35458181D01*
G37*
G36*
X98185562Y-35458181D02*
G01*
X98220481Y-35468774D01*
X98252663Y-35485976D01*
X98280873Y-35509127D01*
X98304024Y-35537337D01*
X98321226Y-35569519D01*
X98331819Y-35604438D01*
X98336000Y-35646895D01*
X98336000Y-38013105D01*
X98331819Y-38055562D01*
X98321226Y-38090481D01*
X98304024Y-38122663D01*
X98280873Y-38150873D01*
X98252663Y-38174024D01*
X98220481Y-38191226D01*
X98185562Y-38201819D01*
X98143105Y-38206000D01*
X97001895Y-38206000D01*
X96959438Y-38201819D01*
X96924519Y-38191226D01*
X96892337Y-38174024D01*
X96864127Y-38150873D01*
X96840976Y-38122663D01*
X96823774Y-38090481D01*
X96813181Y-38055562D01*
X96809000Y-38013105D01*
X96809000Y-35646895D01*
X96813181Y-35604438D01*
X96823774Y-35569519D01*
X96840976Y-35537337D01*
X96864127Y-35509127D01*
X96892337Y-35485976D01*
X96924519Y-35468774D01*
X96959438Y-35458181D01*
X97001895Y-35454000D01*
X98143105Y-35454000D01*
X98185562Y-35458181D01*
X98185562Y-35458181D01*
G37*
G36*
X147557142Y-36048242D02*
G01*
X147705101Y-36109529D01*
X147838255Y-36198499D01*
X147951501Y-36311745D01*
X148040471Y-36444899D01*
X148101758Y-36592858D01*
X148133000Y-36749925D01*
X148133000Y-36910075D01*
X148101758Y-37067142D01*
X148040471Y-37215101D01*
X147951501Y-37348255D01*
X147838255Y-37461501D01*
X147705101Y-37550471D01*
X147557142Y-37611758D01*
X147400075Y-37643000D01*
X147239925Y-37643000D01*
X147082858Y-37611758D01*
X146934899Y-37550471D01*
X146801745Y-37461501D01*
X146688499Y-37348255D01*
X146599529Y-37215101D01*
X146538242Y-37067142D01*
X146507000Y-36910075D01*
X146507000Y-36749925D01*
X146538242Y-36592858D01*
X146599529Y-36444899D01*
X146688499Y-36311745D01*
X146801745Y-36198499D01*
X146934899Y-36109529D01*
X147082858Y-36048242D01*
X147239925Y-36017000D01*
X147400075Y-36017000D01*
X147557142Y-36048242D01*
X147557142Y-36048242D01*
G37*
G36*
X132317142Y-36048242D02*
G01*
X132465101Y-36109529D01*
X132598255Y-36198499D01*
X132711501Y-36311745D01*
X132800471Y-36444899D01*
X132861758Y-36592858D01*
X132893000Y-36749925D01*
X132893000Y-36910075D01*
X132861758Y-37067142D01*
X132800471Y-37215101D01*
X132711501Y-37348255D01*
X132598255Y-37461501D01*
X132465101Y-37550471D01*
X132317142Y-37611758D01*
X132160075Y-37643000D01*
X131999925Y-37643000D01*
X131842858Y-37611758D01*
X131694899Y-37550471D01*
X131561745Y-37461501D01*
X131448499Y-37348255D01*
X131359529Y-37215101D01*
X131298242Y-37067142D01*
X131267000Y-36910075D01*
X131267000Y-36749925D01*
X131298242Y-36592858D01*
X131359529Y-36444899D01*
X131448499Y-36311745D01*
X131561745Y-36198499D01*
X131694899Y-36109529D01*
X131842858Y-36048242D01*
X131999925Y-36017000D01*
X132160075Y-36017000D01*
X132317142Y-36048242D01*
X132317142Y-36048242D01*
G37*
G36*
X88956000Y-35191000D02*
G01*
X88204000Y-35191000D01*
X88204000Y-33389000D01*
X88956000Y-33389000D01*
X88956000Y-35191000D01*
X88956000Y-35191000D01*
G37*
G36*
X87056000Y-35191000D02*
G01*
X86304000Y-35191000D01*
X86304000Y-33389000D01*
X87056000Y-33389000D01*
X87056000Y-35191000D01*
X87056000Y-35191000D01*
G37*
G36*
X147557142Y-33508242D02*
G01*
X147705101Y-33569529D01*
X147838255Y-33658499D01*
X147951501Y-33771745D01*
X148040471Y-33904899D01*
X148101758Y-34052858D01*
X148133000Y-34209925D01*
X148133000Y-34370075D01*
X148101758Y-34527142D01*
X148040471Y-34675101D01*
X147951501Y-34808255D01*
X147838255Y-34921501D01*
X147705101Y-35010471D01*
X147557142Y-35071758D01*
X147400075Y-35103000D01*
X147239925Y-35103000D01*
X147082858Y-35071758D01*
X146934899Y-35010471D01*
X146801745Y-34921501D01*
X146688499Y-34808255D01*
X146599529Y-34675101D01*
X146538242Y-34527142D01*
X146507000Y-34370075D01*
X146507000Y-34209925D01*
X146538242Y-34052858D01*
X146599529Y-33904899D01*
X146688499Y-33771745D01*
X146801745Y-33658499D01*
X146934899Y-33569529D01*
X147082858Y-33508242D01*
X147239925Y-33477000D01*
X147400075Y-33477000D01*
X147557142Y-33508242D01*
X147557142Y-33508242D01*
G37*
G36*
X132317142Y-33508242D02*
G01*
X132465101Y-33569529D01*
X132598255Y-33658499D01*
X132711501Y-33771745D01*
X132800471Y-33904899D01*
X132861758Y-34052858D01*
X132893000Y-34209925D01*
X132893000Y-34370075D01*
X132861758Y-34527142D01*
X132800471Y-34675101D01*
X132711501Y-34808255D01*
X132598255Y-34921501D01*
X132465101Y-35010471D01*
X132317142Y-35071758D01*
X132160075Y-35103000D01*
X131999925Y-35103000D01*
X131842858Y-35071758D01*
X131694899Y-35010471D01*
X131561745Y-34921501D01*
X131448499Y-34808255D01*
X131359529Y-34675101D01*
X131298242Y-34527142D01*
X131267000Y-34370075D01*
X131267000Y-34209925D01*
X131298242Y-34052858D01*
X131359529Y-33904899D01*
X131448499Y-33771745D01*
X131561745Y-33658499D01*
X131694899Y-33569529D01*
X131842858Y-33508242D01*
X131999925Y-33477000D01*
X132160075Y-33477000D01*
X132317142Y-33508242D01*
X132317142Y-33508242D01*
G37*
G36*
X73164000Y-34938000D02*
G01*
X70262000Y-34938000D01*
X70262000Y-32036000D01*
X73164000Y-32036000D01*
X73164000Y-34938000D01*
X73164000Y-34938000D01*
G37*
G36*
X63464000Y-34938000D02*
G01*
X61162000Y-34938000D01*
X61162000Y-32036000D01*
X63464000Y-32036000D01*
X63464000Y-34938000D01*
X63464000Y-34938000D01*
G37*
G36*
X204051000Y-33871000D02*
G01*
X202349000Y-33871000D01*
X202349000Y-32169000D01*
X204051000Y-32169000D01*
X204051000Y-33871000D01*
X204051000Y-33871000D01*
G37*
G36*
X212608228Y-32201703D02*
G01*
X212763100Y-32265853D01*
X212902481Y-32358985D01*
X213021015Y-32477519D01*
X213114147Y-32616900D01*
X213178297Y-32771772D01*
X213211000Y-32936184D01*
X213211000Y-33103816D01*
X213178297Y-33268228D01*
X213114147Y-33423100D01*
X213021015Y-33562481D01*
X212902481Y-33681015D01*
X212763100Y-33774147D01*
X212608228Y-33838297D01*
X212443816Y-33871000D01*
X212276184Y-33871000D01*
X212111772Y-33838297D01*
X211956900Y-33774147D01*
X211817519Y-33681015D01*
X211698985Y-33562481D01*
X211605853Y-33423100D01*
X211541703Y-33268228D01*
X211509000Y-33103816D01*
X211509000Y-32936184D01*
X211541703Y-32771772D01*
X211605853Y-32616900D01*
X211698985Y-32477519D01*
X211817519Y-32358985D01*
X211956900Y-32265853D01*
X212111772Y-32201703D01*
X212276184Y-32169000D01*
X212443816Y-32169000D01*
X212608228Y-32201703D01*
X212608228Y-32201703D01*
G37*
G36*
X210318228Y-32201703D02*
G01*
X210473100Y-32265853D01*
X210612481Y-32358985D01*
X210731015Y-32477519D01*
X210824147Y-32616900D01*
X210888297Y-32771772D01*
X210921000Y-32936184D01*
X210921000Y-33103816D01*
X210888297Y-33268228D01*
X210824147Y-33423100D01*
X210731015Y-33562481D01*
X210612481Y-33681015D01*
X210473100Y-33774147D01*
X210318228Y-33838297D01*
X210153816Y-33871000D01*
X209986184Y-33871000D01*
X209821772Y-33838297D01*
X209666900Y-33774147D01*
X209527519Y-33681015D01*
X209408985Y-33562481D01*
X209315853Y-33423100D01*
X209251703Y-33268228D01*
X209219000Y-33103816D01*
X209219000Y-32936184D01*
X209251703Y-32771772D01*
X209315853Y-32616900D01*
X209408985Y-32477519D01*
X209527519Y-32358985D01*
X209666900Y-32265853D01*
X209821772Y-32201703D01*
X209986184Y-32169000D01*
X210153816Y-32169000D01*
X210318228Y-32201703D01*
X210318228Y-32201703D01*
G37*
G36*
X208028228Y-32201703D02*
G01*
X208183100Y-32265853D01*
X208322481Y-32358985D01*
X208441015Y-32477519D01*
X208534147Y-32616900D01*
X208598297Y-32771772D01*
X208631000Y-32936184D01*
X208631000Y-33103816D01*
X208598297Y-33268228D01*
X208534147Y-33423100D01*
X208441015Y-33562481D01*
X208322481Y-33681015D01*
X208183100Y-33774147D01*
X208028228Y-33838297D01*
X207863816Y-33871000D01*
X207696184Y-33871000D01*
X207531772Y-33838297D01*
X207376900Y-33774147D01*
X207237519Y-33681015D01*
X207118985Y-33562481D01*
X207025853Y-33423100D01*
X206961703Y-33268228D01*
X206929000Y-33103816D01*
X206929000Y-32936184D01*
X206961703Y-32771772D01*
X207025853Y-32616900D01*
X207118985Y-32477519D01*
X207237519Y-32358985D01*
X207376900Y-32265853D01*
X207531772Y-32201703D01*
X207696184Y-32169000D01*
X207863816Y-32169000D01*
X208028228Y-32201703D01*
X208028228Y-32201703D01*
G37*
G36*
X205738228Y-32201703D02*
G01*
X205893100Y-32265853D01*
X206032481Y-32358985D01*
X206151015Y-32477519D01*
X206244147Y-32616900D01*
X206308297Y-32771772D01*
X206341000Y-32936184D01*
X206341000Y-33103816D01*
X206308297Y-33268228D01*
X206244147Y-33423100D01*
X206151015Y-33562481D01*
X206032481Y-33681015D01*
X205893100Y-33774147D01*
X205738228Y-33838297D01*
X205573816Y-33871000D01*
X205406184Y-33871000D01*
X205241772Y-33838297D01*
X205086900Y-33774147D01*
X204947519Y-33681015D01*
X204828985Y-33562481D01*
X204735853Y-33423100D01*
X204671703Y-33268228D01*
X204639000Y-33103816D01*
X204639000Y-32936184D01*
X204671703Y-32771772D01*
X204735853Y-32616900D01*
X204828985Y-32477519D01*
X204947519Y-32358985D01*
X205086900Y-32265853D01*
X205241772Y-32201703D01*
X205406184Y-32169000D01*
X205573816Y-32169000D01*
X205738228Y-32201703D01*
X205738228Y-32201703D01*
G37*
G36*
X220613254Y-29627818D02*
G01*
X220855735Y-29728257D01*
X220986513Y-29782427D01*
X221322436Y-30006884D01*
X221608116Y-30292564D01*
X221803821Y-30585456D01*
X221832574Y-30628489D01*
X221987182Y-31001746D01*
X222066000Y-31397993D01*
X222066000Y-31802007D01*
X221987182Y-32198254D01*
X221849040Y-32531758D01*
X221832573Y-32571513D01*
X221608116Y-32907436D01*
X221322436Y-33193116D01*
X220986513Y-33417573D01*
X220986512Y-33417574D01*
X220986511Y-33417574D01*
X220613254Y-33572182D01*
X220217007Y-33651000D01*
X219812993Y-33651000D01*
X219416746Y-33572182D01*
X219043489Y-33417574D01*
X219043488Y-33417574D01*
X219043487Y-33417573D01*
X218707564Y-33193116D01*
X218421884Y-32907436D01*
X218197427Y-32571513D01*
X218180960Y-32531758D01*
X218042818Y-32198254D01*
X217964000Y-31802007D01*
X217964000Y-31397993D01*
X218042818Y-31001746D01*
X218197426Y-30628489D01*
X218226180Y-30585456D01*
X218421884Y-30292564D01*
X218707564Y-30006884D01*
X219043487Y-29782427D01*
X219174265Y-29728257D01*
X219416746Y-29627818D01*
X219812993Y-29549000D01*
X220217007Y-29549000D01*
X220613254Y-29627818D01*
X220613254Y-29627818D01*
G37*
G36*
X195613254Y-29627818D02*
G01*
X195855735Y-29728257D01*
X195986513Y-29782427D01*
X196322436Y-30006884D01*
X196608116Y-30292564D01*
X196803821Y-30585456D01*
X196832574Y-30628489D01*
X196987182Y-31001746D01*
X197066000Y-31397993D01*
X197066000Y-31802007D01*
X196987182Y-32198254D01*
X196849040Y-32531758D01*
X196832573Y-32571513D01*
X196608116Y-32907436D01*
X196322436Y-33193116D01*
X195986513Y-33417573D01*
X195986512Y-33417574D01*
X195986511Y-33417574D01*
X195613254Y-33572182D01*
X195217007Y-33651000D01*
X194812993Y-33651000D01*
X194416746Y-33572182D01*
X194043489Y-33417574D01*
X194043488Y-33417574D01*
X194043487Y-33417573D01*
X193707564Y-33193116D01*
X193421884Y-32907436D01*
X193197427Y-32571513D01*
X193180960Y-32531758D01*
X193042818Y-32198254D01*
X192964000Y-31802007D01*
X192964000Y-31397993D01*
X193042818Y-31001746D01*
X193197426Y-30628489D01*
X193226180Y-30585456D01*
X193421884Y-30292564D01*
X193707564Y-30006884D01*
X194043487Y-29782427D01*
X194174265Y-29728257D01*
X194416746Y-29627818D01*
X194812993Y-29549000D01*
X195217007Y-29549000D01*
X195613254Y-29627818D01*
X195613254Y-29627818D01*
G37*
G36*
X132317142Y-30968242D02*
G01*
X132465101Y-31029529D01*
X132598255Y-31118499D01*
X132711501Y-31231745D01*
X132800471Y-31364899D01*
X132861758Y-31512858D01*
X132893000Y-31669925D01*
X132893000Y-31830075D01*
X132861758Y-31987142D01*
X132800471Y-32135101D01*
X132711501Y-32268255D01*
X132598255Y-32381501D01*
X132465101Y-32470471D01*
X132317142Y-32531758D01*
X132160075Y-32563000D01*
X131999925Y-32563000D01*
X131842858Y-32531758D01*
X131694899Y-32470471D01*
X131561745Y-32381501D01*
X131448499Y-32268255D01*
X131359529Y-32135101D01*
X131298242Y-31987142D01*
X131267000Y-31830075D01*
X131267000Y-31669925D01*
X131298242Y-31512858D01*
X131359529Y-31364899D01*
X131448499Y-31231745D01*
X131561745Y-31118499D01*
X131694899Y-31029529D01*
X131842858Y-30968242D01*
X131999925Y-30937000D01*
X132160075Y-30937000D01*
X132317142Y-30968242D01*
X132317142Y-30968242D01*
G37*
G36*
X147557142Y-30968242D02*
G01*
X147705101Y-31029529D01*
X147838255Y-31118499D01*
X147951501Y-31231745D01*
X148040471Y-31364899D01*
X148101758Y-31512858D01*
X148133000Y-31669925D01*
X148133000Y-31830075D01*
X148101758Y-31987142D01*
X148040471Y-32135101D01*
X147951501Y-32268255D01*
X147838255Y-32381501D01*
X147705101Y-32470471D01*
X147557142Y-32531758D01*
X147400075Y-32563000D01*
X147239925Y-32563000D01*
X147082858Y-32531758D01*
X146934899Y-32470471D01*
X146801745Y-32381501D01*
X146688499Y-32268255D01*
X146599529Y-32135101D01*
X146538242Y-31987142D01*
X146507000Y-31830075D01*
X146507000Y-31669925D01*
X146538242Y-31512858D01*
X146599529Y-31364899D01*
X146688499Y-31231745D01*
X146801745Y-31118499D01*
X146934899Y-31029529D01*
X147082858Y-30968242D01*
X147239925Y-30937000D01*
X147400075Y-30937000D01*
X147557142Y-30968242D01*
X147557142Y-30968242D01*
G37*
G36*
X202303228Y-30221703D02*
G01*
X202458100Y-30285853D01*
X202597481Y-30378985D01*
X202716015Y-30497519D01*
X202809147Y-30636900D01*
X202873297Y-30791772D01*
X202906000Y-30956184D01*
X202906000Y-31123816D01*
X202873297Y-31288228D01*
X202809147Y-31443100D01*
X202716015Y-31582481D01*
X202597481Y-31701015D01*
X202458100Y-31794147D01*
X202303228Y-31858297D01*
X202138816Y-31891000D01*
X201971184Y-31891000D01*
X201806772Y-31858297D01*
X201651900Y-31794147D01*
X201512519Y-31701015D01*
X201393985Y-31582481D01*
X201300853Y-31443100D01*
X201236703Y-31288228D01*
X201204000Y-31123816D01*
X201204000Y-30956184D01*
X201236703Y-30791772D01*
X201300853Y-30636900D01*
X201393985Y-30497519D01*
X201512519Y-30378985D01*
X201651900Y-30285853D01*
X201806772Y-30221703D01*
X201971184Y-30189000D01*
X202138816Y-30189000D01*
X202303228Y-30221703D01*
X202303228Y-30221703D01*
G37*
G36*
X211463228Y-30221703D02*
G01*
X211618100Y-30285853D01*
X211757481Y-30378985D01*
X211876015Y-30497519D01*
X211969147Y-30636900D01*
X212033297Y-30791772D01*
X212066000Y-30956184D01*
X212066000Y-31123816D01*
X212033297Y-31288228D01*
X211969147Y-31443100D01*
X211876015Y-31582481D01*
X211757481Y-31701015D01*
X211618100Y-31794147D01*
X211463228Y-31858297D01*
X211298816Y-31891000D01*
X211131184Y-31891000D01*
X210966772Y-31858297D01*
X210811900Y-31794147D01*
X210672519Y-31701015D01*
X210553985Y-31582481D01*
X210460853Y-31443100D01*
X210396703Y-31288228D01*
X210364000Y-31123816D01*
X210364000Y-30956184D01*
X210396703Y-30791772D01*
X210460853Y-30636900D01*
X210553985Y-30497519D01*
X210672519Y-30378985D01*
X210811900Y-30285853D01*
X210966772Y-30221703D01*
X211131184Y-30189000D01*
X211298816Y-30189000D01*
X211463228Y-30221703D01*
X211463228Y-30221703D01*
G37*
G36*
X209173228Y-30221703D02*
G01*
X209328100Y-30285853D01*
X209467481Y-30378985D01*
X209586015Y-30497519D01*
X209679147Y-30636900D01*
X209743297Y-30791772D01*
X209776000Y-30956184D01*
X209776000Y-31123816D01*
X209743297Y-31288228D01*
X209679147Y-31443100D01*
X209586015Y-31582481D01*
X209467481Y-31701015D01*
X209328100Y-31794147D01*
X209173228Y-31858297D01*
X209008816Y-31891000D01*
X208841184Y-31891000D01*
X208676772Y-31858297D01*
X208521900Y-31794147D01*
X208382519Y-31701015D01*
X208263985Y-31582481D01*
X208170853Y-31443100D01*
X208106703Y-31288228D01*
X208074000Y-31123816D01*
X208074000Y-30956184D01*
X208106703Y-30791772D01*
X208170853Y-30636900D01*
X208263985Y-30497519D01*
X208382519Y-30378985D01*
X208521900Y-30285853D01*
X208676772Y-30221703D01*
X208841184Y-30189000D01*
X209008816Y-30189000D01*
X209173228Y-30221703D01*
X209173228Y-30221703D01*
G37*
G36*
X206883228Y-30221703D02*
G01*
X207038100Y-30285853D01*
X207177481Y-30378985D01*
X207296015Y-30497519D01*
X207389147Y-30636900D01*
X207453297Y-30791772D01*
X207486000Y-30956184D01*
X207486000Y-31123816D01*
X207453297Y-31288228D01*
X207389147Y-31443100D01*
X207296015Y-31582481D01*
X207177481Y-31701015D01*
X207038100Y-31794147D01*
X206883228Y-31858297D01*
X206718816Y-31891000D01*
X206551184Y-31891000D01*
X206386772Y-31858297D01*
X206231900Y-31794147D01*
X206092519Y-31701015D01*
X205973985Y-31582481D01*
X205880853Y-31443100D01*
X205816703Y-31288228D01*
X205784000Y-31123816D01*
X205784000Y-30956184D01*
X205816703Y-30791772D01*
X205880853Y-30636900D01*
X205973985Y-30497519D01*
X206092519Y-30378985D01*
X206231900Y-30285853D01*
X206386772Y-30221703D01*
X206551184Y-30189000D01*
X206718816Y-30189000D01*
X206883228Y-30221703D01*
X206883228Y-30221703D01*
G37*
G36*
X204593228Y-30221703D02*
G01*
X204748100Y-30285853D01*
X204887481Y-30378985D01*
X205006015Y-30497519D01*
X205099147Y-30636900D01*
X205163297Y-30791772D01*
X205196000Y-30956184D01*
X205196000Y-31123816D01*
X205163297Y-31288228D01*
X205099147Y-31443100D01*
X205006015Y-31582481D01*
X204887481Y-31701015D01*
X204748100Y-31794147D01*
X204593228Y-31858297D01*
X204428816Y-31891000D01*
X204261184Y-31891000D01*
X204096772Y-31858297D01*
X203941900Y-31794147D01*
X203802519Y-31701015D01*
X203683985Y-31582481D01*
X203590853Y-31443100D01*
X203526703Y-31288228D01*
X203494000Y-31123816D01*
X203494000Y-30956184D01*
X203526703Y-30791772D01*
X203590853Y-30636900D01*
X203683985Y-30497519D01*
X203802519Y-30378985D01*
X203941900Y-30285853D01*
X204096772Y-30221703D01*
X204261184Y-30189000D01*
X204428816Y-30189000D01*
X204593228Y-30221703D01*
X204593228Y-30221703D01*
G37*
G36*
X98185562Y-29108181D02*
G01*
X98220481Y-29118774D01*
X98252663Y-29135976D01*
X98280873Y-29159127D01*
X98304024Y-29187337D01*
X98321226Y-29219519D01*
X98331819Y-29254438D01*
X98336000Y-29296895D01*
X98336000Y-31663105D01*
X98331819Y-31705562D01*
X98321226Y-31740481D01*
X98304024Y-31772663D01*
X98280873Y-31800873D01*
X98252663Y-31824024D01*
X98220481Y-31841226D01*
X98185562Y-31851819D01*
X98143105Y-31856000D01*
X97001895Y-31856000D01*
X96959438Y-31851819D01*
X96924519Y-31841226D01*
X96892337Y-31824024D01*
X96864127Y-31800873D01*
X96840976Y-31772663D01*
X96823774Y-31740481D01*
X96813181Y-31705562D01*
X96809000Y-31663105D01*
X96809000Y-29296895D01*
X96813181Y-29254438D01*
X96823774Y-29219519D01*
X96840976Y-29187337D01*
X96864127Y-29159127D01*
X96892337Y-29135976D01*
X96924519Y-29118774D01*
X96959438Y-29108181D01*
X97001895Y-29104000D01*
X98143105Y-29104000D01*
X98185562Y-29108181D01*
X98185562Y-29108181D01*
G37*
G36*
X101160562Y-29108181D02*
G01*
X101195481Y-29118774D01*
X101227663Y-29135976D01*
X101255873Y-29159127D01*
X101279024Y-29187337D01*
X101296226Y-29219519D01*
X101306819Y-29254438D01*
X101311000Y-29296895D01*
X101311000Y-31663105D01*
X101306819Y-31705562D01*
X101296226Y-31740481D01*
X101279024Y-31772663D01*
X101255873Y-31800873D01*
X101227663Y-31824024D01*
X101195481Y-31841226D01*
X101160562Y-31851819D01*
X101118105Y-31856000D01*
X99976895Y-31856000D01*
X99934438Y-31851819D01*
X99899519Y-31841226D01*
X99867337Y-31824024D01*
X99839127Y-31800873D01*
X99815976Y-31772663D01*
X99798774Y-31740481D01*
X99788181Y-31705562D01*
X99784000Y-31663105D01*
X99784000Y-29296895D01*
X99788181Y-29254438D01*
X99798774Y-29219519D01*
X99815976Y-29187337D01*
X99839127Y-29159127D01*
X99867337Y-29135976D01*
X99899519Y-29118774D01*
X99934438Y-29108181D01*
X99976895Y-29104000D01*
X101118105Y-29104000D01*
X101160562Y-29108181D01*
X101160562Y-29108181D01*
G37*
G36*
X104535562Y-29108181D02*
G01*
X104570481Y-29118774D01*
X104602663Y-29135976D01*
X104630873Y-29159127D01*
X104654024Y-29187337D01*
X104671226Y-29219519D01*
X104681819Y-29254438D01*
X104686000Y-29296895D01*
X104686000Y-31663105D01*
X104681819Y-31705562D01*
X104671226Y-31740481D01*
X104654024Y-31772663D01*
X104630873Y-31800873D01*
X104602663Y-31824024D01*
X104570481Y-31841226D01*
X104535562Y-31851819D01*
X104493105Y-31856000D01*
X103351895Y-31856000D01*
X103309438Y-31851819D01*
X103274519Y-31841226D01*
X103242337Y-31824024D01*
X103214127Y-31800873D01*
X103190976Y-31772663D01*
X103173774Y-31740481D01*
X103163181Y-31705562D01*
X103159000Y-31663105D01*
X103159000Y-29296895D01*
X103163181Y-29254438D01*
X103173774Y-29219519D01*
X103190976Y-29187337D01*
X103214127Y-29159127D01*
X103242337Y-29135976D01*
X103274519Y-29118774D01*
X103309438Y-29108181D01*
X103351895Y-29104000D01*
X104493105Y-29104000D01*
X104535562Y-29108181D01*
X104535562Y-29108181D01*
G37*
G36*
X107510562Y-29108181D02*
G01*
X107545481Y-29118774D01*
X107577663Y-29135976D01*
X107605873Y-29159127D01*
X107629024Y-29187337D01*
X107646226Y-29219519D01*
X107656819Y-29254438D01*
X107661000Y-29296895D01*
X107661000Y-31663105D01*
X107656819Y-31705562D01*
X107646226Y-31740481D01*
X107629024Y-31772663D01*
X107605873Y-31800873D01*
X107577663Y-31824024D01*
X107545481Y-31841226D01*
X107510562Y-31851819D01*
X107468105Y-31856000D01*
X106326895Y-31856000D01*
X106284438Y-31851819D01*
X106249519Y-31841226D01*
X106217337Y-31824024D01*
X106189127Y-31800873D01*
X106165976Y-31772663D01*
X106148774Y-31740481D01*
X106138181Y-31705562D01*
X106134000Y-31663105D01*
X106134000Y-29296895D01*
X106138181Y-29254438D01*
X106148774Y-29219519D01*
X106165976Y-29187337D01*
X106189127Y-29159127D01*
X106217337Y-29135976D01*
X106249519Y-29118774D01*
X106284438Y-29108181D01*
X106326895Y-29104000D01*
X107468105Y-29104000D01*
X107510562Y-29108181D01*
X107510562Y-29108181D01*
G37*
G36*
X70526512Y-28890927D02*
G01*
X70675812Y-28920624D01*
X70839784Y-28988544D01*
X70987354Y-29087147D01*
X71112853Y-29212646D01*
X71211456Y-29360216D01*
X71279376Y-29524188D01*
X71314000Y-29698259D01*
X71314000Y-29875741D01*
X71279376Y-30049812D01*
X71211456Y-30213784D01*
X71112853Y-30361354D01*
X70987354Y-30486853D01*
X70839784Y-30585456D01*
X70675812Y-30653376D01*
X70526512Y-30683073D01*
X70501742Y-30688000D01*
X70324258Y-30688000D01*
X70299488Y-30683073D01*
X70150188Y-30653376D01*
X69986216Y-30585456D01*
X69838646Y-30486853D01*
X69713147Y-30361354D01*
X69614544Y-30213784D01*
X69546624Y-30049812D01*
X69512000Y-29875741D01*
X69512000Y-29698259D01*
X69546624Y-29524188D01*
X69614544Y-29360216D01*
X69713147Y-29212646D01*
X69838646Y-29087147D01*
X69986216Y-28988544D01*
X70150188Y-28920624D01*
X70299488Y-28890927D01*
X70324258Y-28886000D01*
X70501742Y-28886000D01*
X70526512Y-28890927D01*
X70526512Y-28890927D01*
G37*
G36*
X63526512Y-28890927D02*
G01*
X63675812Y-28920624D01*
X63839784Y-28988544D01*
X63987354Y-29087147D01*
X64112853Y-29212646D01*
X64211456Y-29360216D01*
X64279376Y-29524188D01*
X64314000Y-29698259D01*
X64314000Y-29875741D01*
X64279376Y-30049812D01*
X64211456Y-30213784D01*
X64112853Y-30361354D01*
X63987354Y-30486853D01*
X63839784Y-30585456D01*
X63675812Y-30653376D01*
X63526512Y-30683073D01*
X63501742Y-30688000D01*
X63324258Y-30688000D01*
X63299488Y-30683073D01*
X63150188Y-30653376D01*
X62986216Y-30585456D01*
X62838646Y-30486853D01*
X62713147Y-30361354D01*
X62614544Y-30213784D01*
X62546624Y-30049812D01*
X62512000Y-29875741D01*
X62512000Y-29698259D01*
X62546624Y-29524188D01*
X62614544Y-29360216D01*
X62713147Y-29212646D01*
X62838646Y-29087147D01*
X62986216Y-28988544D01*
X63150188Y-28920624D01*
X63299488Y-28890927D01*
X63324258Y-28886000D01*
X63501742Y-28886000D01*
X63526512Y-28890927D01*
X63526512Y-28890927D01*
G37*
G36*
X77064000Y-30488000D02*
G01*
X74362000Y-30488000D01*
X74362000Y-27586000D01*
X77064000Y-27586000D01*
X77064000Y-30488000D01*
X77064000Y-30488000D01*
G37*
G36*
X132317142Y-28428242D02*
G01*
X132465101Y-28489529D01*
X132598255Y-28578499D01*
X132711501Y-28691745D01*
X132800471Y-28824899D01*
X132861758Y-28972858D01*
X132893000Y-29129925D01*
X132893000Y-29290075D01*
X132861758Y-29447142D01*
X132800471Y-29595101D01*
X132711501Y-29728255D01*
X132598255Y-29841501D01*
X132465101Y-29930471D01*
X132317142Y-29991758D01*
X132160075Y-30023000D01*
X131999925Y-30023000D01*
X131842858Y-29991758D01*
X131694899Y-29930471D01*
X131561745Y-29841501D01*
X131448499Y-29728255D01*
X131359529Y-29595101D01*
X131298242Y-29447142D01*
X131267000Y-29290075D01*
X131267000Y-29129925D01*
X131298242Y-28972858D01*
X131359529Y-28824899D01*
X131448499Y-28691745D01*
X131561745Y-28578499D01*
X131694899Y-28489529D01*
X131842858Y-28428242D01*
X131999925Y-28397000D01*
X132160075Y-28397000D01*
X132317142Y-28428242D01*
X132317142Y-28428242D01*
G37*
G36*
X147557142Y-28428242D02*
G01*
X147705101Y-28489529D01*
X147838255Y-28578499D01*
X147951501Y-28691745D01*
X148040471Y-28824899D01*
X148101758Y-28972858D01*
X148133000Y-29129925D01*
X148133000Y-29290075D01*
X148101758Y-29447142D01*
X148040471Y-29595101D01*
X147951501Y-29728255D01*
X147838255Y-29841501D01*
X147705101Y-29930471D01*
X147557142Y-29991758D01*
X147400075Y-30023000D01*
X147239925Y-30023000D01*
X147082858Y-29991758D01*
X146934899Y-29930471D01*
X146801745Y-29841501D01*
X146688499Y-29728255D01*
X146599529Y-29595101D01*
X146538242Y-29447142D01*
X146507000Y-29290075D01*
X146507000Y-29129925D01*
X146538242Y-28972858D01*
X146599529Y-28824899D01*
X146688499Y-28691745D01*
X146801745Y-28578499D01*
X146934899Y-28489529D01*
X147082858Y-28428242D01*
X147239925Y-28397000D01*
X147400075Y-28397000D01*
X147557142Y-28428242D01*
X147557142Y-28428242D01*
G37*
G36*
X205738228Y-28241703D02*
G01*
X205893100Y-28305853D01*
X206032481Y-28398985D01*
X206151015Y-28517519D01*
X206244147Y-28656900D01*
X206308297Y-28811772D01*
X206341000Y-28976184D01*
X206341000Y-29143816D01*
X206308297Y-29308228D01*
X206244147Y-29463100D01*
X206151015Y-29602481D01*
X206032481Y-29721015D01*
X205893100Y-29814147D01*
X205738228Y-29878297D01*
X205573816Y-29911000D01*
X205406184Y-29911000D01*
X205241772Y-29878297D01*
X205086900Y-29814147D01*
X204947519Y-29721015D01*
X204828985Y-29602481D01*
X204735853Y-29463100D01*
X204671703Y-29308228D01*
X204639000Y-29143816D01*
X204639000Y-28976184D01*
X204671703Y-28811772D01*
X204735853Y-28656900D01*
X204828985Y-28517519D01*
X204947519Y-28398985D01*
X205086900Y-28305853D01*
X205241772Y-28241703D01*
X205406184Y-28209000D01*
X205573816Y-28209000D01*
X205738228Y-28241703D01*
X205738228Y-28241703D01*
G37*
G36*
X203448228Y-28241703D02*
G01*
X203603100Y-28305853D01*
X203742481Y-28398985D01*
X203861015Y-28517519D01*
X203954147Y-28656900D01*
X204018297Y-28811772D01*
X204051000Y-28976184D01*
X204051000Y-29143816D01*
X204018297Y-29308228D01*
X203954147Y-29463100D01*
X203861015Y-29602481D01*
X203742481Y-29721015D01*
X203603100Y-29814147D01*
X203448228Y-29878297D01*
X203283816Y-29911000D01*
X203116184Y-29911000D01*
X202951772Y-29878297D01*
X202796900Y-29814147D01*
X202657519Y-29721015D01*
X202538985Y-29602481D01*
X202445853Y-29463100D01*
X202381703Y-29308228D01*
X202349000Y-29143816D01*
X202349000Y-28976184D01*
X202381703Y-28811772D01*
X202445853Y-28656900D01*
X202538985Y-28517519D01*
X202657519Y-28398985D01*
X202796900Y-28305853D01*
X202951772Y-28241703D01*
X203116184Y-28209000D01*
X203283816Y-28209000D01*
X203448228Y-28241703D01*
X203448228Y-28241703D01*
G37*
G36*
X208028228Y-28241703D02*
G01*
X208183100Y-28305853D01*
X208322481Y-28398985D01*
X208441015Y-28517519D01*
X208534147Y-28656900D01*
X208598297Y-28811772D01*
X208631000Y-28976184D01*
X208631000Y-29143816D01*
X208598297Y-29308228D01*
X208534147Y-29463100D01*
X208441015Y-29602481D01*
X208322481Y-29721015D01*
X208183100Y-29814147D01*
X208028228Y-29878297D01*
X207863816Y-29911000D01*
X207696184Y-29911000D01*
X207531772Y-29878297D01*
X207376900Y-29814147D01*
X207237519Y-29721015D01*
X207118985Y-29602481D01*
X207025853Y-29463100D01*
X206961703Y-29308228D01*
X206929000Y-29143816D01*
X206929000Y-28976184D01*
X206961703Y-28811772D01*
X207025853Y-28656900D01*
X207118985Y-28517519D01*
X207237519Y-28398985D01*
X207376900Y-28305853D01*
X207531772Y-28241703D01*
X207696184Y-28209000D01*
X207863816Y-28209000D01*
X208028228Y-28241703D01*
X208028228Y-28241703D01*
G37*
G36*
X210318228Y-28241703D02*
G01*
X210473100Y-28305853D01*
X210612481Y-28398985D01*
X210731015Y-28517519D01*
X210824147Y-28656900D01*
X210888297Y-28811772D01*
X210921000Y-28976184D01*
X210921000Y-29143816D01*
X210888297Y-29308228D01*
X210824147Y-29463100D01*
X210731015Y-29602481D01*
X210612481Y-29721015D01*
X210473100Y-29814147D01*
X210318228Y-29878297D01*
X210153816Y-29911000D01*
X209986184Y-29911000D01*
X209821772Y-29878297D01*
X209666900Y-29814147D01*
X209527519Y-29721015D01*
X209408985Y-29602481D01*
X209315853Y-29463100D01*
X209251703Y-29308228D01*
X209219000Y-29143816D01*
X209219000Y-28976184D01*
X209251703Y-28811772D01*
X209315853Y-28656900D01*
X209408985Y-28517519D01*
X209527519Y-28398985D01*
X209666900Y-28305853D01*
X209821772Y-28241703D01*
X209986184Y-28209000D01*
X210153816Y-28209000D01*
X210318228Y-28241703D01*
X210318228Y-28241703D01*
G37*
G36*
X212608228Y-28241703D02*
G01*
X212763100Y-28305853D01*
X212902481Y-28398985D01*
X213021015Y-28517519D01*
X213114147Y-28656900D01*
X213178297Y-28811772D01*
X213211000Y-28976184D01*
X213211000Y-29143816D01*
X213178297Y-29308228D01*
X213114147Y-29463100D01*
X213021015Y-29602481D01*
X212902481Y-29721015D01*
X212763100Y-29814147D01*
X212608228Y-29878297D01*
X212443816Y-29911000D01*
X212276184Y-29911000D01*
X212111772Y-29878297D01*
X211956900Y-29814147D01*
X211817519Y-29721015D01*
X211698985Y-29602481D01*
X211605853Y-29463100D01*
X211541703Y-29308228D01*
X211509000Y-29143816D01*
X211509000Y-28976184D01*
X211541703Y-28811772D01*
X211605853Y-28656900D01*
X211698985Y-28517519D01*
X211817519Y-28398985D01*
X211956900Y-28305853D01*
X212111772Y-28241703D01*
X212276184Y-28209000D01*
X212443816Y-28209000D01*
X212608228Y-28241703D01*
X212608228Y-28241703D01*
G37*
G36*
X88956000Y-27571000D02*
G01*
X88204000Y-27571000D01*
X88204000Y-25769000D01*
X88956000Y-25769000D01*
X88956000Y-27571000D01*
X88956000Y-27571000D01*
G37*
G36*
X87056000Y-27571000D02*
G01*
X86304000Y-27571000D01*
X86304000Y-25769000D01*
X87056000Y-25769000D01*
X87056000Y-27571000D01*
X87056000Y-27571000D01*
G37*
G36*
X65464000Y-27538000D02*
G01*
X63162000Y-27538000D01*
X63162000Y-24636000D01*
X65464000Y-24636000D01*
X65464000Y-27538000D01*
X65464000Y-27538000D01*
G37*
G36*
X132317142Y-25888242D02*
G01*
X132465101Y-25949529D01*
X132598255Y-26038499D01*
X132711501Y-26151745D01*
X132800471Y-26284899D01*
X132861758Y-26432858D01*
X132893000Y-26589925D01*
X132893000Y-26750075D01*
X132861758Y-26907142D01*
X132800471Y-27055101D01*
X132711501Y-27188255D01*
X132598255Y-27301501D01*
X132465101Y-27390471D01*
X132317142Y-27451758D01*
X132160075Y-27483000D01*
X131999925Y-27483000D01*
X131842858Y-27451758D01*
X131694899Y-27390471D01*
X131561745Y-27301501D01*
X131448499Y-27188255D01*
X131359529Y-27055101D01*
X131298242Y-26907142D01*
X131267000Y-26750075D01*
X131267000Y-26589925D01*
X131298242Y-26432858D01*
X131359529Y-26284899D01*
X131448499Y-26151745D01*
X131561745Y-26038499D01*
X131694899Y-25949529D01*
X131842858Y-25888242D01*
X131999925Y-25857000D01*
X132160075Y-25857000D01*
X132317142Y-25888242D01*
X132317142Y-25888242D01*
G37*
G36*
X147557142Y-25888242D02*
G01*
X147705101Y-25949529D01*
X147838255Y-26038499D01*
X147951501Y-26151745D01*
X148040471Y-26284899D01*
X148101758Y-26432858D01*
X148133000Y-26589925D01*
X148133000Y-26750075D01*
X148101758Y-26907142D01*
X148040471Y-27055101D01*
X147951501Y-27188255D01*
X147838255Y-27301501D01*
X147705101Y-27390471D01*
X147557142Y-27451758D01*
X147400075Y-27483000D01*
X147239925Y-27483000D01*
X147082858Y-27451758D01*
X146934899Y-27390471D01*
X146801745Y-27301501D01*
X146688499Y-27188255D01*
X146599529Y-27055101D01*
X146538242Y-26907142D01*
X146507000Y-26750075D01*
X146507000Y-26589925D01*
X146538242Y-26432858D01*
X146599529Y-26284899D01*
X146688499Y-26151745D01*
X146801745Y-26038499D01*
X146934899Y-25949529D01*
X147082858Y-25888242D01*
X147239925Y-25857000D01*
X147400075Y-25857000D01*
X147557142Y-25888242D01*
X147557142Y-25888242D01*
G37*
G36*
X104535562Y-22758181D02*
G01*
X104570481Y-22768774D01*
X104602663Y-22785976D01*
X104630873Y-22809127D01*
X104654024Y-22837337D01*
X104671226Y-22869519D01*
X104681819Y-22904438D01*
X104686000Y-22946895D01*
X104686000Y-25313105D01*
X104681819Y-25355562D01*
X104671226Y-25390481D01*
X104654024Y-25422663D01*
X104630873Y-25450873D01*
X104602663Y-25474024D01*
X104570481Y-25491226D01*
X104535562Y-25501819D01*
X104493105Y-25506000D01*
X103351895Y-25506000D01*
X103309438Y-25501819D01*
X103274519Y-25491226D01*
X103242337Y-25474024D01*
X103214127Y-25450873D01*
X103190976Y-25422663D01*
X103173774Y-25390481D01*
X103163181Y-25355562D01*
X103159000Y-25313105D01*
X103159000Y-22946895D01*
X103163181Y-22904438D01*
X103173774Y-22869519D01*
X103190976Y-22837337D01*
X103214127Y-22809127D01*
X103242337Y-22785976D01*
X103274519Y-22768774D01*
X103309438Y-22758181D01*
X103351895Y-22754000D01*
X104493105Y-22754000D01*
X104535562Y-22758181D01*
X104535562Y-22758181D01*
G37*
G36*
X101160562Y-22758181D02*
G01*
X101195481Y-22768774D01*
X101227663Y-22785976D01*
X101255873Y-22809127D01*
X101279024Y-22837337D01*
X101296226Y-22869519D01*
X101306819Y-22904438D01*
X101311000Y-22946895D01*
X101311000Y-25313105D01*
X101306819Y-25355562D01*
X101296226Y-25390481D01*
X101279024Y-25422663D01*
X101255873Y-25450873D01*
X101227663Y-25474024D01*
X101195481Y-25491226D01*
X101160562Y-25501819D01*
X101118105Y-25506000D01*
X99976895Y-25506000D01*
X99934438Y-25501819D01*
X99899519Y-25491226D01*
X99867337Y-25474024D01*
X99839127Y-25450873D01*
X99815976Y-25422663D01*
X99798774Y-25390481D01*
X99788181Y-25355562D01*
X99784000Y-25313105D01*
X99784000Y-22946895D01*
X99788181Y-22904438D01*
X99798774Y-22869519D01*
X99815976Y-22837337D01*
X99839127Y-22809127D01*
X99867337Y-22785976D01*
X99899519Y-22768774D01*
X99934438Y-22758181D01*
X99976895Y-22754000D01*
X101118105Y-22754000D01*
X101160562Y-22758181D01*
X101160562Y-22758181D01*
G37*
G36*
X107510562Y-22758181D02*
G01*
X107545481Y-22768774D01*
X107577663Y-22785976D01*
X107605873Y-22809127D01*
X107629024Y-22837337D01*
X107646226Y-22869519D01*
X107656819Y-22904438D01*
X107661000Y-22946895D01*
X107661000Y-25313105D01*
X107656819Y-25355562D01*
X107646226Y-25390481D01*
X107629024Y-25422663D01*
X107605873Y-25450873D01*
X107577663Y-25474024D01*
X107545481Y-25491226D01*
X107510562Y-25501819D01*
X107468105Y-25506000D01*
X106326895Y-25506000D01*
X106284438Y-25501819D01*
X106249519Y-25491226D01*
X106217337Y-25474024D01*
X106189127Y-25450873D01*
X106165976Y-25422663D01*
X106148774Y-25390481D01*
X106138181Y-25355562D01*
X106134000Y-25313105D01*
X106134000Y-22946895D01*
X106138181Y-22904438D01*
X106148774Y-22869519D01*
X106165976Y-22837337D01*
X106189127Y-22809127D01*
X106217337Y-22785976D01*
X106249519Y-22768774D01*
X106284438Y-22758181D01*
X106326895Y-22754000D01*
X107468105Y-22754000D01*
X107510562Y-22758181D01*
X107510562Y-22758181D01*
G37*
G36*
X98185562Y-22758181D02*
G01*
X98220481Y-22768774D01*
X98252663Y-22785976D01*
X98280873Y-22809127D01*
X98304024Y-22837337D01*
X98321226Y-22869519D01*
X98331819Y-22904438D01*
X98336000Y-22946895D01*
X98336000Y-25313105D01*
X98331819Y-25355562D01*
X98321226Y-25390481D01*
X98304024Y-25422663D01*
X98280873Y-25450873D01*
X98252663Y-25474024D01*
X98220481Y-25491226D01*
X98185562Y-25501819D01*
X98143105Y-25506000D01*
X97001895Y-25506000D01*
X96959438Y-25501819D01*
X96924519Y-25491226D01*
X96892337Y-25474024D01*
X96864127Y-25450873D01*
X96840976Y-25422663D01*
X96823774Y-25390481D01*
X96813181Y-25355562D01*
X96809000Y-25313105D01*
X96809000Y-22946895D01*
X96813181Y-22904438D01*
X96823774Y-22869519D01*
X96840976Y-22837337D01*
X96864127Y-22809127D01*
X96892337Y-22785976D01*
X96924519Y-22768774D01*
X96959438Y-22758181D01*
X97001895Y-22754000D01*
X98143105Y-22754000D01*
X98185562Y-22758181D01*
X98185562Y-22758181D01*
G37*
G36*
X116561000Y-25306000D02*
G01*
X115359000Y-25306000D01*
X115359000Y-22954000D01*
X116561000Y-22954000D01*
X116561000Y-25306000D01*
X116561000Y-25306000D01*
G37*
G36*
X120861000Y-25306000D02*
G01*
X119659000Y-25306000D01*
X119659000Y-22954000D01*
X120861000Y-22954000D01*
X120861000Y-25306000D01*
X120861000Y-25306000D01*
G37*
G36*
X132317142Y-23348242D02*
G01*
X132465101Y-23409529D01*
X132598255Y-23498499D01*
X132711501Y-23611745D01*
X132800471Y-23744899D01*
X132861758Y-23892858D01*
X132893000Y-24049925D01*
X132893000Y-24210075D01*
X132861758Y-24367142D01*
X132800471Y-24515101D01*
X132711501Y-24648255D01*
X132598255Y-24761501D01*
X132465101Y-24850471D01*
X132317142Y-24911758D01*
X132160075Y-24943000D01*
X131999925Y-24943000D01*
X131842858Y-24911758D01*
X131694899Y-24850471D01*
X131561745Y-24761501D01*
X131448499Y-24648255D01*
X131359529Y-24515101D01*
X131298242Y-24367142D01*
X131267000Y-24210075D01*
X131267000Y-24049925D01*
X131298242Y-23892858D01*
X131359529Y-23744899D01*
X131448499Y-23611745D01*
X131561745Y-23498499D01*
X131694899Y-23409529D01*
X131842858Y-23348242D01*
X131999925Y-23317000D01*
X132160075Y-23317000D01*
X132317142Y-23348242D01*
X132317142Y-23348242D01*
G37*
G36*
X147557142Y-23348242D02*
G01*
X147705101Y-23409529D01*
X147838255Y-23498499D01*
X147951501Y-23611745D01*
X148040471Y-23744899D01*
X148101758Y-23892858D01*
X148133000Y-24049925D01*
X148133000Y-24210075D01*
X148101758Y-24367142D01*
X148040471Y-24515101D01*
X147951501Y-24648255D01*
X147838255Y-24761501D01*
X147705101Y-24850471D01*
X147557142Y-24911758D01*
X147400075Y-24943000D01*
X147239925Y-24943000D01*
X147082858Y-24911758D01*
X146934899Y-24850471D01*
X146801745Y-24761501D01*
X146688499Y-24648255D01*
X146599529Y-24515101D01*
X146538242Y-24367142D01*
X146507000Y-24210075D01*
X146507000Y-24049925D01*
X146538242Y-23892858D01*
X146599529Y-23744899D01*
X146688499Y-23611745D01*
X146801745Y-23498499D01*
X146934899Y-23409529D01*
X147082858Y-23348242D01*
X147239925Y-23317000D01*
X147400075Y-23317000D01*
X147557142Y-23348242D01*
X147557142Y-23348242D01*
G37*
G36*
X147557142Y-20808242D02*
G01*
X147705101Y-20869529D01*
X147838255Y-20958499D01*
X147951501Y-21071745D01*
X148040471Y-21204899D01*
X148101758Y-21352858D01*
X148133000Y-21509925D01*
X148133000Y-21670075D01*
X148101758Y-21827142D01*
X148040471Y-21975101D01*
X147951501Y-22108255D01*
X147838255Y-22221501D01*
X147705101Y-22310471D01*
X147557142Y-22371758D01*
X147400075Y-22403000D01*
X147239925Y-22403000D01*
X147082858Y-22371758D01*
X146934899Y-22310471D01*
X146801745Y-22221501D01*
X146688499Y-22108255D01*
X146599529Y-21975101D01*
X146538242Y-21827142D01*
X146507000Y-21670075D01*
X146507000Y-21509925D01*
X146538242Y-21352858D01*
X146599529Y-21204899D01*
X146688499Y-21071745D01*
X146801745Y-20958499D01*
X146934899Y-20869529D01*
X147082858Y-20808242D01*
X147239925Y-20777000D01*
X147400075Y-20777000D01*
X147557142Y-20808242D01*
X147557142Y-20808242D01*
G37*
G36*
X132317142Y-20808242D02*
G01*
X132465101Y-20869529D01*
X132598255Y-20958499D01*
X132711501Y-21071745D01*
X132800471Y-21204899D01*
X132861758Y-21352858D01*
X132893000Y-21509925D01*
X132893000Y-21670075D01*
X132861758Y-21827142D01*
X132800471Y-21975101D01*
X132711501Y-22108255D01*
X132598255Y-22221501D01*
X132465101Y-22310471D01*
X132317142Y-22371758D01*
X132160075Y-22403000D01*
X131999925Y-22403000D01*
X131842858Y-22371758D01*
X131694899Y-22310471D01*
X131561745Y-22221501D01*
X131448499Y-22108255D01*
X131359529Y-21975101D01*
X131298242Y-21827142D01*
X131267000Y-21670075D01*
X131267000Y-21509925D01*
X131298242Y-21352858D01*
X131359529Y-21204899D01*
X131448499Y-21071745D01*
X131561745Y-20958499D01*
X131694899Y-20869529D01*
X131842858Y-20808242D01*
X131999925Y-20777000D01*
X132160075Y-20777000D01*
X132317142Y-20808242D01*
X132317142Y-20808242D01*
G37*
G36*
X87056000Y-21221000D02*
G01*
X86304000Y-21221000D01*
X86304000Y-19419000D01*
X87056000Y-19419000D01*
X87056000Y-21221000D01*
X87056000Y-21221000D01*
G37*
G36*
X88956000Y-21221000D02*
G01*
X88204000Y-21221000D01*
X88204000Y-19419000D01*
X88956000Y-19419000D01*
X88956000Y-21221000D01*
X88956000Y-21221000D01*
G37*
G36*
X147557142Y-18268242D02*
G01*
X147705101Y-18329529D01*
X147838255Y-18418499D01*
X147951501Y-18531745D01*
X148040471Y-18664899D01*
X148101758Y-18812858D01*
X148133000Y-18969925D01*
X148133000Y-19130075D01*
X148101758Y-19287142D01*
X148040471Y-19435101D01*
X147951501Y-19568255D01*
X147838255Y-19681501D01*
X147705101Y-19770471D01*
X147557142Y-19831758D01*
X147400075Y-19863000D01*
X147239925Y-19863000D01*
X147082858Y-19831758D01*
X146934899Y-19770471D01*
X146801745Y-19681501D01*
X146688499Y-19568255D01*
X146599529Y-19435101D01*
X146538242Y-19287142D01*
X146507000Y-19130075D01*
X146507000Y-18969925D01*
X146538242Y-18812858D01*
X146599529Y-18664899D01*
X146688499Y-18531745D01*
X146801745Y-18418499D01*
X146934899Y-18329529D01*
X147082858Y-18268242D01*
X147239925Y-18237000D01*
X147400075Y-18237000D01*
X147557142Y-18268242D01*
X147557142Y-18268242D01*
G37*
G36*
X132317142Y-18268242D02*
G01*
X132465101Y-18329529D01*
X132598255Y-18418499D01*
X132711501Y-18531745D01*
X132800471Y-18664899D01*
X132861758Y-18812858D01*
X132893000Y-18969925D01*
X132893000Y-19130075D01*
X132861758Y-19287142D01*
X132800471Y-19435101D01*
X132711501Y-19568255D01*
X132598255Y-19681501D01*
X132465101Y-19770471D01*
X132317142Y-19831758D01*
X132160075Y-19863000D01*
X131999925Y-19863000D01*
X131842858Y-19831758D01*
X131694899Y-19770471D01*
X131561745Y-19681501D01*
X131448499Y-19568255D01*
X131359529Y-19435101D01*
X131298242Y-19287142D01*
X131267000Y-19130075D01*
X131267000Y-18969925D01*
X131298242Y-18812858D01*
X131359529Y-18664899D01*
X131448499Y-18531745D01*
X131561745Y-18418499D01*
X131694899Y-18329529D01*
X131842858Y-18268242D01*
X131999925Y-18237000D01*
X132160075Y-18237000D01*
X132317142Y-18268242D01*
X132317142Y-18268242D01*
G37*
G36*
X229125331Y-16048211D02*
G01*
X229453092Y-16183974D01*
X229748070Y-16381072D01*
X229998928Y-16631930D01*
X230196026Y-16926908D01*
X230331789Y-17254669D01*
X230401000Y-17602616D01*
X230401000Y-17957384D01*
X230331789Y-18305331D01*
X230196026Y-18633092D01*
X229998928Y-18928070D01*
X229748070Y-19178928D01*
X229453092Y-19376026D01*
X229125331Y-19511789D01*
X228777384Y-19581000D01*
X228422616Y-19581000D01*
X228074669Y-19511789D01*
X227746908Y-19376026D01*
X227451930Y-19178928D01*
X227201072Y-18928070D01*
X227003974Y-18633092D01*
X226868211Y-18305331D01*
X226799000Y-17957384D01*
X226799000Y-17602616D01*
X226868211Y-17254669D01*
X227003974Y-16926908D01*
X227201072Y-16631930D01*
X227451930Y-16381072D01*
X227746908Y-16183974D01*
X228074669Y-16048211D01*
X228422616Y-15979000D01*
X228777384Y-15979000D01*
X229125331Y-16048211D01*
X229125331Y-16048211D01*
G37*
G36*
X61485331Y-16048211D02*
G01*
X61813092Y-16183974D01*
X62108070Y-16381072D01*
X62358928Y-16631930D01*
X62556026Y-16926908D01*
X62691789Y-17254669D01*
X62761000Y-17602616D01*
X62761000Y-17957384D01*
X62691789Y-18305331D01*
X62556026Y-18633092D01*
X62358928Y-18928070D01*
X62108070Y-19178928D01*
X61813092Y-19376026D01*
X61485331Y-19511789D01*
X61137384Y-19581000D01*
X60782616Y-19581000D01*
X60434669Y-19511789D01*
X60106908Y-19376026D01*
X59811930Y-19178928D01*
X59561072Y-18928070D01*
X59363974Y-18633092D01*
X59228211Y-18305331D01*
X59159000Y-17957384D01*
X59159000Y-17602616D01*
X59228211Y-17254669D01*
X59363974Y-16926908D01*
X59561072Y-16631930D01*
X59811930Y-16381072D01*
X60106908Y-16183974D01*
X60434669Y-16048211D01*
X60782616Y-15979000D01*
X61137384Y-15979000D01*
X61485331Y-16048211D01*
X61485331Y-16048211D01*
G37*
G36*
X107510562Y-16408181D02*
G01*
X107545481Y-16418774D01*
X107577663Y-16435976D01*
X107605873Y-16459127D01*
X107629024Y-16487337D01*
X107646226Y-16519519D01*
X107656819Y-16554438D01*
X107661000Y-16596895D01*
X107661000Y-18963105D01*
X107656819Y-19005562D01*
X107646226Y-19040481D01*
X107629024Y-19072663D01*
X107605873Y-19100873D01*
X107577663Y-19124024D01*
X107545481Y-19141226D01*
X107510562Y-19151819D01*
X107468105Y-19156000D01*
X106326895Y-19156000D01*
X106284438Y-19151819D01*
X106249519Y-19141226D01*
X106217337Y-19124024D01*
X106189127Y-19100873D01*
X106165976Y-19072663D01*
X106148774Y-19040481D01*
X106138181Y-19005562D01*
X106134000Y-18963105D01*
X106134000Y-16596895D01*
X106138181Y-16554438D01*
X106148774Y-16519519D01*
X106165976Y-16487337D01*
X106189127Y-16459127D01*
X106217337Y-16435976D01*
X106249519Y-16418774D01*
X106284438Y-16408181D01*
X106326895Y-16404000D01*
X107468105Y-16404000D01*
X107510562Y-16408181D01*
X107510562Y-16408181D01*
G37*
G36*
X101160562Y-16408181D02*
G01*
X101195481Y-16418774D01*
X101227663Y-16435976D01*
X101255873Y-16459127D01*
X101279024Y-16487337D01*
X101296226Y-16519519D01*
X101306819Y-16554438D01*
X101311000Y-16596895D01*
X101311000Y-18963105D01*
X101306819Y-19005562D01*
X101296226Y-19040481D01*
X101279024Y-19072663D01*
X101255873Y-19100873D01*
X101227663Y-19124024D01*
X101195481Y-19141226D01*
X101160562Y-19151819D01*
X101118105Y-19156000D01*
X99976895Y-19156000D01*
X99934438Y-19151819D01*
X99899519Y-19141226D01*
X99867337Y-19124024D01*
X99839127Y-19100873D01*
X99815976Y-19072663D01*
X99798774Y-19040481D01*
X99788181Y-19005562D01*
X99784000Y-18963105D01*
X99784000Y-16596895D01*
X99788181Y-16554438D01*
X99798774Y-16519519D01*
X99815976Y-16487337D01*
X99839127Y-16459127D01*
X99867337Y-16435976D01*
X99899519Y-16418774D01*
X99934438Y-16408181D01*
X99976895Y-16404000D01*
X101118105Y-16404000D01*
X101160562Y-16408181D01*
X101160562Y-16408181D01*
G37*
G36*
X98185562Y-16408181D02*
G01*
X98220481Y-16418774D01*
X98252663Y-16435976D01*
X98280873Y-16459127D01*
X98304024Y-16487337D01*
X98321226Y-16519519D01*
X98331819Y-16554438D01*
X98336000Y-16596895D01*
X98336000Y-18963105D01*
X98331819Y-19005562D01*
X98321226Y-19040481D01*
X98304024Y-19072663D01*
X98280873Y-19100873D01*
X98252663Y-19124024D01*
X98220481Y-19141226D01*
X98185562Y-19151819D01*
X98143105Y-19156000D01*
X97001895Y-19156000D01*
X96959438Y-19151819D01*
X96924519Y-19141226D01*
X96892337Y-19124024D01*
X96864127Y-19100873D01*
X96840976Y-19072663D01*
X96823774Y-19040481D01*
X96813181Y-19005562D01*
X96809000Y-18963105D01*
X96809000Y-16596895D01*
X96813181Y-16554438D01*
X96823774Y-16519519D01*
X96840976Y-16487337D01*
X96864127Y-16459127D01*
X96892337Y-16435976D01*
X96924519Y-16418774D01*
X96959438Y-16408181D01*
X97001895Y-16404000D01*
X98143105Y-16404000D01*
X98185562Y-16408181D01*
X98185562Y-16408181D01*
G37*
G36*
X104535562Y-16408181D02*
G01*
X104570481Y-16418774D01*
X104602663Y-16435976D01*
X104630873Y-16459127D01*
X104654024Y-16487337D01*
X104671226Y-16519519D01*
X104681819Y-16554438D01*
X104686000Y-16596895D01*
X104686000Y-18963105D01*
X104681819Y-19005562D01*
X104671226Y-19040481D01*
X104654024Y-19072663D01*
X104630873Y-19100873D01*
X104602663Y-19124024D01*
X104570481Y-19141226D01*
X104535562Y-19151819D01*
X104493105Y-19156000D01*
X103351895Y-19156000D01*
X103309438Y-19151819D01*
X103274519Y-19141226D01*
X103242337Y-19124024D01*
X103214127Y-19100873D01*
X103190976Y-19072663D01*
X103173774Y-19040481D01*
X103163181Y-19005562D01*
X103159000Y-18963105D01*
X103159000Y-16596895D01*
X103163181Y-16554438D01*
X103173774Y-16519519D01*
X103190976Y-16487337D01*
X103214127Y-16459127D01*
X103242337Y-16435976D01*
X103274519Y-16418774D01*
X103309438Y-16408181D01*
X103351895Y-16404000D01*
X104493105Y-16404000D01*
X104535562Y-16408181D01*
X104535562Y-16408181D01*
G37*
G36*
X147557142Y-15728242D02*
G01*
X147705101Y-15789529D01*
X147838255Y-15878499D01*
X147951501Y-15991745D01*
X148040471Y-16124899D01*
X148101758Y-16272858D01*
X148133000Y-16429925D01*
X148133000Y-16590075D01*
X148101758Y-16747142D01*
X148040471Y-16895101D01*
X147951501Y-17028255D01*
X147838255Y-17141501D01*
X147705101Y-17230471D01*
X147557142Y-17291758D01*
X147400075Y-17323000D01*
X147239925Y-17323000D01*
X147082858Y-17291758D01*
X146934899Y-17230471D01*
X146801745Y-17141501D01*
X146688499Y-17028255D01*
X146599529Y-16895101D01*
X146538242Y-16747142D01*
X146507000Y-16590075D01*
X146507000Y-16429925D01*
X146538242Y-16272858D01*
X146599529Y-16124899D01*
X146688499Y-15991745D01*
X146801745Y-15878499D01*
X146934899Y-15789529D01*
X147082858Y-15728242D01*
X147239925Y-15697000D01*
X147400075Y-15697000D01*
X147557142Y-15728242D01*
X147557142Y-15728242D01*
G37*
G36*
X132317142Y-15728242D02*
G01*
X132465101Y-15789529D01*
X132598255Y-15878499D01*
X132711501Y-15991745D01*
X132800471Y-16124899D01*
X132861758Y-16272858D01*
X132893000Y-16429925D01*
X132893000Y-16590075D01*
X132861758Y-16747142D01*
X132800471Y-16895101D01*
X132711501Y-17028255D01*
X132598255Y-17141501D01*
X132465101Y-17230471D01*
X132317142Y-17291758D01*
X132160075Y-17323000D01*
X131999925Y-17323000D01*
X131842858Y-17291758D01*
X131694899Y-17230471D01*
X131561745Y-17141501D01*
X131448499Y-17028255D01*
X131359529Y-16895101D01*
X131298242Y-16747142D01*
X131267000Y-16590075D01*
X131267000Y-16429925D01*
X131298242Y-16272858D01*
X131359529Y-16124899D01*
X131448499Y-15991745D01*
X131561745Y-15878499D01*
X131694899Y-15789529D01*
X131842858Y-15728242D01*
X131999925Y-15697000D01*
X132160075Y-15697000D01*
X132317142Y-15728242D01*
X132317142Y-15728242D01*
G37*
G36*
X184387142Y-14458242D02*
G01*
X184535101Y-14519529D01*
X184668255Y-14608499D01*
X184781501Y-14721745D01*
X184870471Y-14854899D01*
X184931758Y-15002858D01*
X184963000Y-15159925D01*
X184963000Y-15320075D01*
X184931758Y-15477142D01*
X184870471Y-15625101D01*
X184781501Y-15758255D01*
X184668255Y-15871501D01*
X184535101Y-15960471D01*
X184387142Y-16021758D01*
X184230075Y-16053000D01*
X184069925Y-16053000D01*
X183912858Y-16021758D01*
X183764899Y-15960471D01*
X183631745Y-15871501D01*
X183518499Y-15758255D01*
X183429529Y-15625101D01*
X183368242Y-15477142D01*
X183337000Y-15320075D01*
X183337000Y-15159925D01*
X183368242Y-15002858D01*
X183429529Y-14854899D01*
X183518499Y-14721745D01*
X183631745Y-14608499D01*
X183764899Y-14519529D01*
X183912858Y-14458242D01*
X184069925Y-14427000D01*
X184230075Y-14427000D01*
X184387142Y-14458242D01*
X184387142Y-14458242D01*
G37*
G36*
X179307142Y-14458242D02*
G01*
X179455101Y-14519529D01*
X179588255Y-14608499D01*
X179701501Y-14721745D01*
X179790471Y-14854899D01*
X179851758Y-15002858D01*
X179883000Y-15159925D01*
X179883000Y-15320075D01*
X179851758Y-15477142D01*
X179790471Y-15625101D01*
X179701501Y-15758255D01*
X179588255Y-15871501D01*
X179455101Y-15960471D01*
X179307142Y-16021758D01*
X179150075Y-16053000D01*
X178989925Y-16053000D01*
X178832858Y-16021758D01*
X178684899Y-15960471D01*
X178551745Y-15871501D01*
X178438499Y-15758255D01*
X178349529Y-15625101D01*
X178288242Y-15477142D01*
X178257000Y-15320075D01*
X178257000Y-15159925D01*
X178288242Y-15002858D01*
X178349529Y-14854899D01*
X178438499Y-14721745D01*
X178551745Y-14608499D01*
X178684899Y-14519529D01*
X178832858Y-14458242D01*
X178989925Y-14427000D01*
X179150075Y-14427000D01*
X179307142Y-14458242D01*
X179307142Y-14458242D01*
G37*
G36*
X161527142Y-14458242D02*
G01*
X161675101Y-14519529D01*
X161808255Y-14608499D01*
X161921501Y-14721745D01*
X162010471Y-14854899D01*
X162071758Y-15002858D01*
X162103000Y-15159925D01*
X162103000Y-15320075D01*
X162071758Y-15477142D01*
X162010471Y-15625101D01*
X161921501Y-15758255D01*
X161808255Y-15871501D01*
X161675101Y-15960471D01*
X161527142Y-16021758D01*
X161370075Y-16053000D01*
X161209925Y-16053000D01*
X161052858Y-16021758D01*
X160904899Y-15960471D01*
X160771745Y-15871501D01*
X160658499Y-15758255D01*
X160569529Y-15625101D01*
X160508242Y-15477142D01*
X160477000Y-15320075D01*
X160477000Y-15159925D01*
X160508242Y-15002858D01*
X160569529Y-14854899D01*
X160658499Y-14721745D01*
X160771745Y-14608499D01*
X160904899Y-14519529D01*
X161052858Y-14458242D01*
X161209925Y-14427000D01*
X161370075Y-14427000D01*
X161527142Y-14458242D01*
X161527142Y-14458242D01*
G37*
G36*
X166607142Y-14458242D02*
G01*
X166755101Y-14519529D01*
X166888255Y-14608499D01*
X167001501Y-14721745D01*
X167090471Y-14854899D01*
X167151758Y-15002858D01*
X167183000Y-15159925D01*
X167183000Y-15320075D01*
X167151758Y-15477142D01*
X167090471Y-15625101D01*
X167001501Y-15758255D01*
X166888255Y-15871501D01*
X166755101Y-15960471D01*
X166607142Y-16021758D01*
X166450075Y-16053000D01*
X166289925Y-16053000D01*
X166132858Y-16021758D01*
X165984899Y-15960471D01*
X165851745Y-15871501D01*
X165738499Y-15758255D01*
X165649529Y-15625101D01*
X165588242Y-15477142D01*
X165557000Y-15320075D01*
X165557000Y-15159925D01*
X165588242Y-15002858D01*
X165649529Y-14854899D01*
X165738499Y-14721745D01*
X165851745Y-14608499D01*
X165984899Y-14519529D01*
X166132858Y-14458242D01*
X166289925Y-14427000D01*
X166450075Y-14427000D01*
X166607142Y-14458242D01*
X166607142Y-14458242D01*
G37*
M02*
