G04 #@! TF.GenerationSoftware,KiCad,Pcbnew,(5.1.0)-1*
G04 #@! TF.CreationDate,2020-03-25T20:16:52-04:00*
G04 #@! TF.ProjectId,Bababooey,42616261-626f-46f6-9579-2e6b69636164,rev?*
G04 #@! TF.SameCoordinates,Original*
G04 #@! TF.FileFunction,Legend,Bot*
G04 #@! TF.FilePolarity,Positive*
%FSLAX46Y46*%
G04 Gerber Fmt 4.6, Leading zero omitted, Abs format (unit mm)*
G04 Created by KiCad (PCBNEW (5.1.0)-1) date 2020-03-25 20:16:52*
%MOMM*%
%LPD*%
G04 APERTURE LIST*
%ADD10C,0.120000*%
%ADD11C,0.150000*%
G04 APERTURE END LIST*
D10*
X179737936Y-24040000D02*
X180942064Y-24040000D01*
X179737936Y-26760000D02*
X180942064Y-26760000D01*
X161957936Y-24040000D02*
X163162064Y-24040000D01*
X161957936Y-26760000D02*
X163162064Y-26760000D01*
X70517936Y-60870000D02*
X71722064Y-60870000D01*
X70517936Y-63590000D02*
X71722064Y-63590000D01*
X119290000Y-36416064D02*
X119290000Y-35211936D01*
X122010000Y-36416064D02*
X122010000Y-35211936D01*
X112362064Y-26125000D02*
X111157936Y-26125000D01*
X112362064Y-23405000D02*
X111157936Y-23405000D01*
X114337000Y-36416064D02*
X114337000Y-35211936D01*
X117057000Y-36416064D02*
X117057000Y-35211936D01*
X116930000Y-29242936D02*
X116930000Y-30447064D01*
X114210000Y-29242936D02*
X114210000Y-30447064D01*
X94070000Y-26067936D02*
X94070000Y-27272064D01*
X91350000Y-26067936D02*
X91350000Y-27272064D01*
X123857936Y-39280000D02*
X125062064Y-39280000D01*
X123857936Y-42000000D02*
X125062064Y-42000000D01*
X94070000Y-19717936D02*
X94070000Y-20922064D01*
X91350000Y-19717936D02*
X91350000Y-20922064D01*
X122010000Y-29242936D02*
X122010000Y-30447064D01*
X119290000Y-29242936D02*
X119290000Y-30447064D01*
X123857936Y-43090000D02*
X125062064Y-43090000D01*
X123857936Y-45810000D02*
X125062064Y-45810000D01*
X94070000Y-40037936D02*
X94070000Y-41242064D01*
X91350000Y-40037936D02*
X91350000Y-41242064D01*
X119290000Y-19017064D02*
X119290000Y-17812936D01*
X122010000Y-19017064D02*
X122010000Y-17812936D01*
X111727064Y-42000000D02*
X110522936Y-42000000D01*
X111727064Y-39280000D02*
X110522936Y-39280000D01*
X94070000Y-33687936D02*
X94070000Y-34892064D01*
X91350000Y-33687936D02*
X91350000Y-34892064D01*
X114210000Y-19017064D02*
X114210000Y-17812936D01*
X116930000Y-19017064D02*
X116930000Y-17812936D01*
X111727064Y-45810000D02*
X110522936Y-45810000D01*
X111727064Y-43090000D02*
X110522936Y-43090000D01*
X152310000Y-17112064D02*
X152310000Y-15907936D01*
X155030000Y-17112064D02*
X155030000Y-15907936D01*
X155030000Y-24797936D02*
X155030000Y-26002064D01*
X152310000Y-24797936D02*
X152310000Y-26002064D01*
X139097936Y-32930000D02*
X140302064Y-32930000D01*
X139097936Y-35650000D02*
X140302064Y-35650000D01*
X139097936Y-17690000D02*
X140302064Y-17690000D01*
X139097936Y-20410000D02*
X140302064Y-20410000D01*
X135600000Y-30080000D02*
X141610000Y-30080000D01*
X137850000Y-23260000D02*
X141610000Y-23260000D01*
X141610000Y-30080000D02*
X141610000Y-28820000D01*
X141610000Y-23260000D02*
X141610000Y-24520000D01*
D11*
X185427857Y-25757142D02*
X185475476Y-25804761D01*
X185618333Y-25852380D01*
X185713571Y-25852380D01*
X185856428Y-25804761D01*
X185951666Y-25709523D01*
X185999285Y-25614285D01*
X186046904Y-25423809D01*
X186046904Y-25280952D01*
X185999285Y-25090476D01*
X185951666Y-24995238D01*
X185856428Y-24900000D01*
X185713571Y-24852380D01*
X185618333Y-24852380D01*
X185475476Y-24900000D01*
X185427857Y-24947619D01*
X185094523Y-24852380D02*
X184475476Y-24852380D01*
X184808809Y-25233333D01*
X184665952Y-25233333D01*
X184570714Y-25280952D01*
X184523095Y-25328571D01*
X184475476Y-25423809D01*
X184475476Y-25661904D01*
X184523095Y-25757142D01*
X184570714Y-25804761D01*
X184665952Y-25852380D01*
X184951666Y-25852380D01*
X185046904Y-25804761D01*
X185094523Y-25757142D01*
X183570714Y-24852380D02*
X184046904Y-24852380D01*
X184094523Y-25328571D01*
X184046904Y-25280952D01*
X183951666Y-25233333D01*
X183713571Y-25233333D01*
X183618333Y-25280952D01*
X183570714Y-25328571D01*
X183523095Y-25423809D01*
X183523095Y-25661904D01*
X183570714Y-25757142D01*
X183618333Y-25804761D01*
X183713571Y-25852380D01*
X183951666Y-25852380D01*
X184046904Y-25804761D01*
X184094523Y-25757142D01*
X167647857Y-25757142D02*
X167695476Y-25804761D01*
X167838333Y-25852380D01*
X167933571Y-25852380D01*
X168076428Y-25804761D01*
X168171666Y-25709523D01*
X168219285Y-25614285D01*
X168266904Y-25423809D01*
X168266904Y-25280952D01*
X168219285Y-25090476D01*
X168171666Y-24995238D01*
X168076428Y-24900000D01*
X167933571Y-24852380D01*
X167838333Y-24852380D01*
X167695476Y-24900000D01*
X167647857Y-24947619D01*
X167314523Y-24852380D02*
X166695476Y-24852380D01*
X167028809Y-25233333D01*
X166885952Y-25233333D01*
X166790714Y-25280952D01*
X166743095Y-25328571D01*
X166695476Y-25423809D01*
X166695476Y-25661904D01*
X166743095Y-25757142D01*
X166790714Y-25804761D01*
X166885952Y-25852380D01*
X167171666Y-25852380D01*
X167266904Y-25804761D01*
X167314523Y-25757142D01*
X165838333Y-25185714D02*
X165838333Y-25852380D01*
X166076428Y-24804761D02*
X166314523Y-25519047D01*
X165695476Y-25519047D01*
X71762857Y-65127142D02*
X71810476Y-65174761D01*
X71953333Y-65222380D01*
X72048571Y-65222380D01*
X72191428Y-65174761D01*
X72286666Y-65079523D01*
X72334285Y-64984285D01*
X72381904Y-64793809D01*
X72381904Y-64650952D01*
X72334285Y-64460476D01*
X72286666Y-64365238D01*
X72191428Y-64270000D01*
X72048571Y-64222380D01*
X71953333Y-64222380D01*
X71810476Y-64270000D01*
X71762857Y-64317619D01*
X71429523Y-64222380D02*
X70810476Y-64222380D01*
X71143809Y-64603333D01*
X71000952Y-64603333D01*
X70905714Y-64650952D01*
X70858095Y-64698571D01*
X70810476Y-64793809D01*
X70810476Y-65031904D01*
X70858095Y-65127142D01*
X70905714Y-65174761D01*
X71000952Y-65222380D01*
X71286666Y-65222380D01*
X71381904Y-65174761D01*
X71429523Y-65127142D01*
X70429523Y-64317619D02*
X70381904Y-64270000D01*
X70286666Y-64222380D01*
X70048571Y-64222380D01*
X69953333Y-64270000D01*
X69905714Y-64317619D01*
X69858095Y-64412857D01*
X69858095Y-64508095D01*
X69905714Y-64650952D01*
X70477142Y-65222380D01*
X69858095Y-65222380D01*
X124467857Y-35917142D02*
X124515476Y-35964761D01*
X124658333Y-36012380D01*
X124753571Y-36012380D01*
X124896428Y-35964761D01*
X124991666Y-35869523D01*
X125039285Y-35774285D01*
X125086904Y-35583809D01*
X125086904Y-35440952D01*
X125039285Y-35250476D01*
X124991666Y-35155238D01*
X124896428Y-35060000D01*
X124753571Y-35012380D01*
X124658333Y-35012380D01*
X124515476Y-35060000D01*
X124467857Y-35107619D01*
X124086904Y-35107619D02*
X124039285Y-35060000D01*
X123944047Y-35012380D01*
X123705952Y-35012380D01*
X123610714Y-35060000D01*
X123563095Y-35107619D01*
X123515476Y-35202857D01*
X123515476Y-35298095D01*
X123563095Y-35440952D01*
X124134523Y-36012380D01*
X123515476Y-36012380D01*
X123182142Y-35012380D02*
X122563095Y-35012380D01*
X122896428Y-35393333D01*
X122753571Y-35393333D01*
X122658333Y-35440952D01*
X122610714Y-35488571D01*
X122563095Y-35583809D01*
X122563095Y-35821904D01*
X122610714Y-35917142D01*
X122658333Y-35964761D01*
X122753571Y-36012380D01*
X123039285Y-36012380D01*
X123134523Y-35964761D01*
X123182142Y-35917142D01*
X112402857Y-22842142D02*
X112450476Y-22889761D01*
X112593333Y-22937380D01*
X112688571Y-22937380D01*
X112831428Y-22889761D01*
X112926666Y-22794523D01*
X112974285Y-22699285D01*
X113021904Y-22508809D01*
X113021904Y-22365952D01*
X112974285Y-22175476D01*
X112926666Y-22080238D01*
X112831428Y-21985000D01*
X112688571Y-21937380D01*
X112593333Y-21937380D01*
X112450476Y-21985000D01*
X112402857Y-22032619D01*
X112021904Y-22032619D02*
X111974285Y-21985000D01*
X111879047Y-21937380D01*
X111640952Y-21937380D01*
X111545714Y-21985000D01*
X111498095Y-22032619D01*
X111450476Y-22127857D01*
X111450476Y-22223095D01*
X111498095Y-22365952D01*
X112069523Y-22937380D01*
X111450476Y-22937380D01*
X111069523Y-22032619D02*
X111021904Y-21985000D01*
X110926666Y-21937380D01*
X110688571Y-21937380D01*
X110593333Y-21985000D01*
X110545714Y-22032619D01*
X110498095Y-22127857D01*
X110498095Y-22223095D01*
X110545714Y-22365952D01*
X111117142Y-22937380D01*
X110498095Y-22937380D01*
X113037857Y-35917142D02*
X113085476Y-35964761D01*
X113228333Y-36012380D01*
X113323571Y-36012380D01*
X113466428Y-35964761D01*
X113561666Y-35869523D01*
X113609285Y-35774285D01*
X113656904Y-35583809D01*
X113656904Y-35440952D01*
X113609285Y-35250476D01*
X113561666Y-35155238D01*
X113466428Y-35060000D01*
X113323571Y-35012380D01*
X113228333Y-35012380D01*
X113085476Y-35060000D01*
X113037857Y-35107619D01*
X112656904Y-35107619D02*
X112609285Y-35060000D01*
X112514047Y-35012380D01*
X112275952Y-35012380D01*
X112180714Y-35060000D01*
X112133095Y-35107619D01*
X112085476Y-35202857D01*
X112085476Y-35298095D01*
X112133095Y-35440952D01*
X112704523Y-36012380D01*
X112085476Y-36012380D01*
X111133095Y-36012380D02*
X111704523Y-36012380D01*
X111418809Y-36012380D02*
X111418809Y-35012380D01*
X111514047Y-35155238D01*
X111609285Y-35250476D01*
X111704523Y-35298095D01*
X113037857Y-30202142D02*
X113085476Y-30249761D01*
X113228333Y-30297380D01*
X113323571Y-30297380D01*
X113466428Y-30249761D01*
X113561666Y-30154523D01*
X113609285Y-30059285D01*
X113656904Y-29868809D01*
X113656904Y-29725952D01*
X113609285Y-29535476D01*
X113561666Y-29440238D01*
X113466428Y-29345000D01*
X113323571Y-29297380D01*
X113228333Y-29297380D01*
X113085476Y-29345000D01*
X113037857Y-29392619D01*
X112085476Y-30297380D02*
X112656904Y-30297380D01*
X112371190Y-30297380D02*
X112371190Y-29297380D01*
X112466428Y-29440238D01*
X112561666Y-29535476D01*
X112656904Y-29583095D01*
X111514047Y-29725952D02*
X111609285Y-29678333D01*
X111656904Y-29630714D01*
X111704523Y-29535476D01*
X111704523Y-29487857D01*
X111656904Y-29392619D01*
X111609285Y-29345000D01*
X111514047Y-29297380D01*
X111323571Y-29297380D01*
X111228333Y-29345000D01*
X111180714Y-29392619D01*
X111133095Y-29487857D01*
X111133095Y-29535476D01*
X111180714Y-29630714D01*
X111228333Y-29678333D01*
X111323571Y-29725952D01*
X111514047Y-29725952D01*
X111609285Y-29773571D01*
X111656904Y-29821190D01*
X111704523Y-29916428D01*
X111704523Y-30106904D01*
X111656904Y-30202142D01*
X111609285Y-30249761D01*
X111514047Y-30297380D01*
X111323571Y-30297380D01*
X111228333Y-30249761D01*
X111180714Y-30202142D01*
X111133095Y-30106904D01*
X111133095Y-29916428D01*
X111180714Y-29821190D01*
X111228333Y-29773571D01*
X111323571Y-29725952D01*
X93352857Y-30202142D02*
X93400476Y-30249761D01*
X93543333Y-30297380D01*
X93638571Y-30297380D01*
X93781428Y-30249761D01*
X93876666Y-30154523D01*
X93924285Y-30059285D01*
X93971904Y-29868809D01*
X93971904Y-29725952D01*
X93924285Y-29535476D01*
X93876666Y-29440238D01*
X93781428Y-29345000D01*
X93638571Y-29297380D01*
X93543333Y-29297380D01*
X93400476Y-29345000D01*
X93352857Y-29392619D01*
X92400476Y-30297380D02*
X92971904Y-30297380D01*
X92686190Y-30297380D02*
X92686190Y-29297380D01*
X92781428Y-29440238D01*
X92876666Y-29535476D01*
X92971904Y-29583095D01*
X92067142Y-29297380D02*
X91400476Y-29297380D01*
X91829047Y-30297380D01*
X129547857Y-40997142D02*
X129595476Y-41044761D01*
X129738333Y-41092380D01*
X129833571Y-41092380D01*
X129976428Y-41044761D01*
X130071666Y-40949523D01*
X130119285Y-40854285D01*
X130166904Y-40663809D01*
X130166904Y-40520952D01*
X130119285Y-40330476D01*
X130071666Y-40235238D01*
X129976428Y-40140000D01*
X129833571Y-40092380D01*
X129738333Y-40092380D01*
X129595476Y-40140000D01*
X129547857Y-40187619D01*
X128595476Y-41092380D02*
X129166904Y-41092380D01*
X128881190Y-41092380D02*
X128881190Y-40092380D01*
X128976428Y-40235238D01*
X129071666Y-40330476D01*
X129166904Y-40378095D01*
X127690714Y-40092380D02*
X128166904Y-40092380D01*
X128214523Y-40568571D01*
X128166904Y-40520952D01*
X128071666Y-40473333D01*
X127833571Y-40473333D01*
X127738333Y-40520952D01*
X127690714Y-40568571D01*
X127643095Y-40663809D01*
X127643095Y-40901904D01*
X127690714Y-40997142D01*
X127738333Y-41044761D01*
X127833571Y-41092380D01*
X128071666Y-41092380D01*
X128166904Y-41044761D01*
X128214523Y-40997142D01*
X93352857Y-17502142D02*
X93400476Y-17549761D01*
X93543333Y-17597380D01*
X93638571Y-17597380D01*
X93781428Y-17549761D01*
X93876666Y-17454523D01*
X93924285Y-17359285D01*
X93971904Y-17168809D01*
X93971904Y-17025952D01*
X93924285Y-16835476D01*
X93876666Y-16740238D01*
X93781428Y-16645000D01*
X93638571Y-16597380D01*
X93543333Y-16597380D01*
X93400476Y-16645000D01*
X93352857Y-16692619D01*
X92400476Y-17597380D02*
X92971904Y-17597380D01*
X92686190Y-17597380D02*
X92686190Y-16597380D01*
X92781428Y-16740238D01*
X92876666Y-16835476D01*
X92971904Y-16883095D01*
X91543333Y-16930714D02*
X91543333Y-17597380D01*
X91781428Y-16549761D02*
X92019523Y-17264047D01*
X91400476Y-17264047D01*
X124467857Y-30202142D02*
X124515476Y-30249761D01*
X124658333Y-30297380D01*
X124753571Y-30297380D01*
X124896428Y-30249761D01*
X124991666Y-30154523D01*
X125039285Y-30059285D01*
X125086904Y-29868809D01*
X125086904Y-29725952D01*
X125039285Y-29535476D01*
X124991666Y-29440238D01*
X124896428Y-29345000D01*
X124753571Y-29297380D01*
X124658333Y-29297380D01*
X124515476Y-29345000D01*
X124467857Y-29392619D01*
X123515476Y-30297380D02*
X124086904Y-30297380D01*
X123801190Y-30297380D02*
X123801190Y-29297380D01*
X123896428Y-29440238D01*
X123991666Y-29535476D01*
X124086904Y-29583095D01*
X123182142Y-29297380D02*
X122563095Y-29297380D01*
X122896428Y-29678333D01*
X122753571Y-29678333D01*
X122658333Y-29725952D01*
X122610714Y-29773571D01*
X122563095Y-29868809D01*
X122563095Y-30106904D01*
X122610714Y-30202142D01*
X122658333Y-30249761D01*
X122753571Y-30297380D01*
X123039285Y-30297380D01*
X123134523Y-30249761D01*
X123182142Y-30202142D01*
X129547857Y-44807142D02*
X129595476Y-44854761D01*
X129738333Y-44902380D01*
X129833571Y-44902380D01*
X129976428Y-44854761D01*
X130071666Y-44759523D01*
X130119285Y-44664285D01*
X130166904Y-44473809D01*
X130166904Y-44330952D01*
X130119285Y-44140476D01*
X130071666Y-44045238D01*
X129976428Y-43950000D01*
X129833571Y-43902380D01*
X129738333Y-43902380D01*
X129595476Y-43950000D01*
X129547857Y-43997619D01*
X128595476Y-44902380D02*
X129166904Y-44902380D01*
X128881190Y-44902380D02*
X128881190Y-43902380D01*
X128976428Y-44045238D01*
X129071666Y-44140476D01*
X129166904Y-44188095D01*
X127643095Y-44902380D02*
X128214523Y-44902380D01*
X127928809Y-44902380D02*
X127928809Y-43902380D01*
X128024047Y-44045238D01*
X128119285Y-44140476D01*
X128214523Y-44188095D01*
X93352857Y-44172142D02*
X93400476Y-44219761D01*
X93543333Y-44267380D01*
X93638571Y-44267380D01*
X93781428Y-44219761D01*
X93876666Y-44124523D01*
X93924285Y-44029285D01*
X93971904Y-43838809D01*
X93971904Y-43695952D01*
X93924285Y-43505476D01*
X93876666Y-43410238D01*
X93781428Y-43315000D01*
X93638571Y-43267380D01*
X93543333Y-43267380D01*
X93400476Y-43315000D01*
X93352857Y-43362619D01*
X92400476Y-44267380D02*
X92971904Y-44267380D01*
X92686190Y-44267380D02*
X92686190Y-43267380D01*
X92781428Y-43410238D01*
X92876666Y-43505476D01*
X92971904Y-43553095D01*
X91781428Y-43267380D02*
X91686190Y-43267380D01*
X91590952Y-43315000D01*
X91543333Y-43362619D01*
X91495714Y-43457857D01*
X91448095Y-43648333D01*
X91448095Y-43886428D01*
X91495714Y-44076904D01*
X91543333Y-44172142D01*
X91590952Y-44219761D01*
X91686190Y-44267380D01*
X91781428Y-44267380D01*
X91876666Y-44219761D01*
X91924285Y-44172142D01*
X91971904Y-44076904D01*
X92019523Y-43886428D01*
X92019523Y-43648333D01*
X91971904Y-43457857D01*
X91924285Y-43362619D01*
X91876666Y-43315000D01*
X91781428Y-43267380D01*
X120816666Y-14835142D02*
X120864285Y-14882761D01*
X121007142Y-14930380D01*
X121102380Y-14930380D01*
X121245238Y-14882761D01*
X121340476Y-14787523D01*
X121388095Y-14692285D01*
X121435714Y-14501809D01*
X121435714Y-14358952D01*
X121388095Y-14168476D01*
X121340476Y-14073238D01*
X121245238Y-13978000D01*
X121102380Y-13930380D01*
X121007142Y-13930380D01*
X120864285Y-13978000D01*
X120816666Y-14025619D01*
X120340476Y-14930380D02*
X120150000Y-14930380D01*
X120054761Y-14882761D01*
X120007142Y-14835142D01*
X119911904Y-14692285D01*
X119864285Y-14501809D01*
X119864285Y-14120857D01*
X119911904Y-14025619D01*
X119959523Y-13978000D01*
X120054761Y-13930380D01*
X120245238Y-13930380D01*
X120340476Y-13978000D01*
X120388095Y-14025619D01*
X120435714Y-14120857D01*
X120435714Y-14358952D01*
X120388095Y-14454190D01*
X120340476Y-14501809D01*
X120245238Y-14549428D01*
X120054761Y-14549428D01*
X119959523Y-14501809D01*
X119911904Y-14454190D01*
X119864285Y-14358952D01*
X111291666Y-38717142D02*
X111339285Y-38764761D01*
X111482142Y-38812380D01*
X111577380Y-38812380D01*
X111720238Y-38764761D01*
X111815476Y-38669523D01*
X111863095Y-38574285D01*
X111910714Y-38383809D01*
X111910714Y-38240952D01*
X111863095Y-38050476D01*
X111815476Y-37955238D01*
X111720238Y-37860000D01*
X111577380Y-37812380D01*
X111482142Y-37812380D01*
X111339285Y-37860000D01*
X111291666Y-37907619D01*
X110720238Y-38240952D02*
X110815476Y-38193333D01*
X110863095Y-38145714D01*
X110910714Y-38050476D01*
X110910714Y-38002857D01*
X110863095Y-37907619D01*
X110815476Y-37860000D01*
X110720238Y-37812380D01*
X110529761Y-37812380D01*
X110434523Y-37860000D01*
X110386904Y-37907619D01*
X110339285Y-38002857D01*
X110339285Y-38050476D01*
X110386904Y-38145714D01*
X110434523Y-38193333D01*
X110529761Y-38240952D01*
X110720238Y-38240952D01*
X110815476Y-38288571D01*
X110863095Y-38336190D01*
X110910714Y-38431428D01*
X110910714Y-38621904D01*
X110863095Y-38717142D01*
X110815476Y-38764761D01*
X110720238Y-38812380D01*
X110529761Y-38812380D01*
X110434523Y-38764761D01*
X110386904Y-38717142D01*
X110339285Y-38621904D01*
X110339285Y-38431428D01*
X110386904Y-38336190D01*
X110434523Y-38288571D01*
X110529761Y-38240952D01*
X92876666Y-31472142D02*
X92924285Y-31519761D01*
X93067142Y-31567380D01*
X93162380Y-31567380D01*
X93305238Y-31519761D01*
X93400476Y-31424523D01*
X93448095Y-31329285D01*
X93495714Y-31138809D01*
X93495714Y-30995952D01*
X93448095Y-30805476D01*
X93400476Y-30710238D01*
X93305238Y-30615000D01*
X93162380Y-30567380D01*
X93067142Y-30567380D01*
X92924285Y-30615000D01*
X92876666Y-30662619D01*
X92543333Y-30567380D02*
X91876666Y-30567380D01*
X92305238Y-31567380D01*
X115736666Y-14835142D02*
X115784285Y-14882761D01*
X115927142Y-14930380D01*
X116022380Y-14930380D01*
X116165238Y-14882761D01*
X116260476Y-14787523D01*
X116308095Y-14692285D01*
X116355714Y-14501809D01*
X116355714Y-14358952D01*
X116308095Y-14168476D01*
X116260476Y-14073238D01*
X116165238Y-13978000D01*
X116022380Y-13930380D01*
X115927142Y-13930380D01*
X115784285Y-13978000D01*
X115736666Y-14025619D01*
X114879523Y-13930380D02*
X115070000Y-13930380D01*
X115165238Y-13978000D01*
X115212857Y-14025619D01*
X115308095Y-14168476D01*
X115355714Y-14358952D01*
X115355714Y-14739904D01*
X115308095Y-14835142D01*
X115260476Y-14882761D01*
X115165238Y-14930380D01*
X114974761Y-14930380D01*
X114879523Y-14882761D01*
X114831904Y-14835142D01*
X114784285Y-14739904D01*
X114784285Y-14501809D01*
X114831904Y-14406571D01*
X114879523Y-14358952D01*
X114974761Y-14311333D01*
X115165238Y-14311333D01*
X115260476Y-14358952D01*
X115308095Y-14406571D01*
X115355714Y-14501809D01*
X111291666Y-47347142D02*
X111339285Y-47394761D01*
X111482142Y-47442380D01*
X111577380Y-47442380D01*
X111720238Y-47394761D01*
X111815476Y-47299523D01*
X111863095Y-47204285D01*
X111910714Y-47013809D01*
X111910714Y-46870952D01*
X111863095Y-46680476D01*
X111815476Y-46585238D01*
X111720238Y-46490000D01*
X111577380Y-46442380D01*
X111482142Y-46442380D01*
X111339285Y-46490000D01*
X111291666Y-46537619D01*
X110386904Y-46442380D02*
X110863095Y-46442380D01*
X110910714Y-46918571D01*
X110863095Y-46870952D01*
X110767857Y-46823333D01*
X110529761Y-46823333D01*
X110434523Y-46870952D01*
X110386904Y-46918571D01*
X110339285Y-47013809D01*
X110339285Y-47251904D01*
X110386904Y-47347142D01*
X110434523Y-47394761D01*
X110529761Y-47442380D01*
X110767857Y-47442380D01*
X110863095Y-47394761D01*
X110910714Y-47347142D01*
X153836666Y-20677142D02*
X153884285Y-20724761D01*
X154027142Y-20772380D01*
X154122380Y-20772380D01*
X154265238Y-20724761D01*
X154360476Y-20629523D01*
X154408095Y-20534285D01*
X154455714Y-20343809D01*
X154455714Y-20200952D01*
X154408095Y-20010476D01*
X154360476Y-19915238D01*
X154265238Y-19820000D01*
X154122380Y-19772380D01*
X154027142Y-19772380D01*
X153884285Y-19820000D01*
X153836666Y-19867619D01*
X152979523Y-20105714D02*
X152979523Y-20772380D01*
X153217619Y-19724761D02*
X153455714Y-20439047D01*
X152836666Y-20439047D01*
X153836666Y-29567142D02*
X153884285Y-29614761D01*
X154027142Y-29662380D01*
X154122380Y-29662380D01*
X154265238Y-29614761D01*
X154360476Y-29519523D01*
X154408095Y-29424285D01*
X154455714Y-29233809D01*
X154455714Y-29090952D01*
X154408095Y-28900476D01*
X154360476Y-28805238D01*
X154265238Y-28710000D01*
X154122380Y-28662380D01*
X154027142Y-28662380D01*
X153884285Y-28710000D01*
X153836666Y-28757619D01*
X153503333Y-28662380D02*
X152884285Y-28662380D01*
X153217619Y-29043333D01*
X153074761Y-29043333D01*
X152979523Y-29090952D01*
X152931904Y-29138571D01*
X152884285Y-29233809D01*
X152884285Y-29471904D01*
X152931904Y-29567142D01*
X152979523Y-29614761D01*
X153074761Y-29662380D01*
X153360476Y-29662380D01*
X153455714Y-29614761D01*
X153503333Y-29567142D01*
X139866666Y-36927142D02*
X139914285Y-36974761D01*
X140057142Y-37022380D01*
X140152380Y-37022380D01*
X140295238Y-36974761D01*
X140390476Y-36879523D01*
X140438095Y-36784285D01*
X140485714Y-36593809D01*
X140485714Y-36450952D01*
X140438095Y-36260476D01*
X140390476Y-36165238D01*
X140295238Y-36070000D01*
X140152380Y-36022380D01*
X140057142Y-36022380D01*
X139914285Y-36070000D01*
X139866666Y-36117619D01*
X139485714Y-36117619D02*
X139438095Y-36070000D01*
X139342857Y-36022380D01*
X139104761Y-36022380D01*
X139009523Y-36070000D01*
X138961904Y-36117619D01*
X138914285Y-36212857D01*
X138914285Y-36308095D01*
X138961904Y-36450952D01*
X139533333Y-37022380D01*
X138914285Y-37022380D01*
X139866666Y-21687142D02*
X139914285Y-21734761D01*
X140057142Y-21782380D01*
X140152380Y-21782380D01*
X140295238Y-21734761D01*
X140390476Y-21639523D01*
X140438095Y-21544285D01*
X140485714Y-21353809D01*
X140485714Y-21210952D01*
X140438095Y-21020476D01*
X140390476Y-20925238D01*
X140295238Y-20830000D01*
X140152380Y-20782380D01*
X140057142Y-20782380D01*
X139914285Y-20830000D01*
X139866666Y-20877619D01*
X138914285Y-21782380D02*
X139485714Y-21782380D01*
X139200000Y-21782380D02*
X139200000Y-20782380D01*
X139295238Y-20925238D01*
X139390476Y-21020476D01*
X139485714Y-21068095D01*
X140461904Y-30622380D02*
X140461904Y-31431904D01*
X140414285Y-31527142D01*
X140366666Y-31574761D01*
X140271428Y-31622380D01*
X140080952Y-31622380D01*
X139985714Y-31574761D01*
X139938095Y-31527142D01*
X139890476Y-31431904D01*
X139890476Y-30622380D01*
X139461904Y-30717619D02*
X139414285Y-30670000D01*
X139319047Y-30622380D01*
X139080952Y-30622380D01*
X138985714Y-30670000D01*
X138938095Y-30717619D01*
X138890476Y-30812857D01*
X138890476Y-30908095D01*
X138938095Y-31050952D01*
X139509523Y-31622380D01*
X138890476Y-31622380D01*
M02*
