M48
; DRILL file {KiCad (5.1.0)-1} date 3/25/2020 8:19:02 PM
; FORMAT={-:-/ absolute / inch / decimal}
; #@! TF.CreationDate,2020-03-25T20:19:02-04:00
; #@! TF.GenerationSoftware,Kicad,Pcbnew,(5.1.0)-1
FMAT,2
INCH
T1C0.0130
T2C0.0300
T3C0.0394
T4C0.1260
T5C0.0669
T6C0.1378
%
G90
G05
T1
X2.625Y-3.3
X2.92Y-2.49
X3.365Y-0.825
X3.365Y-1.115
X3.375Y-1.65
X3.38Y-1.35
X3.38Y-1.55
X3.5319Y-1.0519
X3.55Y-0.8
X3.55Y-1.325
X3.55Y-1.525
X3.6192Y-0.9092
X3.65Y-1.35
X3.65Y-1.47
X3.65Y-1.6
X3.7214Y-1.7086
X3.725Y-0.875
X3.74Y-1.1
X3.75Y-2.7
X3.76Y-1.17
X3.79Y-0.6
X3.8106Y-0.7994
X3.92Y-2.73
X4.2375Y-2.01
X4.24Y-0.6
X4.24Y-1.58
X4.2418Y-0.9832
X4.2692Y-0.7308
X4.28Y-1.2
X4.285Y-1.925
X4.2856Y-1.8344
X4.29Y-2.17
X4.3Y-1.51
X4.3Y-2.33
X4.3013Y-0.8787
X4.3106Y-1.0894
X4.5Y-0.975
X4.5Y-1.575
X4.5Y-1.66
X4.51Y-0.94
X4.5311Y-1.6939
X4.55Y-0.61
X4.55Y-1.29
X4.5914Y-2.0186
X4.6223Y-1.8323
X4.64Y-0.68
X4.64Y-1.25
X4.64Y-1.36
X4.65Y-0.8575
X4.66Y-0.6325
X4.675Y-1.05
X4.7Y-1.75
X4.7346Y-0.8654
X4.75Y-1.29
X4.84Y-0.6629
X4.8456Y-1.2644
X4.85Y-1.33
X4.94Y-1.84
X4.97Y-1.51
X5.02Y-1.56
X5.03Y-1.7106
X5.35Y-1.23
X5.5586Y-1.4486
X5.6Y-1.26
X5.6075Y-0.8475
X5.6303Y-0.7103
X5.66Y-0.62
X5.96Y-1.12
X6.05Y-0.52
X6.1386Y-0.5914
X6.1386Y-1.0586
X6.48Y-1.1
X6.54Y-0.94
X7.22Y-1.1
X7.24Y-0.93
T2
X5.2Y-0.65
X5.2Y-0.75
X5.2Y-0.85
X5.2Y-0.95
X5.2Y-1.05
X5.2Y-1.15
X5.2Y-1.25
X5.2Y-1.35
X5.2Y-1.45
X5.2Y-1.55
X5.2Y-1.65
X5.2Y-1.75
X5.2Y-1.85
X5.2Y-1.95
X5.2Y-2.05
X5.2Y-2.15
X5.2Y-2.25
X5.2Y-2.35
X5.2Y-2.45
X5.2Y-2.55
X5.2Y-2.65
X5.2Y-2.75
X5.2Y-2.85
X5.2Y-2.95
X5.8Y-0.65
X5.8Y-0.75
X5.8Y-0.85
X5.8Y-0.95
X5.8Y-1.05
X5.8Y-1.15
X5.8Y-1.25
X5.8Y-1.35
X5.8Y-1.45
X5.8Y-1.55
X5.8Y-1.65
X5.8Y-1.75
X5.8Y-1.85
X5.8Y-1.95
X5.8Y-2.05
X5.8Y-2.15
X5.8Y-2.25
X5.8Y-2.35
X5.8Y-2.45
X5.8Y-2.55
X5.8Y-2.65
X5.8Y-2.75
X5.8Y-2.85
X5.8Y-2.95
X6.95Y-3.45
X7.05Y-0.6
X7.05Y-3.45
X7.15Y-3.45
X7.25Y-0.6
X7.25Y-3.45
X6.25Y-3.45
X6.35Y-0.6
X6.35Y-3.45
X6.45Y-3.45
X6.55Y-0.6
X6.55Y-3.45
T3
X3.35Y-2.25
X3.35Y-2.35
X3.45Y-2.25
X3.45Y-2.35
X3.55Y-2.25
X3.55Y-2.35
X7.9549Y-1.222
X8.0Y-1.1441
X8.0Y-1.3
X8.0451Y-1.222
X8.0902Y-1.1441
X8.0902Y-1.3
X8.1352Y-1.222
X8.1803Y-1.1441
X8.1803Y-1.3
X8.2254Y-1.222
X8.2705Y-1.1441
X8.2705Y-1.3
X8.3156Y-1.222
X8.3606Y-1.1441
X8.3606Y-1.3
X3.1Y-2.25
X3.1Y-2.35
X3.1Y-2.45
X3.1Y-2.55
X3.1Y-2.65
X3.35Y-2.6
X3.35Y-2.7
X3.45Y-2.6
X3.45Y-2.7
X3.55Y-2.6
X3.55Y-2.7
X4.15Y-3.15
X4.15Y-3.25
X4.25Y-3.15
X4.25Y-3.25
X4.35Y-3.15
X4.35Y-3.25
X4.45Y-3.15
X4.45Y-3.25
X4.55Y-3.15
X4.55Y-3.25
X4.65Y-3.15
X4.65Y-3.25
X4.75Y-3.15
X4.75Y-3.25
X4.85Y-3.15
X4.85Y-3.25
T4
X7.6778Y-1.2441
X8.662Y-1.2441
T5
X2.4966Y-1.1727
X2.7722Y-1.1727
X2.4966Y-1.705
X2.7722Y-1.705
T6
X2.4Y-3.5
X2.4Y-0.7
X9.0Y-0.7
X9.0Y-3.5
T0
M30
